<ttFont>
          <CharString index="0">
            271 -33 callgsubr
            -168 -74 -116 -165 -168 62 -108 171 81 66 18 callgsubr
            -44 -43 -74 callgsubr
            206 hlineto
            71 10 rlineto
            187 -19 123 -179 vhcurveto
            -11 -119 rmoveto
            50 5 -33 -69 hvcurveto
            -122 hlineto
            63 3 15 39 49 hhcurveto
            return
          </CharString>
          <CharString index="1">
            rmoveto
            -183 -17 -187 -696 rlineto
            162 hlineto
            41 173 rlineto
            153 hlineto
            40 -173 rlineto
            165 hlineto
            -284 533 rmoveto
            12 hlineto
            46 -241 rlineto
            -110 hlineto
            return
          </CharString>
          <CharString index="2">
            311 8 callsubr
            -82 -397 rlineto
            -7 hlineto
            -74 397 -151 -15 46 -155 54 -206 48 -156 rlinecurve
            -16 -70 -55 -29 -71 -13 54 -96 rcurveline
            -37 callgsubr
            -76 callgsubr
            return
          </CharString>
          <CharString index="3">
            -46 callgsubr
            -40 vlineto
            -95 callgsubr
            -36 38 -4 27 45 vvcurveto
            188 vlineto
            92 -16 86 -170 vhcurveto
            -87 -392 rmoveto
            47 41 15 79 11 vhcurveto
            -94 vlineto
            -15 -15 -24 -13 -29 hhcurveto
            -30 -22 11 38 hvcurveto
            endchar
          </CharString>
          <CharString index="4">
            rmoveto
            -144 20 -82 -545 rlineto
            -6 hlineto
            1 68 -76 432 -160 -15 -76 -485 rlineto
            -6 hlineto
            1 84 -83 460 -162 -19 141 -693 rlineto
            184 hlineto
            65 344 -2 64 rlineto
            8 hlineto
            72 -408 rlineto
            195 hlineto
            endchar
          </CharString>
          <CharString index="5">
            -101 callsubr
            127 rmoveto
            -195 -92 -145 -234 -123 17 -229 251 195 92 145 234 123 -17 229 -251 hvcurveto
            return
          </CharString>
          <CharString index="6">
            99 10 -84 -146 -170 -11 -76 -84 -98 -10 83 147 170 12 76 82 hvcurveto
            17 return
          </CharString>
          <CharString index="7">
            -65 callgsubr
            61 -39 83 79 42 37 37 30 vhcurveto
            3 hlineto
            12 -24 31 -35 30 -90 callgsubr
            -240 rmoveto
            -14 -15 -25 -13 -28 hhcurveto
            -30 -22 14 39 49 41 15 79 12 hvcurveto
            return
          </CharString>
          <CharString index="8">
            rmoveto
            -137 -105 -87 -120 -127 105 -50 79 -39 hvcurveto
            68 -34 58 -24 -55 vvcurveto
            -48 -46 -19 -37 -54 -65 22 33 -59 vhcurveto
            -59 -109 rlineto
            -48 69 93 -27 78 hhcurveto
            151 99 99 113 106 -76 45 -87 47 hvcurveto
            -74 41 -83 31 67 vvcurveto
            return
          </CharString>
          <CharString index="9">
            373 713 -106 callsubr
            return
          </CharString>
          <CharString index="10">
            rmoveto
            186 62 138 136 135 -31 148 -190 -91 callgsubr
            hvcurveto
            15 119 rmoveto
            -51 callsubr
            -80 callsubr
            hvcurveto
            endchar
          </CharString>
          <CharString index="11">
            60 10 13 74 -58 2 -112 4 -54 2 rlinecurve
            -10 -12 1 -11 hhcurveto
            -5 -549 rmoveto
            94 -3 29 -8 -33 vvcurveto
            -34 -55 -9 -69 -71 -44 15 34 23 13 9 17 16 vhcurveto
            26 -6 29 -2 31 -2 rrcurveto
            -9 436 rmoveto
            return
          </CharString>
          <CharString index="12">
            3 -26 7 -30 -20 vvcurveto
            -24 -8 -13 -42 -42 vhcurveto
            50 -49 rlineto
            89 62 19 27 42 vvcurveto
            26 -5 32 -3 26 vhcurveto
            return
          </CharString>
          <CharString index="13">
            rmoveto
            -68 hlineto
            -132 -124 -13 callsubr
            81 111 -81 12 callsubr
            return
          </CharString>
          <CharString index="14">
            rmoveto
            -143 21 -123 -318 rlineto
            -6 hlineto
            -118 318 -156 -20 57 -131 80 -185 58 -132 rlinecurve
            -245 163 245 vlineto
            return
          </CharString>
          <CharString index="15">
            -17 callsubr
            -41 hhcurveto
            -42 -40 22 22 -28 hvcurveto
            -51 -53 rlineto
            -44 34 -52 callsubr
            32 hvcurveto
            return
          </CharString>
          <CharString index="16">
            -20 -99 callgsubr
            return
          </CharString>
          <CharString index="17">
            -87 -15 rlineto
            -104 -18 -73 -42 -112 vvcurveto
            -110 return
          </CharString>
          <CharString index="18">
            313 12 callgsubr
            -186 -94 -157 -199 -173 20 -203 255 106 65 22 35 73 hvcurveto
            309 -231 vlineto
            -16 -114 rlineto
            return
          </CharString>
          <CharString index="19">
            43 -94 rlineto
            11 35 50 18 50 hhcurveto
            return
          </CharString>
          <CharString index="20">
            rmoveto
            -101 callsubr
            return
          </CharString>
          <CharString index="21">
            124 176 122 161 125 return
          </CharString>
          <CharString index="22">
            -95 callsubr
            endchar
          </CharString>
          <CharString index="23">
            29 379 rmoveto
            7 callsubr
            vhcurveto
            69 -30 36 -11 -32 vvcurveto
            -28 -26 -12 -28 -47 -58 25 18 -42 vhcurveto
            -55 -99 rlineto
            -28 48 65 -31 97 hhcurveto
            130 74 79 85 81 -63 36 -66 28 hvcurveto
            -64 28 -63 18 43 -28 callgsubr
            -20 -75 callsubr
            8 callgsubr
            hvcurveto
            return
          </CharString>
          <CharString index="24">
            -64 -19 -36 -39 -37 9 -45 66 62 21 36 38 37 -10 46 -65 1 callgsubr
            -36 -34 callsubr
            -45 65 64 20 36 38 37 -10 46 -66 hvcurveto
            endchar
          </CharString>
          <CharString index="25">
            hstem
            483 707 rmoveto
            -448 hlineto
            -13 -122 rlineto
            274 hlineto
            -273 -472 rlineto
            -113 458 vlineto
            12 122 rlineto
            -288 hlineto
            278 473 rlineto
            return
          </CharString>
          <CharString index="26">
            -138 19 -78 141 47 67 20 19 25 vhcurveto
            -27 89 rlineto
            -3 -13 -23 -7 -21 hhcurveto
            -44 -18 21 70 hvcurveto
            229 117 vlineto
            18 111 rlineto
            -135 return
          </CharString>
          <CharString index="27">
            65 8 -54 -100 -120 -5 -45 -65 return
          </CharString>
          <CharString index="28">
            -29 -23 -40 hvcurveto
            -88 callsubr
            return
          </CharString>
          <CharString index="29">
            -35 3 callgsubr
            118 99 102 119 return
          </CharString>
          <CharString index="30">
            119 319 119 return
          </CharString>
          <CharString index="31">
            97 -116 hlineto
            -5 -17 -22 -3 -23 hhcurveto
            -94 -38 68 151 147 13 110 91 hvcurveto
            return
          </CharString>
          <CharString index="32">
            -48 5 vhcurveto
            134 26 rlineto
            96 -10 -66 58 -114 hhcurveto
            return
          </CharString>
          <CharString index="33">
            -21 173 119 241 -20 return
          </CharString>
          <CharString index="34">
            -5 callgsubr
            -84 -111 84 -55 -57 return
          </CharString>
          <CharString index="35">
            -19 -17 -20 -23 -37 vvcurveto
            -56 42 -32 49 33 -62 callgsubr
            -3 -11 -14 -3 -13 hhcurveto
            -14 -13 9 19 return
          </CharString>
          <CharString index="36">
            -94 callsubr
            endchar
          </CharString>
          <CharString index="37">
            1 callsubr
            161 265 45 vlineto
            116 -265 rlineto
            176 hlineto
            -154 304 rlineto
            86 38 return
          </CharString>
          <CharString index="38">
            hstem
            -30 callgsubr
            144 -5 callsubr
            return
          </CharString>
          <CharString index="39">
            -20 callsubr
            -8 callsubr
            -708 return
          </CharString>
          <CharString index="40">
            rmoveto
            -524 153 540 vlineto
            return
          </CharString>
          <CharString index="41">
            -69 -25 -43 -43 -41 11 -52 74 -62 callsubr
            hvcurveto
            return
          </CharString>
          <CharString index="42">
            24 hhcurveto
            40 22 14 callgsubr
            return
          </CharString>
          <CharString index="43">
            rmoveto
            -90 callsubr
            return
          </CharString>
          <CharString index="44">
            hstem
            40 176 203 176 vstem
            return
          </CharString>
          <CharString index="45">
            69 25 43 42 41 -11 53 -74 return
          </CharString>
          <CharString index="46">
            rmoveto
            30 callgsubr
            hintmask 10111100
            -49 callsubr
            endchar
          </CharString>
          <CharString index="47">
            19 -4 10 -5 -13 vvcurveto
            -13 -8 -7 -18 -20 -26 7 4 -15 vhcurveto
            -20 -53 rlineto
            -12 24 40 -10 32 hhcurveto
            51 44 27 60 35 -19 16 -20 8 hvcurveto
            -11 4 -11 2 -12 4 3 return
          </CharString>
          <CharString index="48">
            -12 -46 callsubr
            return
          </CharString>
          <CharString index="49">
            -28 callsubr
            -9 -13 -42 22 callsubr
            return
          </CharString>
          <CharString index="50">
            -37 callsubr
            -20 return
          </CharString>
          <CharString index="51">
            rmoveto
            -183 -17 -187 -696 rlineto
            162 hlineto
            41 173 rlineto
            153 hlineto
            40 -173 rlineto
            164 hlineto
            -283 533 rmoveto
            11 hlineto
            46 -241 rlineto
            -109 hlineto
            return
          </CharString>
          <CharString index="52">
            918 rmoveto
            -64 -54 callsubr
            -64 hvcurveto
            return
          </CharString>
          <CharString index="53">
            -20 -37 -71 callgsubr
            39 37 -10 46 return
          </CharString>
          <CharString index="54">
            -65 -9 53 101 120 6 45 return
          </CharString>
          <CharString index="55">
            54 -40 73 hhcurveto
            73 54 40 44 return
          </CharString>
          <CharString index="56">
            -53 callsubr
            65 return
          </CharString>
          <CharString index="57">
            -12 116 324 117 return
          </CharString>
          <CharString index="58">
            132 -125 rlineto
            68 hlineto
            return
          </CharString>
          <CharString index="59">
            49 20 -21 -51 -55 -12 -26 -46 -49 -19 23 51 55 13 24 44 hvcurveto
            endchar
          </CharString>
          <CharString index="60">
            -69 -21 -39 -40 -43 14 -47 65 69 21 38 41 43 return
          </CharString>
          <CharString index="61">
            124 596 -20 return
          </CharString>
          <CharString index="62">
            rmoveto
            -86 -125 -62 -228 -218 94 -49 98 69 41 38 31 25 hvcurveto
            4 hlineto
            14 -63 119 15 -11 149 rlineto
            611 vlineto
            -153 return
          </CharString>
          <CharString index="63">
            24 rlineto
            110 -11 -62 79 -150 hhcurveto
            return
          </CharString>
          <CharString index="64">
            129 360 243 -128 128 return
          </CharString>
          <CharString index="65">
            -20 hstem
            49 -61 callgsubr
            49 525 rmoveto
            -476 vlineto
            -96 -3 -17 -65 -49 vhcurveto
            83 -88 rlineto
            112 69 27 35 106 vvcurveto
            531 vlineto
            return
          </CharString>
          <CharString index="66">
            -25 -20 -37 -18 -43 vvcurveto
            -32 13 -23 22 -17 vhcurveto
            return
          </CharString>
          <CharString index="67">
            -141 -76 -68 -128 -69 19 -60 63 -32 hvcurveto
            return
          </CharString>
          <CharString index="68">
            -40 callgsubr
            -47 -48 vhcurveto
            62 -61 rlineto
            91 85 20 29 61 vvcurveto
            32 -5 31 -7 37 vhcurveto
            return
          </CharString>
          <CharString index="69">
            rmoveto
            -105 -30 93 -196 -93 -196 105 -30 123 226 rlineto
            return
          </CharString>
          <CharString index="70">
            21 -3 callgsubr
            return
          </CharString>
          <CharString index="71">
            968 rmoveto
            -166 -170 68 -61 178 148 rlineto
            121 80 rmoveto
            -171 -164 64 -64 186 141 rlineto
            return
          </CharString>
          <CharString index="72">
            hstemhm
            -3 125 -96 146 -126 126 return
          </CharString>
          <CharString index="73">
            -39 -37 10 return
          </CharString>
          <CharString index="74">
            rmoveto
            -95 callsubr
            return
          </CharString>
          <CharString index="75">
            rmoveto
            -58 callsubr
            89 62 18 27 42 vvcurveto
            26 -4 32 -4 26 vhcurveto
            return
          </CharString>
          <CharString index="76">
            -20 -25 7 4 -15 vhcurveto
            -21 -53 rlineto
            -12 25 39 -10 33 hhcurveto
            return
          </CharString>
          <CharString index="77">
            20 -57 12 -30 -17 vvcurveto
            -21 -8 -24 -32 -51 vhcurveto
            75 -56 rlineto
            56 76 21 47 44 vvcurveto
            48 -17 37 -19 51 vhcurveto
            return
          </CharString>
          <CharString index="78">
            -6 callsubr
            -61 callgsubr
            return
          </CharString>
          <CharString index="79">
            4 -26 7 -30 -20 vvcurveto
            -24 return
          </CharString>
          <CharString index="80">
            -122 rlineto
            69 hlineto
            endchar
          </CharString>
          <CharString index="81">
            -26 -15 -26 hhcurveto
            -48 -25 26 128 154 49 11 34 return
          </CharString>
          <CharString index="82">
            -144 -43 -6 -100 -66 -9 -14 -100 rlineto
            return
          </CharString>
          <CharString index="83">
            -22 -41 -42 -44 15 -49 68 hvcurveto
            return
          </CharString>
          <CharString index="84">
            103 -71 71 -71 102 hstemhm
            return
          </CharString>
          <CharString index="85">
            -20 10 callsubr
            return
          </CharString>
          <CharString index="86">
            39 -37 79 hhcurveto
            52 48 21 40 47 hvcurveto
            -29 79 rlineto
            -26 -50 -36 -4 -23 hhcurveto
            -40 -28 14 6 -35 hvcurveto
            return
          </CharString>
          <CharString index="87">
            hstem
            -39 callgsubr
            return
          </CharString>
          <CharString index="88">
            -411 -11 -98 rlineto
            -6 hlineto
            -15 99 -100 410 rlineto
            -186 hlineto
            -38 -708 rlineto
            131 hlineto
            return
          </CharString>
          <CharString index="89">
            -65 callsubr
            -361 return
          </CharString>
          <CharString index="90">
            rmoveto
            -21 -29 -39 -23 return
          </CharString>
          <CharString index="91">
            -158 rlineto
            99 hlineto
            12 158 rlineto
            114 vlineto
            return
          </CharString>
          <CharString index="92">
            hhcurveto
            -42 -42 -18 -42 -43 hvcurveto
            32 -73 rlineto
            20 28 return
          </CharString>
          <CharString index="93">
            -22 callsubr
            vstem
            return
          </CharString>
          <CharString index="94">
            55 -57 111 return
          </CharString>
          <CharString index="95">
            -23 callgsubr
            hvcurveto
            -5 -65 rmoveto
            -8 callgsubr
            -27 return
          </CharString>
          <CharString index="96">
            rmoveto
            -161 -172 67 -57 174 148 rlineto
            121 81 rmoveto
            -162 -170 return
          </CharString>
          <CharString index="97">
            rmoveto
            68 hlineto
            132 125 30 callgsubr
            endchar
          </CharString>
          <CharString index="98">
            hstemhm
            37 165 -153 153 return
          </CharString>
          <CharString index="99">
            vstem
            231 708 -48 callgsubr
            return
          </CharString>
          <CharString index="100">
            hlineto
            18 124 rlineto
            return
          </CharString>
          <CharString index="101">
            145 119 return
          </CharString>
          <CharString index="102">
            163 vstem
            return
          </CharString>
          <CharString index="103">
            49 153 return
          </CharString>
          <CharString index="104">
            -163 -282 -166 282 -164 -708 164 296 166 return
          </CharString>
          <CharString index="105">
            -20 -75 callgsubr
            return
          </CharString>
          <CharString index="106">
            -20 -20 callsubr
            169 -5 callsubr
            return
          </CharString>
          <CharString index="107">
            rmoveto
            71 22 40 42 44 return
          </CharString>
          <CharString index="108">
            67 -7 callgsubr
            return
          </CharString>
          <CharString index="109">
            0 35 182 -20 hstemhm
            return
          </CharString>
          <CharString index="110">
            -161 hvcurveto
            -38 vlineto
            -65 -5 -16 -102 rlineto
            81 -426 154 426 return
          </CharString>
          <CharString index="111">
            -41 11 -50 71 67 25 43 40 40 -11 51 -72 -66 -25 -43 -40 vhcurveto
            return
          </CharString>
          <CharString index="112">
            -7 callgsubr
            230 vlineto
            207 70 172 180 174 return
          </CharString>
          <CharString index="113">
            -3 -42 callgsubr
            return
          </CharString>
          <CharString index="114">
            -96 68 -34 72 -33 return
          </CharString>
          <CharString index="115">
            540 rmoveto
            return
          </CharString>
          <CharString index="116">
            118 320 111 141 -20 return
          </CharString>
          <CharString index="117">
            hstem
            -4 callsubr
            return
          </CharString>
          <CharString index="118">
            223 -20 hstem
            return
          </CharString>
          <CharString index="119">
            55 57 rlineto
            return
          </CharString>
          <CharString index="120">
            295 0 124 49 119 8 122 161 125 return
          </CharString>
          <CharString index="121">
            vvcurveto
            -117 80 -68 157 166 83 98 109 92 return
          </CharString>
          <CharString index="122">
            -248 rlineto
            -90 179 -86 vlineto
            95 11 rlineto
            75 53 vlineto
            return
          </CharString>
          <CharString index="123">
            438 rlineto
            9 hlineto
            -12 -102 21 -379 rlineto
            149 hlineto
            return
          </CharString>
          <CharString index="124">
            -22 vvcurveto
            -21 -16 -30 -29 -48 vhcurveto
            77 -55 rlineto
            58 77 22 return
          </CharString>
          <CharString index="125">
            1 -12 129 482 121 return
          </CharString>
          <CharString index="126">
            116 213 116 return
          </CharString>
          <CharString index="127">
            158 51 158 return
          </CharString>
          <CharString index="128">
            11 callsubr
            29 return
          </CharString>
          <CharString index="129">
            -42 vhcurveto
            51 -49 rlineto
            return
          </CharString>
          <CharString index="130">
            768 rmoveto
            -215 -67 callgsubr
            return
          </CharString>
          <CharString index="131">
            -81 callgsubr
            endchar
          </CharString>
          <CharString index="132">
            -87 64 5 rlineto
            40 vlineto
            54 11 31 21 48 vvcurveto
            return
          </CharString>
          <CharString index="133">
            0 124 177 108 175 124 hstem
            return
          </CharString>
          <CharString index="134">
            -176 -21 185 -77 callsubr
            hstem
            return
          </CharString>
          <CharString index="135">
            rmoveto
            -101 276 101 vlineto
            endchar
          </CharString>
          <CharString index="136">
            -79 callgsubr
            224 -20 hstem
            return
          </CharString>
          <CharString index="137">
            rmoveto
            28 20 -7 -13 16 hvcurveto
            -146 -353 return
          </CharString>
          <CharString index="138">
            -67 29 -33 -79 rlineto
            11 -30 -34 7 -41 hhcurveto
            return
          </CharString>
          <CharString index="139">
            0 122 463 122 return
          </CharString>
          <CharString index="140">
            19 -6 callsubr
            154 return
          </CharString>
          <CharString index="141">
            71 10 rlineto
            187 -20 123 -175 return
          </CharString>
          <CharString index="142">
            98 135 113 -66 99 -144 -51 return
          </CharString>
          <CharString index="143">
            -99 -10 83 147 170 13 76 82 return
          </CharString>
          <CharString index="144">
            rrcurveto
            -245 163 245 vlineto
            endchar
          </CharString>
        <CharString name=".notdef">
          107 0 70 620 70 hstem
          99 80 277 81 vstem
          537 760 rmoveto
          -438 -760 438 hlineto
          -358 690 rmoveto
          277 -620 -277 hlineto
          endchar
        </CharString>
        <CharString name="A">
          38 21 -21 173 119 241 -20 200 -64 callgsubr
          endchar
        </CharString>
        <CharString name="AE">
          13 callsubr
          hstem
          379 164 vstem
          802 -19 callgsubr
          -524 hlineto
          -288 -708 rlineto
          163 hlineto
          67 173 rlineto
          159 -173 410 -7 callsubr
          -264 176 200 hlineto
          18 122 rlineto
          -218 161 241 hlineto
          -422 -37 rmoveto
          17 -254 -117 hlineto
          endchar
        </CharString>
        <CharString name="AEacute">
          13 callsubr
          224 -20 hstem
          379 164 vstem
          802 -19 callgsubr
          -524 hlineto
          -288 -708 rlineto
          163 hlineto
          67 173 rlineto
          159 -173 410 -7 callsubr
          -264 176 200 hlineto
          18 122 rlineto
          -218 161 241 hlineto
          -163 349 -81 callgsubr
          -309 -280 rmoveto
          17 -254 -117 hlineto
          endchar
        </CharString>
        <CharString name="Aacute">
          38 21 -74 callsubr
          419 -20 hstem
          412 932 rmoveto
          -36 callgsubr
          45 -81 231 86 rlineto
          -90 -113 -106 callsubr
          endchar
        </CharString>
        <CharString name="Abreve">
          38 21 -74 callsubr
          255 93 44 -64 callgsubr
          166 613 rmoveto
          -21 -29 -55 callgsubr
          55 40 44 32 hvcurveto
          endchar
        </CharString>
        <CharString name="Acaron">
          38 21 -21 533 -20 412 -64 callgsubr
          167 633 -12 callgsubr
          endchar
        </CharString>
        <CharString name="Acircumflex">
          38 21 -74 callsubr
          411 -20 hstem
          318 924 -94 callsubr
          -77 -87 -106 callsubr
          endchar
        </CharString>
        <CharString name="Adieresis">
          35 21 -74 callsubr
          247 158 hstem
          99 20 callsubr
          vstem
          182 918 rmoveto
          -63 -20 -37 -39 -37 9 -45 66 63 20 36 39 7 callgsubr
          209 hmoveto
          -63 -20 -37 -39 -37 9 -45 65 64 20 36 39 7 callgsubr
          -19 -205 -56 callsubr
          endchar
        </CharString>
        <CharString name="Agrave">
          38 21 -74 callsubr
          419 -20 hstem
          376 -27 callgsubr
          -51 -106 232 -86 rlineto
          41 -27 -106 callsubr
          endchar
        </CharString>
        <CharString name="Amacron">
          38 21 -74 callsubr
          266 101 -87 callgsubr
          194 588 rmoveto
          -276 -101 276 hlineto
          endchar
        </CharString>
        <CharString name="Aogonek">
          38 -196 72 145 27 callgsubr
          396 87 vstem
          487 -196 rmoveto
          33 28 14 7 15 hvcurveto
          -15 57 rlineto
          -3 -11 -13 -3 -14 hhcurveto
          -14 -13 9 19 34 59 45 22 17 hvcurveto
          -191 713 -183 -17 -187 -696 rlineto
          162 hlineto
          41 173 rlineto
          153 hlineto
          40 -173 rlineto
          72 hlineto
          -17 -14 -58 -33 -61 vvcurveto
          -56 43 -32 48 vhcurveto
          -149 488 rmoveto
          -110 hlineto
          52 241 rlineto
          12 hlineto
          endchar
        </CharString>
        <CharString name="Aring">
          35 21 -74 callsubr
          228 64 75 64 hstem
          181 66 70 67 vstem
          372 713 -56 callsubr
          58 652 rmoveto
          4 callgsubr
          -5 -64 rmoveto
          29 8 -19 -20 -20 -12 -16 -21 -28 -9 18 21 20 11 16 22 hvcurveto
          endchar
        </CharString>
        <CharString name="Aringbelow">
          38 -214 59 72 60 44 27 callgsubr
          186 62 67 61 vstem
          -98 callsubr
          56 -315 rmoveto
          -67 -31 -49 -49 -47 27 -46 65 67 31 53 45 49 -27 44 -65 hvcurveto
          -5 -60 rmoveto
          28 8 -18 -19 -19 -12 -16 -19 -28 -8 18 20 19 10 15 21 hvcurveto
          endchar
        </CharString>
        <CharString name="Atilde">
          38 21 -74 callsubr
          255 2 callgsubr
          hintmask 11101000
          -98 callsubr
          203 610 rmoveto
          -18 -30 -26 -13 -25 hhcurveto
          hintmask 11100100
          -43 -24 32 -52 -15 callsubr
          24 10 27 hhcurveto
          hintmask 11110000
          41 29 -60 callgsubr
        </CharString>
        <CharString name="B">
          57 0 117 193 117 166 115 hstemhm
          -39 callgsubr
          132 168 -141 176 hintmask 11110100
          1 callsubr
          237 vlineto
          173 89 92 117 97 -41 56 -119 15 hvcurveto
          6 vlineto
          hintmask 11111000
          80 17 45 64 86 vvcurveto
          93 -59 65 -137 vhcurveto
          -104 -398 rmoveto
          47 hlineto
          hintmask 11110100
          82 30 -42 -54 -53 -14 -44 -82 hvcurveto
          -63 hlineto
          476 vmoveto
          54 hlineto
          hintmask 11111000
          60 18 -29 -53 -54 -23 -30 -61 hvcurveto
          -48 hlineto
          endchar
        </CharString>
        <CharString name="C">
          26 -12 -43 callsubr
          hstem
          30 176 161 -5 callsubr
          -104 callgsubr
          endchar
        </CharString>
        <CharString name="Cacute">
          26 -12 -43 callsubr
          212 -20 hstem
          30 176 161 -5 callsubr
          -104 callgsubr
          98 212 -73 callgsubr
          232 86 rlineto
          endchar
        </CharString>
        <CharString name="Ccaron">
          26 -12 129 475 128 0 23 182 -20 hstemhm
          30 176 161 163 hintmask 11011100
          -104 callgsubr
          149 148 -61 callsubr
        </CharString>
        <CharString name="Ccedilla">
          26 -196 64 120 -43 callsubr
          hstemhm
          30 176 97 85 -21 163 hintmask 11011100
          388 -109 rmoveto
          55 -45 5 -29 9 vhcurveto
          3 28 91 1 76 26 54 28 rlinecurve
          -33 104 rlineto
          -10 -31 -63 -20 -50 hhcurveto
          -112 -43 74 157 149 14 95 81 hvcurveto
          hintmask 11101010
          49 17 -26 -93 hvcurveto
          163 8 rlineto
          168 -56 71 -160 -204 -80 -173 -195 -163 40 -165 179 -30 vhcurveto
          -19 -74 rlineto
          hintmask 11101100
          28 -5 45 -6 -21 vvcurveto
          -13 -7 -7 -19 -31 callsubr
          51 44 27 60 hvcurveto
          endchar
        </CharString>
        <CharString name="Ccircumflex">
          26 -12 -43 callsubr
          204 -20 hstem
          30 176 161 -5 callsubr
          -104 callgsubr
          17 204 -71 callsubr
        </CharString>
        <CharString name="Cdotaccent">
          26 -12 -43 callsubr
          35 169 hstemhm
          30 176 6 169 -14 163 hintmask 10111010
          -104 callgsubr
          -12 204 rmoveto
          hintmask 11011100
          -47 callsubr
          -14 47 -65 hvcurveto
          endchar
        </CharString>
        <CharString name="D">
          75 0 124 460 124 -20 callsubr
          168 175 vstem
          67 5 callsubr
          -40 182 -239 hvcurveto
          -64 -124 rmoveto
          55 hlineto
          88 25 -75 10 callgsubr
          hlineto
          endchar
        </CharString>
        <CharString name="Dcaron">
          69 0 124 459 125 2 callsubr
          61 164 168 175 hintmask 11011100
          61 5 callsubr
          -39 182 -240 hvcurveto
          -64 -125 rmoveto
          55 hlineto
          88 25 -74 10 callgsubr
          hlineto
          233 744 -61 callsubr
        </CharString>
        <CharString name="Dcroat">
          69 26 callsubr
          61 164 168 175 vstem
          61 -19 callgsubr
          -299 vlineto
          -59 -12 -12 -96 rlineto
          71 -301 230 hlineto
          207 70 172 180 174 -39 182 -240 hvcurveto
          -9 -124 rmoveto
          88 25 -75 10 callgsubr
          177 83 hlineto
          13 108 rlineto
          -96 175 hlineto
          endchar
        </CharString>
        <CharString name="E">
          -8 0 -86 callsubr
          -20 callsubr
          vstem
          1 callsubr
          419 vlineto
          -100 callgsubr
          18 125 rlineto
          endchar
        </CharString>
        <CharString name="Eacute">
          -7 0 -86 callsubr
          224 -20 -20 callsubr
          vstem
          414 932 -81 callgsubr
          -397 -118 rmoveto
          -708 419 vlineto
          -100 callgsubr
          18 125 rlineto
          endchar
        </CharString>
        <CharString name="Ebreve">
          -8 0 -86 callsubr
          60 93 44 -20 -20 callsubr
          vstem
          1 callsubr
          419 vlineto
          -100 callgsubr
          18 125 rlineto
          -109 197 rmoveto
          -21 -29 -55 callgsubr
          55 40 44 32 hvcurveto
          endchar
        </CharString>
        <CharString name="Ecaron">
          -8 0 -86 callsubr
          2 callsubr
          -39 callgsubr
          hintmask 11101100
          499 -19 callgsubr
          -432 -708 419 hlineto
          -100 callgsubr
          -35 285 rmoveto
          30 callgsubr
          hintmask 11011100
          -49 callsubr
          endchar
        </CharString>
        <CharString name="Ecircumflex">
          -8 0 -86 callsubr
          216 -20 -20 callsubr
          vstem
          314 924 -94 callsubr
          -379 -92 rmoveto
          -708 419 vlineto
          -100 callgsubr
          18 125 rlineto
          endchar
        </CharString>
        <CharString name="Edieresis">
          -8 0 -86 callsubr
          52 158 hstemhm
          -39 callgsubr
          -135 20 callsubr
          hintmask 11110110
          180 -55 callsubr
          208 hmoveto
          -63 -54 callsubr
          -65 hvcurveto
          hintmask 11111010
          -321 -210 rmoveto
          -708 419 vlineto
          -100 callgsubr
          18 125 rlineto
          endchar
        </CharString>
        <CharString name="Edotaccent">
          -8 0 -86 callsubr
          47 169 hstemhm
          -39 callgsubr
          -36 169 hintmask 11111000
          499 -19 callgsubr
          -432 -708 419 hlineto
          -100 callgsubr
          -196 341 rmoveto
          hintmask 11110100
          -47 callsubr
          -14 47 -65 hvcurveto
          endchar
        </CharString>
        <CharString name="Egrave">
          -8 0 -86 callsubr
          224 -20 -20 callsubr
          vstem
          376 -27 callgsubr
          -50 -106 231 -86 rlineto
          -265 -32 rmoveto
          -708 419 vlineto
          -100 callgsubr
          18 125 rlineto
          endchar
        </CharString>
        <CharString name="Emacron">
          -8 0 -86 callsubr
          71 101 -20 callsubr
          vstem
          499 -19 callgsubr
          -432 -708 419 hlineto
          -100 callgsubr
          -339 297 28 callsubr
        </CharString>
        <CharString name="Eng">
          101 -178 -21 220 -21 700 -1 callsubr
          563 700 rmoveto
          -163 -295 hlineto
          23 -133 -6 -3 -45 120 -148 311 rlineto
          -157 -700 164 291 hlineto
          -23 133 6 3 41 -110 140 -276 -10 -65 -31 -28 -67 -57 rlinecurve
          101 -90 rlineto
          171 121 4 63 111 vvcurveto
          endchar
        </CharString>
        <CharString name="Eogonek">
          -8 -196 72 124 -86 callsubr
          -20 callsubr
          87 87 vstem
          499 -19 callgsubr
          -432 -708 327 hlineto
          -10 -7 -13 -10 -14 -14 rrcurveto
          -72 callsubr
          20 21 22 17 16 hvcurveto
          15 15 15 13 13 10 18 124 rcurveline
          -273 176 209 hlineto
          17 122 rlineto
          -226 161 250 hlineto
          endchar
        </CharString>
        <CharString name="Eth">
          87 26 callsubr
          79 163 168 176 vstem
          79 -19 callgsubr
          -299 vlineto
          -21 -1 -39 -11 -11 -96 rlineto
          71 -301 229 hlineto
          207 71 172 180 174 -40 182 -240 hvcurveto
          -64 -124 rmoveto
          55 hlineto
          89 24 -75 -148 -142 -13 -95 -92 hvcurveto
          -63 177 83 hlineto
          14 108 rlineto
          -97 hlineto
          endchar
        </CharString>
        <CharString name="Euro">
          20 61 106 65 84 40 87 78 105 hstem
          530 573 rmoveto
          31 -42 -50 22 -77 hhcurveto
          -126 -73 -78 -107 -31 hvcurveto
          -62 -6 -19 -79 rlineto
          65 hlineto
          -1 -14 -1 -14 -14 vvcurveto
          -62 -4 -19 -78 rlineto
          87 hlineto
          -106 19 63 -65 116 hhcurveto
          75 69 32 29 37 hvcurveto
          -28 76 rlineto
          -18 -34 -53 -13 -40 hhcurveto
          -54 -24 21 44 -9 hvcurveto
          100 hlineto
          33 84 rlineto
          -139 hlineto
          14 0 13 1 13 vhcurveto
          153 hlineto
          33 87 rlineto
          -173 hlineto
          52 17 34 26 61 hhcurveto
          42 39 -14 -15 32 hvcurveto
          endchar
        </CharString>
        <CharString name="F">
          -35 21 -21 296 122 166 124 -20 callsubr
          vstem
          1 callsubr
          164 296 190 vlineto
          17 122 rlineto
          -207 166 236 hlineto
          17 124 rlineto
          endchar
        </CharString>
        <CharString name="G">
          69 -12 -24 callgsubr
          hstemhm
          32 176 176 167 -150 150 hintmask 11111000
          313 12 callgsubr
          -186 -95 -157 -199 -173 20 -203 255 106 65 22 35 73 hvcurveto
          309 -231 vlineto
          -15 -114 rlineto
          hintmask 11110100
          96 -116 hlineto
          -5 -17 -22 -3 -22 hhcurveto
          -95 -37 68 151 147 13 110 90 hvcurveto
          hintmask 11111000
          55 18 -25 -93 hvcurveto
          162 10 rlineto
          148 -52 88 -181 vhcurveto
          endchar
        </CharString>
        <CharString name="Gbreve">
          69 -12 -24 callgsubr
          48 93 44 -20 hstemhm
          33 175 176 -86 callgsubr
          108 185 -92 callsubr
          endchar
        </CharString>
        <CharString name="Gcircumflex">
          69 -12 -24 callgsubr
          204 -20 hstemhm
          33 175 176 168 -150 150 hintmask 11111100
          -89 callsubr
          hintmask 11111010
          -76 callsubr
          hintmask 11111100
          -63 callgsubr
          32 204 -71 callsubr
        </CharString>
        <CharString name="Gcommaaccent">
          69 -223 -21 232 -24 callgsubr
          hstemhm
          33 175 53 107 16 -86 callgsubr
          -63 -760 rmoveto
          -85 callgsubr
        </CharString>
        <CharString name="Gdotaccent">
          69 -12 128 124 114 125 241 -128 128 35 169 hstemhm
          33 175 18 169 -11 168 -150 150 hintmask 1101110100000000
          -89 callsubr
          hintmask 1101111010000000
          -76 callsubr
          hintmask 1101110100000000
          -63 callgsubr
          3 204 rmoveto
          hintmask 1110111010000000
          -47 callsubr
          -13 47 -66 hvcurveto
          endchar
        </CharString>
        <CharString name="H">
          98 21 -21 296 130 282 -20 -20 callsubr
          166 -5 callsubr
          397 hmoveto
          163 708 -3 callsubr
          hlineto
          endchar
        </CharString>
        <CharString name="Hbar">
          127 21 -21 296 130 83 98 101 -20 hstem
          82 164 166 -5 callsubr
          575 -19 callgsubr
          -163 -101 -166 101 -164 -101 -60 -98 60 -509 164 296 166 -296 163 509 60 98 -60 hlineto
          -329 -181 rmoveto
          83 166 -83 vlineto
          endchar
        </CharString>
        <CharString name="Hcircumflex">
          98 21 -21 296 130 282 -20 236 -20 -20 callsubr
          166 -5 callsubr
          560 -19 callgsubr
          -3 callsubr
          -296 163 hlineto
          -211 924 -71 callsubr
        </CharString>
        <CharString name="I">
          -232 21 -21 708 -2 callsubr
          endchar
        </CharString>
        <CharString name="IJ">
          65 -151 -21 193 -3 callgsubr
          -20 -20 callsubr
          133 164 vstem
          231 708 -52 callgsubr
          297 708 -48 callgsubr
          -559 hlineto
          -123 -33 -41 -99 -50 vhcurveto
          83 -107 rlineto
          183 83 30 91 110 vvcurveto
          endchar
        </CharString>
        <CharString name="Iacute">
          -49 callgsubr
          244 -20 hstem
          68 -5 callsubr
          274 932 rmoveto
          -226 -111 45 -81 231 86 rlineto
          -93 -118 rmoveto
          -163 -708 163 hlineto
          endchar
        </CharString>
        <CharString name="Ibreve">
          -49 callgsubr
          80 93 44 -2 callsubr
          29 905 -92 callsubr
          endchar
        </CharString>
        <CharString name="Icaron">
          -232 -37 callsubr
          35 182 -2 callsubr
          80 868 rmoveto
          -55 57 -106 -81 -106 81 -54 -57 127 -125 rlineto
          67 hlineto
          endchar
        </CharString>
        <CharString name="Icircumflex">
          -49 callgsubr
          236 -20 -20 callsubr
          vstem
          184 924 rmoveto
          -67 hlineto
          -129 -124 55 -57 107 81 108 -81 12 callsubr
          -82 -92 -52 callgsubr
          endchar
        </CharString>
        <CharString name="Idieresis">
          -49 callgsubr
          72 158 hstemhm
          -26 158 -65 164 -62 158 hintmask 11110100
          58 -55 callsubr
          194 hmoveto
          -63 -54 callsubr
          -65 hvcurveto
          hintmask 11101000
          -21 -210 -52 callgsubr
          endchar
        </CharString>
        <CharString name="Idotaccent">
          -49 callgsubr
          67 169 -75 callgsubr
          -76 924 rmoveto
          -47 callsubr
          -13 47 -66 hvcurveto
          endchar
        </CharString>
        <CharString name="Igrave">
          -49 callgsubr
          244 -20 -20 callsubr
          vstem
          247 -27 callgsubr
          -51 -106 232 -86 rlineto
          28 -32 -52 callgsubr
          endchar
        </CharString>
        <CharString name="Imacron">
          -49 callgsubr
          91 101 -75 callgsubr
          57 880 rmoveto
          -275 -101 275 hlineto
          endchar
        </CharString>
        <CharString name="Iogonek">
          -232 -196 72 145 -3 callgsubr
          -20 hstemhm
          67 84 -84 164 hintmask 11110000
          231 708 -48 callgsubr
          -708 72 hlineto
          -10 -8 -12 -9 -15 -14 rrcurveto
          -19 -17 -20 -23 -37 vvcurveto
          -56 43 -32 49 32 -54 callgsubr
          -14 -12 9 19 19 21 22 15 15 hvcurveto
          hintmask 11101000
          13 14 18 16 13 10 rrcurveto
          endchar
        </CharString>
        <CharString name="Itilde">
          -49 callgsubr
          80 2 callgsubr
          -39 callgsubr
          hintmask 11010100
          231 708 -52 callgsubr
          53 898 rmoveto
          -16 -26 -22 -11 -22 hhcurveto
          hintmask 11001100
          -41 -22 32 -49 hhcurveto
          -40 -34 -17 -40 -41 hvcurveto
          32 -76 rlineto
          20 25 17 10 24 hhcurveto
          hintmask 11100100
          38 28 -32 47 hhcurveto
          37 36 16 36 40 hvcurveto
          endchar
        </CharString>
        <CharString name="J">
          -232 -151 -21 880 -20 -20 callsubr
          -8 callsubr
          -559 hlineto
          -123 -33 -41 -99 -50 vhcurveto
          83 -107 rlineto
          184 83 29 91 110 vvcurveto
          endchar
        </CharString>
        <CharString name="Jcircumflex">
          -233 -151 -21 880 -20 236 -20 hstem
          66 164 vstem
          230 708 -48 callgsubr
          -559 hlineto
          -123 -33 -41 -99 -50 vhcurveto
          82 -107 rlineto
          184 83 30 91 110 vvcurveto
          -48 812 rmoveto
          -67 hlineto
          -127 -124 55 -57 105 81 106 -81 12 callsubr
          endchar
        </CharString>
        <CharString name="K">
          54 -57 callsubr
          25 -20 hstemhm
          -39 callgsubr
          hintmask 11010000
          231 708 -52 callgsubr
          hintmask 10110000
          -31 callgsubr
        </CharString>
        <CharString name="Kcommaaccent">
          54 -13 callgsubr
          708 -20 25 -20 hstemhm
          -39 callgsubr
          34 108 hintmask 11101100
          255 -72 callgsubr
          -134 737 -52 callgsubr
          hintmask 11011100
          -31 callgsubr
        </CharString>
        <CharString name="L">
          -54 0 124 584 -20 -68 callsubr
          385 -7 callsubr
          -239 hlineto
          endchar
        </CharString>
        <CharString name="Lacute">
          -54 0 124 584 -20 244 -20 -68 callsubr
          385 -7 callsubr
          -239 hlineto
          94 808 24 callsubr
        </CharString>
        <CharString name="Lcaron">
          -54 0 124 584 -20 71 -20 -20 callsubr
          105 117 vstem
          323 -40 callgsubr
          -46 -48 vhcurveto
          61 -61 rlineto
          92 85 20 29 61 vvcurveto
          32 -5 31 -7 37 vhcurveto
          -210 -51 -48 callgsubr
          -708 385 -7 callsubr
          -239 hlineto
          endchar
        </CharString>
        <CharString name="Lcommaaccent">
          -54 -223 -21 244 124 584 -20 hstemhm
          -39 callgsubr
          -29 107 hintmask 11110000
          231 708 -48 callgsubr
          -708 385 -7 callsubr
          -239 hlineto
          -40 -164 rmoveto
          hintmask 11101000
          -85 callgsubr
        </CharString>
        <CharString name="Ldot">
          -54 0 124 182 162 240 -20 -20 callsubr
          66 162 -8 callsubr
          -708 385 -7 callsubr
          -239 hlineto
          151 344 rmoveto
          -62 -23 -39 -34 callsubr
          -47 67 62 23 39 38 37 -10 48 -67 hvcurveto
          endchar
        </CharString>
        <CharString name="Lslash">
          -35 0 124 576 -20 hstemhm
          18 240 -164 164 hintmask 11010000
          258 700 -48 callgsubr
          -326 hlineto
          hintmask 11100000
          -76 -31 rlineto
          -116 vlineto
          hintmask 11010000
          76 30 rlineto
          -257 386 vlineto
          17 124 rlineto
          -239 199 hlineto
          116 48 rlineto
          116 vlineto
          -116 -48 rlineto
          endchar
        </CharString>
        <CharString name="M">
          221 -57 callsubr
          hstem
          59 120 378 135 vstem
          668 -19 callgsubr
          -182 hlineto
          -90 -19 callsubr
          16 381 -12 99 rlineto
          9 hlineto
          111 -446 149 9 106 16 callsubr
          endchar
        </CharString>
        <CharString name="Macute">
          224 -57 callsubr
          244 -20 hstem
          62 120 378 135 vstem
          671 -19 callgsubr
          -181 hlineto
          -91 -19 callsubr
          17 381 -12 99 rlineto
          8 hlineto
          111 -446 150 9 105 16 callsubr
          -210 932 -73 callgsubr
          232 86 rlineto
          endchar
        </CharString>
        <CharString name="N">
          101 21 -21 708 -1 callsubr
          563 708 -92 callgsubr
        </CharString>
        <CharString name="Nacute">
          101 -57 callsubr
          244 -1 callsubr
          497 826 rmoveto
          -50 106 -36 callgsubr
          44 -81 rlineto
          297 -32 -92 callgsubr
        </CharString>
        <CharString name="Ncaron">
          101 -57 callsubr
          237 -1 callsubr
          482 868 rmoveto
          -77 callgsubr
          -49 callsubr
          213 -35 -92 callgsubr
        </CharString>
        <CharString name="Ncommaaccent">
          101 -13 callgsubr
          708 -20 -20 callsubr
          40 107 22 -5 callsubr
          260 -40 rmoveto
          -28 callsubr
          -8 -13 -43 22 callsubr
          80 57 27 28 43 vvcurveto
          33 -4 23 -4 31 vhcurveto
          193 737 -92 callgsubr
        </CharString>
        <CharString name="Ntilde">
          101 -57 callsubr
          84 96 -65 65 -65 96 3 -20 hstemhm
          -39 callgsubr
          169 163 hintmask 11010111
          464 902 rmoveto
          -23 -35 -21 -11 -25 hhcurveto
          hintmask 11001011
          -43 -24 31 -52 hhcurveto
          -41 -34 -16 -41 -45 hvcurveto
          24 -72 rlineto
          22 35 18 11 27 hhcurveto
          hintmask 11100111
          41 29 -31 49 hhcurveto
          42 34 16 40 45 hvcurveto
          75 -120 rmoveto
          -163 -306 hlineto
          23 -129 -6 -3 -26 65 -167 373 rlineto
          -157 -708 164 301 hlineto
          -24 124 7 2 27 -69 167 -358 rlineto
          155 hlineto
          endchar
        </CharString>
        <CharString name="O">
          -51 callgsubr
          128 -63 callsubr
          310 592 -103 callgsubr
        </CharString>
        <CharString name="OE">
          309 -12 136 -124 -86 callsubr
          -125 137 hstemhm
          40 176 168 164 hintmask 10110110
          816 -19 callgsubr
          -421 hlineto
          hintmask 10101110
          6 -20 -26 6 -25 hhcurveto
          -192 -92 -146 -234 -123 17 -229 247 hvcurveto
          hintmask 01110110
          28 33 7 5 20 hvcurveto
          418 hlineto
          -100 callgsubr
          -489 9 rmoveto
          35 23 -8 -9 17 hvcurveto
          -444 vlineto
          -9 -15 -19 -6 -28 hhcurveto
          -94 -12 83 147 170 12 76 81 hvcurveto
          endchar
        </CharString>
        <CharString name="Oacute">
          -51 callgsubr
          128 212 -25 callgsubr
          450 932 -73 callgsubr
          232 86 rlineto
          -191 -234 -103 callgsubr
        </CharString>
        <CharString name="Obreve">
          -51 callgsubr
          127 49 93 44 -25 callgsubr
          310 592 rmoveto
          -102 callsubr
          105 186 -92 callsubr
          endchar
        </CharString>
        <CharString name="Ocaron">
          -51 callgsubr
          127 0 24 182 -20 hstemhm
          40 176 203 176 hintmask 11011100
          310 592 rmoveto
          -102 callsubr
          161 149 -61 callsubr
        </CharString>
        <CharString name="Ocircumflex">
          -51 callgsubr
          128 204 -25 callgsubr
          356 924 -94 callsubr
          -178 -208 -103 callgsubr
        </CharString>
        <CharString name="Odieresis">
          -51 callgsubr
          127 41 158 hstemhm
          40 176 -78 159 50 158 -86 176 hintmask 11101100
          222 -56 callgsubr
          -120 -326 rmoveto
          hintmask 11110010
          -102 callsubr
          endchar
        </CharString>
        <CharString name="Ograve">
          -51 callgsubr
          128 212 -25 callgsubr
          413 -27 callgsubr
          -51 -106 232 -86 rlineto
          -59 -148 -103 callgsubr
        </CharString>
        <CharString name="Ohorn">
          153 -12 128 476 127 55 -20 hstem
          40 175 0 204 0 175 cntrmask 00011100
          327 719 rmoveto
          -195 -92 -145 -234 -123 16 -229 251 195 92 145 234 51 -3 71 -22 64 hvcurveto
          107 36 25 39 9 68 rrcurveto
          4 29 0 32 17 vvcurveto
          -118 -10 rlineto
          1 -16 2 -12 -21 vvcurveto
          -51 -12 -21 -50 -22 vhcurveto
          56 -39 -65 42 -106 hhcurveto
          -17 -127 rmoveto
          99 10 -84 -146 -170 -11 -76 -84 36 callsubr
          hvcurveto
          endchar
        </CharString>
        <CharString name="Ohungarumlaut">
          -51 callgsubr
          128 248 -25 callgsubr
          319 -36 callsubr
          -289 -286 -103 callgsubr
        </CharString>
        <CharString name="Omacron">
          -51 callgsubr
          127 60 101 -63 callsubr
          310 592 rmoveto
          -102 callsubr
          -142 161 28 callsubr
        </CharString>
        <CharString name="Oslash">
          35 callgsubr
          61 -20 hstem
          40 170 215 170 vstem
          532 752 rmoveto
          31 callsubr
          -58 callgsubr
          -185 -74 30 callsubr
          -11 26 -5 32 -2 38 rlinecurve
          161 -4 5 116 99 hhcurveto
          15 callgsubr
          9 -25 4 -30 2 -34 rlinecurve
          -163 3 -3 -111 -101 hhcurveto
          endchar
        </CharString>
        <CharString name="Oslashacute">
          35 callgsubr
          212 -20 hstem
          40 169 217 169 vstem
          327 12 callgsubr
          -58 callgsubr
          37 86 31 callsubr
          -17 -128 30 callsubr
          rlineto
          -16 32 -3 44 51 vvcurveto
          170 14 76 87 vhcurveto
          15 callgsubr
          rlineto
          13 -30 3 -42 -45 vvcurveto
          -170 -13 -76 -89 vhcurveto
          110 816 24 callsubr
        </CharString>
        <CharString name="Otilde">
          -51 callgsubr
          127 49 103 -72 72 -72 103 hstemhm
          40 176 203 176 hintmask 11010110
          310 592 rmoveto
          -102 callsubr
          148 182 rmoveto
          -18 -30 -25 -12 -26 hhcurveto
          hintmask 11001110
          -43 -24 31 -51 hhcurveto
          -42 -42 -17 -43 -44 hvcurveto
          32 -72 rlineto
          19 28 24 10 27 hhcurveto
          hintmask 11100110
          41 29 -31 50 hhcurveto
          42 38 20 39 45 hvcurveto
          endchar
        </CharString>
        <CharString name="P">
          49 21 -21 249 118 229 112 -20 callsubr
          150 176 vstem
          1 callsubr
          164 249 43 vlineto
          230 53 137 109 112 -45 101 -189 hvcurveto
          -92 -112 rmoveto
          54 hlineto
          84 12 -48 -69 -75 -26 -37 -70 hvcurveto
          -54 hlineto
          endchar
        </CharString>
        <CharString name="Q">
          102 -164 -21 174 127 476 127 hstem
          39 175 204 175 vstem
          526 -185 rmoveto
          47 113 -261 51 rlineto
          10 vlineto
          191 2 90 144 232 vvcurveto
          123 -16 229 -251 -195 -92 -145 -234 -110 13 -197 184 -37 vhcurveto
          -29 -96 rlineto
          116 216 rmoveto
          36 callsubr
          98 11 -84 -146 -170 -12 -76 -83 hvcurveto
          endchar
        </CharString>
        <CharString name="R">
          46 21 -21 588 120 hstem
          67 161 138 175 vstem
          -70 callsubr
          44 70 95 vvcurveto
          111 -46 90 -163 vhcurveto
          -102 -120 rmoveto
          45 hlineto
          70 21 -36 -58 -66 -27 -41 -62 hvcurveto
          -47 hlineto
          endchar
        </CharString>
        <CharString name="Racute">
          46 21 -21 587 121 224 -20 hstem
          67 161 138 176 vstem
          -88 callgsubr
          -66 -27 -41 -62 hvcurveto
          -47 hlineto
          206 545 24 callsubr
        </CharString>
        <CharString name="Rcaron">
          46 21 -21 387 200 0 121 2 callsubr
          67 161 138 176 hintmask 10101110
          -88 callgsubr
          hvcurveto
          -66 -27 -41 -62 vhcurveto
          -47 hlineto
          hintmask 11011110
          26 356 -10 callsubr
        </CharString>
        <CharString name="Rcommaaccent">
          46 -13 callgsubr
          587 121 hstem
          67 161 29 107 2 176 vstem
          -88 callgsubr
          -66 -27 -41 -62 hvcurveto
          -47 hlineto
          16 -427 rmoveto
          -85 callgsubr
        </CharString>
        <CharString name="S">
          18 callsubr
          hstem
          32 160 150 170 vstem
          274 720 -99 callsubr
          37 25 25 40 53 25 -32 -60 10 vhcurveto
          152 -44 callsubr
          endchar
        </CharString>
        <CharString name="Sacute">
          1 -13 129 482 120 212 -20 hstem
          32 160 150 170 vstem
          387 930 rmoveto
          -226 -111 44 -80 232 85 rlineto
          -163 -106 rmoveto
          -137 -105 -86 -120 -128 105 -49 79 -39 hvcurveto
          68 -35 58 -23 -55 vvcurveto
          -48 -46 -19 -37 -54 -65 22 33 -59 vhcurveto
          -59 -109 rlineto
          -48 69 93 -27 78 hhcurveto
          151 99 99 113 106 -76 44 -87 48 hvcurveto
          -74 40 -83 32 67 vvcurveto
          37 25 25 40 53 25 -33 -59 10 vhcurveto
          152 24 rlineto
          109 -11 -62 79 -150 hhcurveto
          endchar
        </CharString>
        <CharString name="Scaron">
          18 callsubr
          0 23 182 -20 hstemhm
          32 160 150 170 hintmask 10111100
          377 925 -12 callgsubr
          -158 -148 -99 callsubr
          hintmask 11011100
          37 25 25 40 53 25 -32 -60 10 vhcurveto
          152 -44 callsubr
          endchar
        </CharString>
        <CharString name="Scedilla">
          1 -196 64 731 121 hstemhm
          32 160 88 84 -22 170 hintmask 11101000
          274 12 callgsubr
          -137 -105 -87 -120 -127 105 -50 79 -39 hvcurveto
          68 -34 58 -24 -55 vvcurveto
          -48 -46 -19 -37 -54 -65 22 33 -59 vhcurveto
          -59 -109 58 -41 75 -25 70 -7 rlinecurve
          -19 -70 14 -2 15 -4 16 -4 rlinecurve
          hintmask 11110000
          -60 callsubr
          30 rcurveline
          hintmask 11101000
          133 12 85 93 105 vvcurveto
          106 -76 45 -87 47 vhcurveto
          -74 41 -83 31 67 vvcurveto
          37 25 25 40 51 27 -32 -60 6 vhcurveto
          156 -44 callsubr
          endchar
        </CharString>
        <CharString name="Scircumflex">
          18 callsubr
          204 -20 hstem
          32 160 150 170 vstem
          274 720 -99 callsubr
          37 25 25 40 51 27 -32 -60 6 vhcurveto
          156 -44 callsubr
          26 204 -71 callsubr
        </CharString>
        <CharString name="Scommaaccent">
          1 -223 -21 232 129 482 121 hstem
          32 160 33 107 10 170 vstem
          274 720 -99 callsubr
          37 25 25 40 51 27 -32 -60 6 vhcurveto
          156 -44 callsubr
          -60 -760 -32 callsubr
          endchar
        </CharString>
        <CharString name="T">
          -18 21 -21 585 123 hstem
          178 164 vstem
          -38 callgsubr
          164 585 144 hlineto
          endchar
        </CharString>
        <CharString name="Tbar">
          -11 21 -21 295 98 192 123 hstem
          182 -5 callsubr
          505 -19 callgsubr
          -477 hlineto
          -15 -123 rlineto
          169 -192 -134 -98 134 -295 163 295 125 98 -125 192 145 hlineto
          endchar
        </CharString>
        <CharString name="Tcaron">
          -18 21 -21 585 123 2 callsubr
          178 164 hintmask 11011000
          9 585 rmoveto
          169 -585 164 585 144 hlineto
          16 123 rlineto
          -477 hlineto
          hintmask 10111000
          196 35 -10 callsubr
        </CharString>
        <CharString name="Tcedilla">
          -18 -196 64 153 -21 585 123 hstemhm
          178 164 -75 75 hintmask 11110000
          -38 callgsubr
          37 hlineto
          -21 -80 14 -2 14 -4 17 -4 rlinecurve
          hintmask 11101000
          19 -4 9 -5 -13 vvcurveto
          -13 -7 -7 -19 -31 callsubr
          51 44 27 60 35 -20 16 -19 8 hvcurveto
          -11 4 -11 2 -13 4 5 40 rcurveline
          59 585 144 hlineto
          endchar
        </CharString>
        <CharString name="Tcommaaccent">
          -18 -13 callgsubr
          585 123 hstemhm
          178 164 -130 108 hintmask 11110000
          -38 callgsubr
          164 585 144 hlineto
          -284 -625 rmoveto
          hintmask 11101000
          -85 callsubr
        </CharString>
        <CharString name="Thorn">
          24 21 -21 130 117 229 113 119 -20 hstem
          60 164 151 175 vstem
          224 708 -48 callgsubr
          -708 164 130 43 hlineto
          231 52 137 109 112 -44 101 -189 hvcurveto
          -93 hlineto
          -113 vmoveto
          55 hlineto
          84 12 -48 -69 -75 -27 -37 -69 hvcurveto
          -55 hlineto
          endchar
        </CharString>
        <CharString name="U">
          95 -12 124 596 -91 callsubr
          endchar
        </CharString>
        <CharString name="Uacute">
          -4 callgsubr
          438 932 -81 callgsubr
          70 -118 -106 callgsubr
          endchar
        </CharString>
        <CharString name="Ubreve">
          -50 callgsubr
          80 93 44 -91 callsubr
          -137 738 rmoveto
          -21 -28 -55 callgsubr
          54 40 44 33 hvcurveto
          endchar
        </CharString>
        <CharString name="Ucaron">
          -50 callgsubr
          237 -91 callsubr
          -282 576 rmoveto
          67 hlineto
          133 125 -5 callgsubr
          -81 -112 81 -54 -57 rlineto
          endchar
        </CharString>
        <CharString name="Ucircumflex">
          -50 callgsubr
          236 0 callgsubr
          343 924 rmoveto
          -67 hlineto
          -132 -124 54 -57 112 81 111 -81 12 callsubr
          82 -92 -106 callgsubr
          endchar
        </CharString>
        <CharString name="Udieresis">
          98 -59 callsubr
          72 158 hstemhm
          60 164 -98 158 50 159 -99 164 hintmask 11101100
          209 918 rmoveto
          -63 -20 -37 -39 -37 9 -45 66 62 21 36 39 7 callgsubr
          209 hmoveto
          -63 -21 -37 -34 callsubr
          -45 65 64 20 36 39 7 callgsubr
          hintmask 11110010
          140 -210 -106 callgsubr
          endchar
        </CharString>
        <CharString name="Ugrave">
          -4 callgsubr
          433 -27 callgsubr
          -50 -106 231 -86 rlineto
          169 -32 -106 callgsubr
          endchar
        </CharString>
        <CharString name="Uhorn">
          169 -59 callsubr
          86 -20 hstemhm
          60 164 170 164 vstemhm
          -105 callgsubr
          378 vlineto
          131 37 29 40 9 74 rrcurveto
          4 29 1 32 17 vvcurveto
          -119 -10 rlineto
          hintmask 11111000
          2 -16 1 -12 -21 vvcurveto
          -49 -11 -21 -47 -22 vhcurveto
          endchar
        </CharString>
        <CharString name="Uhungarumlaut">
          106 -59 callsubr
          280 -91 callsubr
          -250 801 rmoveto
          -166 -170 67 -61 179 148 rlineto
          120 80 rmoveto
          -170 -164 64 -64 185 141 rlineto
          endchar
        </CharString>
        <CharString name="Umacron">
          -50 callgsubr
          91 101 -99 callgsubr
          -385 713 28 callsubr
        </CharString>
        <CharString name="Uogonek">
          95 -196 72 112 -46 callsubr
          hstemhm
          60 164 170 77 -77 164 hintmask 11110100
          558 708 -48 callgsubr
          -555 hlineto
          -24 -16 -30 -17 -36 hhcurveto
          -45 -43 20 71 hvcurveto
          505 -164 -523 vlineto
          -141 96 -56 103 78 50 25 37 38 vhcurveto
          5 1 20 -58 -9 -7 -17 -16 -8 -8 rlinecurve
          -11 -10 -21 -23 -37 vvcurveto
          -56 42 -32 49 33 27 14 7 16 vhcurveto
          -15 57 rlineto
          -3 -11 -14 -3 -13 hhcurveto
          hintmask 11111000
          -15 -12 9 19 18 26 26 15 15 hvcurveto
          14 14 26 19 17 13 rrcurveto
          hintmask 11110100
          -11 158 rlineto
          endchar
        </CharString>
        <CharString name="Uring">
          -50 callgsubr
          53 65 73 65 hstemhm
          60 164 -16 67 68 68 -17 164 hintmask 11111001
          -105 callgsubr
          -246 777 rmoveto
          hintmask 11110110
          -72 -32 -52 -51 -51 28 -49 71 -12 callsubr
          -9 18 20 19 11 16 21 hvcurveto
          endchar
        </CharString>
        <CharString name="Utilde">
          -50 callgsubr
          80 2 callgsubr
          60 164 170 164 hintmask 11010110
          -105 callgsubr
          -100 735 rmoveto
          -18 -30 -25 -13 -25 hhcurveto
          hintmask 11001110
          -44 -24 32 -51 -15 callsubr
          23 10 27 hhcurveto
          hintmask 11100110
          41 30 -60 callgsubr
        </CharString>
        <CharString name="V">
          30 21 -21 713 -20 hstem
          565 692 rmoveto
          -150 21 -111 -452 -15 -117 rlineto
          -5 hlineto
          -15 118 -111 451 -159 -21 191 -692 rlineto
          179 hlineto
          endchar
        </CharString>
        <CharString name="W">
          275 21 -21 713 -20 hstem
          802 693 -103 callsubr
        </CharString>
        <CharString name="Wacute">
          275 21 -21 932 -20 hstem
          534 932 -81 callgsubr
          218 -133 -103 callsubr
        </CharString>
        <CharString name="Wcircumflex">
          275 21 -21 924 -20 hstem
          442 924 -94 callsubr
          228 -107 -103 callsubr
        </CharString>
        <CharString name="Wdieresis">
          275 21 -21 760 158 hstem
          225 20 callsubr
          vstem
          300 760 rmoveto
          63 20 36 39 37 -10 46 -64 -64 -20 -37 -34 callsubr
          -45 65 hvcurveto
          209 hmoveto
          63 20 36 39 37 -10 46 -65 -63 -20 -37 -34 callsubr
          -45 65 hvcurveto
          293 -67 -103 callsubr
        </CharString>
        <CharString name="Wgrave">
          275 21 -21 932 -20 hstem
          230 826 rmoveto
          231 -86 44 81 -225 111 rlineto
          522 -239 -103 callsubr
        </CharString>
        <CharString name="X">
          42 15 -21 719 -20 hstem
          559 692 rmoveto
          -156 21 -113 -228 -109 228 -168 -21 186 -339 -181 -339 156 -20 114 246 123 -246 166 20 -201 352 rlineto
          endchar
        </CharString>
        <CharString name="Y">
          0 21 -21 713 -20 hstem
          187 -5 callsubr
          538 692 -93 callsubr
          endchar
        </CharString>
        <CharString name="Yacute">
          0 21 -21 932 -20 hstem
          187 -5 callsubr
          400 932 -81 callgsubr
          88 -134 -93 callsubr
          endchar
        </CharString>
        <CharString name="Ycircumflex">
          0 21 -21 924 -20 hstem
          187 -5 callsubr
          538 692 -93 callsubr
          -50 679 -71 callsubr
        </CharString>
        <CharString name="Ydieresis">
          0 21 -21 760 158 hstemhm
          82 158 -53 163 -59 158 hintmask 11101000
          166 -55 callsubr
          208 hmoveto
          -63 -20 -37 -71 callgsubr
          39 37 -9 46 -66 hvcurveto
          164 -226 rmoveto
          -143 21 -123 -318 rlineto
          -6 hlineto
          -118 318 -156 -20 rlineto
          hintmask 11010000
          57 -131 80 -185 58 -132 37 callsubr
        </CharString>
        <CharString name="Ygrave">
          0 21 -21 932 -20 hstem
          187 -5 callsubr
          538 692 -93 callsubr
          -261 581 rmoveto
          232 -86 44 81 -225 111 rlineto
          endchar
        </CharString>
        <CharString name="Ytilde">
          0 21 -21 768 2 callgsubr
          187 163 hintmask 10101000
          538 692 -93 callsubr
          57 657 rmoveto
          -18 -30 -25 -13 -26 hhcurveto
          hintmask 10011000
          -43 -24 32 -51 hhcurveto
          -42 -42 -18 -42 -43 hvcurveto
          32 -73 rlineto
          20 27 24 10 27 hhcurveto
          hintmask 11001000
          -35 callgsubr
          endchar
        </CharString>
        <CharString name="Z">
          -71 32 callsubr
          -82 callsubr
          endchar
        </CharString>
        <CharString name="Zacute">
          -16 32 callsubr
          225 -20 -82 callsubr
          -112 337 -73 callgsubr
          232 86 rlineto
          endchar
        </CharString>
        <CharString name="Zcaron">
          -16 0 122 463 123 2 callsubr
          hintmask 11010000
          483 -19 callgsubr
          -448 hlineto
          -13 -123 rlineto
          274 hlineto
          -273 -472 rlineto
          -113 458 vlineto
          12 122 rlineto
          -288 hlineto
          278 473 rlineto
          -59 273 rmoveto
          30 callgsubr
          hintmask 10110000
          132 -125 rlineto
          67 hlineto
          endchar
        </CharString>
        <CharString name="Zdotaccent">
          -16 32 callsubr
          48 169 -82 callsubr
          -231 160 rmoveto
          69 21 38 41 43 -14 47 -65 -69 -22 -39 -40 -43 14 -47 66 hvcurveto
          endchar
        </CharString>
        <CharString name="a">
          -49 -50 callsubr
          hstem
          15 -29 callsubr
          279 324 rmoveto
          -87 -15 rlineto
          -104 -18 -73 -42 -112 vvcurveto
          -110 59 -39 85 77 41 37 37 29 vhcurveto
          4 hlineto
          12 -24 32 -35 32 -90 callgsubr
          -232 -41 callgsubr
          endchar
        </CharString>
        <CharString name="aacute">
          -10 callgsubr
          406 665 rmoveto
          -55 103 -216 -122 47 -78 rlineto
          69 -23 rmoveto
          -81 -90 -29 -23 -40 hvcurveto
          43 -94 rlineto
          11 35 50 18 50 hhcurveto
          -104 callsubr
        </CharString>
        <CharString name="abreve">
          -48 -12 109 331 117 43 93 44 -20 hstem
          15 -29 callsubr
          -100 callsubr
          70 499 -32 callgsubr
          endchar
        </CharString>
        <CharString name="acaron">
          -48 -12 109 331 117 -22 callgsubr
          15 -6 callsubr
          154 hintmask 11011100
          -100 callsubr
          126 469 rmoveto
          -73 callsubr
          rlineto
          hintmask 10111100
          131 -27 callsubr
        </CharString>
        <CharString name="acircumflex">
          -44 -50 callsubr
          207 -20 hstem
          19 -29 callsubr
          263 752 -78 callgsubr
          -144 -78 rmoveto
          -81 -90 -29 -23 -40 hvcurveto
          43 -94 rlineto
          11 35 50 18 50 hhcurveto
          -104 callsubr
        </CharString>
        <CharString name="acute">
          -194 589 -21 200 -20 hstem
          248 23 callsubr
          endchar
        </CharString>
        <CharString name="acute.case">
          -211 761 -21 192 -20 hstem
          246 932 24 callsubr
        </CharString>
        <CharString name="adieresis">
          -44 -50 callsubr
          34 157 hstemhm
          19 145 -111 159 50 158 -137 154 hintmask 11101100
          137 736 rmoveto
          -64 -20 -36 -34 callsubr
          -45 66 62 21 36 38 37 -11 46 -64 1 callgsubr
          -36 -34 callsubr
          -45 65 64 19 36 38 37 -9 46 -66 hvcurveto
          -94 -191 rmoveto
          -81 -90 -79 callsubr
          hintmask 11110010
          -104 callsubr
        </CharString>
        <CharString name="ae">
          208 3 callgsubr
          118 99 104 117 24 callgsubr
          247 -33 callgsubr
          5 callgsubr
          -22 -42 hvcurveto
          -39 vlineto
          -87 -15 rlineto
          -104 -19 -73 -41 -113 vvcurveto
          -108 58 -41 84 82 54 39 43 36 -16 callgsubr
          -82 -17 46 72 hvcurveto
          204 hlineto
          34 callsubr
          -68 -44 -25 -32 -31 vhcurveto
          32 -21 -34 25 -72 hhcurveto
          -87 -392 rmoveto
          48 41 14 79 12 vhcurveto
          -89 vlineto
          -18 -12 -26 -18 -30 hhcurveto
          -29 -23 13 38 hvcurveto
          343 273 rmoveto
          51 4 -33 -69 hvcurveto
          -121 hlineto
          63 3 14 39 49 hhcurveto
          endchar
        </CharString>
        <CharString name="aeacute">
          206 3 callgsubr
          118 99 104 117 217 -20 24 callgsubr
          517 -33 callgsubr
          -68 -44 -25 -32 -31 hvcurveto
          32 -21 -34 25 -72 hhcurveto
          5 callgsubr
          -23 -41 hvcurveto
          -39 vlineto
          -87 -15 rlineto
          -104 -19 -73 -41 -113 vvcurveto
          -108 58 -41 84 93 52 49 33 27 -16 callgsubr
          -83 -16 44 74 hvcurveto
          187 hlineto
          6 5 0 6 hhcurveto
          34 callsubr
          vhcurveto
          -14 -119 rmoveto
          51 4 -33 -69 hvcurveto
          -121 hlineto
          63 3 14 39 49 hhcurveto
          -20 336 20 callgsubr
          48 -79 224 97 rlineto
          -259 -520 rmoveto
          -10 -16 -20 -14 -26 -4 -8 -1 -7 0 -7 1 rrcurveto
          -23 2 -19 14 33 vvcurveto
          48 41 14 79 12 vhcurveto
          endchar
        </CharString>
        <CharString name="agrave">
          -10 callgsubr
          317 646 rmoveto
          -216 122 -55 -103 224 -97 rlineto
          -19 -23 rmoveto
          -81 -90 -29 -23 -40 hvcurveto
          43 -94 rlineto
          11 35 50 18 50 hhcurveto
          -104 callsubr
        </CharString>
        <CharString name="amacron">
          -48 -50 callsubr
          63 100 hstem
          15 -29 callsubr
          102 -19 callgsubr
          -100 276 100 vlineto
          -99 -384 -64 callsubr
          61 -39 83 77 41 37 37 29 vhcurveto
          4 hlineto
          12 -24 32 -35 32 -90 callgsubr
          -234 rmoveto
          -13 -15 -25 -13 -28 hhcurveto
          -30 -22 13 36 47 41 15 79 11 hvcurveto
          endchar
        </CharString>
        <CharString name="ampersand">
          91 -12 106 472 106 hstemhm
          21 161 -135 135 -135 147 155 126 hintmask 11010100
          465 515 rmoveto
          106 -13 -61 51 -135 hhcurveto
          -123 -86 -75 -100 -84 48 -37 55 -24 hvcurveto
          -5 vlineto
          hintmask 11100100
          -68 -25 -61 -59 -91 vvcurveto
          -133 101 -51 109 64 53 20 37 36 vhcurveto
          4 hlineto
          -39 17 39 -18 46 hhcurveto
          45 35 13 25 40 hvcurveto
          -28 78 rlineto
          -5 -14 -20 -5 -22 hhcurveto
          -23 -28 13 42 hvcurveto
          148 vlineto
          74 11 13 93 -119 -7 rlineto
          -94 -257 hlineto
          -20 -15 -27 -18 -40 hhcurveto
          -46 -39 31 59 55 42 34 50 9 hvcurveto
          34 5 14 102 rlineto
          hintmask 11001100
          -91 31 -37 28 52 vvcurveto
          39 27 22 39 40 26 -20 -53 9 vhcurveto
          endchar
        </CharString>
        <CharString name="aogonek">
          -48 -196 72 112 116 324 117 hstemhm
          15 145 76 87 -44 154 hintmask 11110100
          -65 callgsubr
          61 -39 83 79 42 37 37 30 vhcurveto
          3 hlineto
          5 -11 10 -14 12 -13 -19 -15 -33 -27 -13 -13 rrcurveto
          hintmask 11111000
          -72 callsubr
          18 25 27 24 25 hvcurveto
          24 23 30 27 47 45 rrcurveto
          hintmask 11110100
          -97 callgsubr
          -234 rmoveto
          -13 -15 -25 -13 -28 hhcurveto
          -30 -22 13 36 47 41 15 79 11 hvcurveto
          endchar
        </CharString>
        <CharString name="approxequal">
          93 72 117 -45 45 -45 122 25 120 -45 45 -45 120 hstemhm
          hintmask 10001000
          541 470 rmoveto
          -25 -27 -33 -34 -54 hhcurveto
          hintmask 10000100
          -80 -78 75 -83 hhcurveto
          -66 -61 -53 -31 -20 hvcurveto
          35 -93 rlineto
          28 27 32 29 49 hhcurveto
          hintmask 01010000
          87 60 -75 98 hhcurveto
          73 55 54 26 21 hvcurveto
          -25 -126 rmoveto
          -22 -23 -40 -34 -54 hhcurveto
          hintmask 00110000
          -80 -85 77 -83 hhcurveto
          -66 -59 -51 -35 -22 hvcurveto
          39 -92 rlineto
          28 26 31 28 50 hhcurveto
          hintmask 10010000
          86 56 -72 104 hhcurveto
          73 57 54 24 20 hvcurveto
          endchar
        </CharString>
        <CharString name="aring">
          -44 -50 callsubr
          21 64 75 64 hstemhm
          19 145 -22 66 75 62 -62 154 hintmask 11111010
          251 -33 callgsubr
          -81 -90 -29 -23 -40 hvcurveto
          -53 callgsubr
          -40 vlineto
          -95 callgsubr
          hintmask 11111001
          -36 38 -4 27 45 vvcurveto
          188 vlineto
          92 -16 86 -170 vhcurveto
          33 -413 -41 callgsubr
          -38 543 rmoveto
          hintmask 11110110
          4 callgsubr
          -139 vmoveto
          -29 -9 18 21 20 11 16 22 29 9 -19 -20 -20 -13 -16 -20 hvcurveto
          endchar
        </CharString>
        <CharString name="aringbelow">
          -48 -215 60 70 60 13 109 331 117 hstemhm
          15 145 -8 64 63 64 -64 154 hintmask 11111001
          -100 callsubr
          -35 -441 rmoveto
          hintmask 11110110
          66 32 53 44 50 -27 43 -65 -68 -31 -49 -48 -48 27 -45 66 hvcurveto
          5 60 rmoveto
          -27 -7 17 19 18 10 16 19 28 7 -18 -19 -18 -11 -15 -19 hvcurveto
          endchar
        </CharString>
        <CharString name="asciicircum">
          87 296 -21 479 -20 hstem
          352 754 rmoveto
          -106 -18 -191 -437 130 -23 120 279 128 -280 129 26 rlineto
          endchar
        </CharString>
        <CharString name="asciitilde">
          -13 194 109 -60 60 -60 114 hstemhm
          hintmask 01000000
          457 347 rmoveto
          -24 -35 -18 -20 -42 hhcurveto
          hintmask 00100000
          -62 -66 54 -69 hhcurveto
          -53 -34 -28 -44 -49 hvcurveto
          29 -85 rlineto
          24 36 25 19 39 hhcurveto
          hintmask 10000000
          61 56 -49 71 hhcurveto
          54 44 31 36 39 hvcurveto
          endchar
        </CharString>
        <CharString name="asterisk">
          -152 351 -21 401 -20 hstem
          167 80 vstem
          358 398 rmoveto
          30 72 -90 56 -67 -9 27 -64 rlineto
          -203 208 rmoveto
          -31 -71 88 -54 71 8 -25 64 rlineto
          239 -13 rmoveto
          -45 62 -95 -50 -26 -63 71 -7 rlineto
          -57 194 rmoveto
          -76 -10 -4 -106 42 -57 42 57 rlineto
          -79 -285 rmoveto
          75 9 4 109 -42 55 -42 -56 rlineto
          -148 17 rmoveto
          46 -61 93 49 27 65 -69 8 rlineto
          endchar
        </CharString>
        <CharString name="at">
          309 -151 104 112 94 245 92 109 104 hstem
          36 115 88 108 340 112 vstem
          399 159 rmoveto
          -33 -19 27 56 69 24 93 84 16 9 -2 -2 7 hvcurveto
          -8 -75 -3 -53 -7 -75 rrcurveto
          -16 -11 -28 -22 -31 hhcurveto
          69 550 rmoveto
          -211 -221 -139 -340 -347 254 -34 110 108 92 32 20 43 hvcurveto
          -35 90 rlineto
          -17 -41 -73 -21 -65 hhcurveto
          -60 -218 6 281 285 175 80 120 120 121 -47 -164 -171 -62 -69 -40 -13 -8 4 14 12 3 14 1 20 hvcurveto
          26 246 rlineto
          28 -64 -48 4 -35 hhcurveto
          -138 -70 -140 -114 -92 32 -85 106 43 39 21 31 28 hvcurveto
          4 hlineto
          -39 9 26 -17 37 hhcurveto
          125 111 119 227 185 -123 117 -208 hvcurveto
          endchar
        </CharString>
        <CharString name="atilde">
          -44 -50 callsubr
          41 -23 callsubr
          33 callsubr
          hintmask 11001110
          376 720 -68 callgsubr
          27 24 10 27 hhcurveto
          hintmask 11100110
          -35 callgsubr
          hintmask 11001110
          -123 -322 rmoveto
          -95 callgsubr
          -36 38 -4 27 45 vvcurveto
          188 vlineto
          92 -16 86 -170 -81 -90 -29 -23 -40 vhcurveto
          -53 callgsubr
          1 -232 -41 callgsubr
          endchar
        </CharString>
        <CharString name="b">
          -3 29 callsubr
          46 153 137 -5 callsubr
          46 57 rmoveto
          -43 58 66 -26 91 hhcurveto
          111 127 64 227 217 -104 49 -94 -64 -30 -20 -15 -18 hvcurveto
          -4 3 14 37 rlineto
          219 vlineto
          -153 -17 rlineto
          153 -353 rmoveto
          16 13 21 11 28 hhcurveto
          46 29 -27 -130 -154 -46 -8 -34 -24 -21 8 9 -12 hvcurveto
          endchar
        </CharString>
        <CharString name="backslash">
          -189 -94 -21 878 -20 hstem
          128 763 rmoveto
          -122 hlineto
          207 -878 rlineto
          123 hlineto
          endchar
        </CharString>
        <CharString name="bar">
          -252 -129 -21 910 -20 hstem
          72 134 vstem
          206 760 rmoveto
          -134 -910 134 hlineto
          endchar
        </CharString>
        <CharString name="braceleft">
          -156 -169 -21 1006 -20 hstemhm
          39 210 -131 131 hintmask 11010000
          382 816 rmoveto
          -60 hlineto
          -81 -123 -50 -141 hvcurveto
          -60 11 -53 -54 vvcurveto
          hintmask 11100000
          -61 -35 -22 -55 -6 vhcurveto
          -111 vlineto
          55 -8 35 -20 -62 vvcurveto
          hintmask 11010000
          -60 -11 -52 -54 vvcurveto
          -142 122 -50 82 vhcurveto
          61 hlineto
          -15 94 rlineto
          -91 9 -28 54 52 52 11 50 53 vvcurveto
          79 -60 46 -37 10 vhcurveto
          6 vlineto
          37 10 60 48 78 55 -10 49 52 vvcurveto
          51 26 55 92 9 vhcurveto
          endchar
        </CharString>
        <CharString name="braceright">
          -157 -169 -21 1006 -20 hstemhm
          123 132 -132 211 hintmask 11100000
          -9 816 rmoveto
          14 -94 rlineto
          92 -9 26 -55 -51 -52 -10 -49 -55 vvcurveto
          -78 60 -48 37 -10 vhcurveto
          -6 vlineto
          -37 -10 -60 -46 -79 -53 12 -50 -52 vvcurveto
          -52 -29 -54 -91 -9 vhcurveto
          -15 -94 rlineto
          61 hlineto
          82 122 50 142 hvcurveto
          54 -11 52 60 vvcurveto
          hintmask 11010000
          62 36 20 54 8 vhcurveto
          111 vlineto
          -54 6 -36 22 61 vvcurveto
          hintmask 11100000
          54 11 53 60 vvcurveto
          141 -123 50 -81 vhcurveto
          endchar
        </CharString>
        <CharString name="bracketleft">
          31 callgsubr
          69 130 -130 236 hintmask 11100000
          305 808 rmoveto
          -236 -975 hlineto
          hintmask 11010000
          236 117 hlineto
          hintmask 11100000
          -106 741 hlineto
          hintmask 11010000
          106 hlineto
          endchar
        </CharString>
        <CharString name="bracketright">
          31 callgsubr
          34 237 -130 130 hintmask 11100000
          271 808 rmoveto
          -237 -117 hlineto
          hintmask 11010000
          107 -741 hlineto
          hintmask 11100000
          -107 -117 237 hlineto
          endchar
        </CharString>
        <CharString name="breve">
          -167 588 93 44 -20 hstem
          291 725 -92 callsubr
          endchar
        </CharString>
        <CharString name="brokenbar">
          -265 -129 -21 910 -20 hstem
          62 137 vstem
          62 216 rmoveto
          -366 137 366 vlineto
          -137 544 rmoveto
          -366 137 366 vlineto
          endchar
        </CharString>
        <CharString name="bullet">
          -143 158 -21 294 -20 hstem
          203 431 rmoveto
          -109 -42 -63 -72 -68 13 -91 117 108 43 63 71 68 -13 92 -117 hvcurveto
          endchar
        </CharString>
        <CharString name="c">
          -15 callgsubr
          hstem
          -30 callgsubr
          116 145 vstem
          -98 callgsubr
          endchar
        </CharString>
        <CharString name="cacute">
          -15 callgsubr
          217 -20 hstem
          -30 callgsubr
          116 145 vstem
          -98 callgsubr
          96 217 rmoveto
          -216 -121 48 -79 224 97 rlineto
          endchar
        </CharString>
        <CharString name="caron">
          -154 594 -21 179 -20 hstem
          354 695 rmoveto
          -73 callsubr
          131 -27 callsubr
        </CharString>
        <CharString name="caron.case">
          -154 764 -21 182 -20 hstem
          354 868 rmoveto
          -77 callgsubr
          -49 callsubr
          endchar
        </CharString>
        <CharString name="ccaron">
          -48 -79 callgsubr
          -22 callgsubr
          -30 callgsubr
          116 145 hintmask 11011100
          -98 callgsubr
          160 150 rmoveto
          -73 callsubr
          rlineto
          hintmask 10111100
          131 -27 callsubr
        </CharString>
        <CharString name="ccedilla">
          -48 -196 64 121 118 319 119 hstemhm
          -30 callgsubr
          64 84 -32 145 hintmask 11111000
          268 -33 callgsubr
          -152 -87 -110 -176 -150 55 -96 117 -21 hvcurveto
          -18 -72 rlineto
          28 -5 45 -6 -21 vvcurveto
          -13 -8 -7 -18 -31 callsubr
          50 44 27 60 55 -44 5 -29 9 hvcurveto
          3 29 95 2 56 28 40 27 rlinecurve
          -32 91 rlineto
          -16 -42 -44 -14 -44 hhcurveto
          -76 -31 41 125 103 16 50 48 hvcurveto
          hintmask 11110100
          44 8 -17 -77 hvcurveto
          145 6 rlineto
          124 -27 83 -158 vhcurveto
          endchar
        </CharString>
        <CharString name="cdotaccent">
          -15 callgsubr
          24 176 hstemhm
          -30 callgsubr
          -25 176 -35 145 hintmask 10111010
          -98 callgsubr
          -19 24 rmoveto
          hintmask 11010100
          -66 callgsubr
          endchar
        </CharString>
        <CharString name="cedilla">
          -295 -196 64 -64 222 hstemhm
          129 84 hintmask 01100000
          148 26 rmoveto
          -64 hlineto
          -28 -106 13 -2 15 -4 16 -4 rlinecurve
          19 -4 10 -5 -13 vvcurveto
          hintmask 10100000
          -13 -8 -7 -18 -20 -26 7 4 -14 vhcurveto
          -21 -53 rlineto
          -12 25 39 -10 33 hhcurveto
          50 44 27 60 35 -19 16 -20 8 hvcurveto
          -10 4 -12 2 -12 4 rrcurveto
          endchar
        </CharString>
        <CharString name="cent">
          -6 -67 -21 852 -20 hstem
          44 161 vstem
          397 764 rmoveto
          -149 -18 2 -130 rlineto
          -141 -25 -65 -127 -164 vvcurveto
          -127 56 -77 95 -22 vhcurveto
          -28 -162 148 18 -4 140 59 8 48 25 33 27 rlinecurve
          -32 84 rlineto
          -18 -40 -40 -13 -45 hhcurveto
          -60 -29 34 111 127 43 51 70 44 35 -16 -14 36 hvcurveto
          52 86 -29 24 -39 21 -50 10 rlinecurve
          endchar
        </CharString>
        <CharString name="circumflex">
          -154 587 -21 186 -20 hstem
          222 752 -78 callgsubr
          endchar
        </CharString>
        <CharString name="circumflex.case">
          -154 764 -21 181 -20 hstem
          222 924 -71 callsubr
        </CharString>
        <CharString name="colon">
          -257 -12 179 162 179 hstem
          47 179 vstem
          141 167 rmoveto
          -66 callsubr
          341 vmoveto
          -69 -25 -43 -42 -41 11 -53 74 -62 callsubr
          hvcurveto
          endchar
        </CharString>
        <CharString name="comma">
          -294 -150 -21 318 -20 hstem
          48 141 vstem
          44 128 rmoveto
          3 -24 1 -40 -27 vvcurveto
          -52 -13 -28 -68 -61 vhcurveto
          65 -67 rlineto
          150 85 7 84 55 vvcurveto
          36 -1 34 -2 24 vhcurveto
          endchar
        </CharString>
        <CharString name="commaaccent">
          -316 -223 -21 215 -20 hstem
          71 108 vstem
          61 -72 callgsubr
          endchar
        </CharString>
        <CharString name="copyright">
          230 -94 86 73 85 234 83 74 86 hstem
          39 91 95 104 104 94 104 91 vstem
          393 467 rmoveto
          -108 -60 -82 -123 -133 61 -64 103 84 54 67 72 hvcurveto
          -94 8 rlineto
          -48 -16 -14 -31 -39 -18 37 77 80 16 40 43 36 9 -21 -51 vhcurveto
          94 9 rlineto
          85 -27 61 -107 vhcurveto
          -3 160 rmoveto
          -213 -138 -152 -209 -209 107 -151 225 214 137 151 209 209 -107 152 -225 hvcurveto
          -86 vmoveto
          171 70 -115 -160 -161 -98 -113 -162 -162 -79 113 161 160 98 115 162 hvcurveto
          endchar
        </CharString>
        <CharString name="currency">
          122 54 -21 74 118 218 117 89 -20 hstem
          84 156 162 156 vstem
          522 649 rmoveto
          -83 -105 rlineto
          10 -26 -34 6 -40 hhcurveto
          -36 -31 -5 -8 -26 hvcurveto
          -58 101 -112 -81 71 -79 rlineto
          -46 -49 -17 -67 -59 vvcurveto
          -40 7 -42 22 -36 vhcurveto
          -76 -73 104 -89 62 91 rlineto
          -11 27 34 -6 42 hhcurveto
          44 36 8 12 31 hvcurveto
          64 -94 107 87 -78 76 rlineto
          34 47 14 58 53 vvcurveto
          41 -8 46 -23 36 vhcurveto
          94 80 rlineto
          -293 -114 rmoveto
          54 20 -35 -59 -47 -9 -77 -80 -54 -19 35 58 44 8 81 80 hvcurveto
          endchar
        </CharString>
        <CharString name="d">
          1 -2 callgsubr
          vstem
          240 545 -45 callsubr
          -17 rlineto
          -198 vlineto
          15 -27 -1 -1 -1 -1 -1 -1 rlinecurve
          11 -18 -32 10 -51 hhcurveto
          89 -408 rmoveto
          -15 -12 -26 callsubr
          24 18 -8 -8 12 hvcurveto
          endchar
        </CharString>
        <CharString name="dagger">
          -15 6 -21 441 109 194 -20 hstem
          204 112 vstem
          57 533 rmoveto
          -16 -103 149 -8 50 60 -50 58 rlineto
          121 189 rmoveto
          -102 -15 -8 -164 60 -50 57 50 rlineto
          -107 -565 rmoveto
          98 16 14 409 -62 50 -64 -50 rlineto
          264 18 rmoveto
          15 103 -147 9 -49 -58 49 -60 rlineto
          endchar
        </CharString>
        <CharString name="daggerdbl">
          -35 6 -21 157 105 199 104 157 -20 hstem
          195 104 vstem
          66 548 rmoveto
          -15 -99 132 -6 47 56 -48 55 rlineto
          114 153 rmoveto
          -98 -14 -7 -130 57 -48 55 48 rlineto
          141 -17 rmoveto
          -130 8 -49 -55 49 -56 116 5 rlineto
          -125 -18 rmoveto
          -57 49 -56 -48 13 -85 -14 -85 57 -49 55 49 -12 85 rlineto
          -231 -101 rmoveto
          -15 -99 137 -7 48 58 -48 54 rlineto
          254 -106 rmoveto
          15 99 -137 7 -49 -54 49 -58 rlineto
          -115 -154 rmoveto
          98 14 8 129 -57 48 -56 -47 rlineto
          endchar
        </CharString>
        <CharString name="dcaron">
          141 -2 callgsubr
          97 116 vstem
          566 -39 callsubr
          -408 -333 rmoveto
          24 18 -8 -8 12 hvcurveto
          -273 vlineto
          -15 -12 -26 callsubr
          hvcurveto
          -35 119 -45 callsubr
          -16 rlineto
          -199 vlineto
          15 -27 -3 -3 rlineto
          11 -18 -32 10 -51 hhcurveto
          endchar
        </CharString>
        <CharString name="dcroat">
          5 -79 callgsubr
          60 88 76 -20 hstem
          30 164 136 -61 callgsubr
          242 -33 callgsubr
          -86 -126 -62 -228 -218 95 -49 98 69 40 38 31 26 hvcurveto
          4 hlineto
          13 -63 120 15 -11 149 rlineto
          447 62 88 -62 76 vlineto
          -154 -16 rlineto
          -60 -124 -88 124 -51 vlineto
          16 -27 -3 -3 rlineto
          11 -18 -32 10 -51 hhcurveto
          35 -119 rmoveto
          23 19 -8 -8 11 hvcurveto
          -273 vlineto
          -15 -11 -26 callsubr
          hvcurveto
          endchar
        </CharString>
        <CharString name="degree">
          -160 425 91 112 92 hstem
          37 102 92 101 vstem
          190 12 callgsubr
          -90 -63 -60 -93 -48 29 -94 114 91 61 60 93 48 -23 94 -119 hvcurveto
          -7 -92 rmoveto
          35 13 -24 -29 -31 -8 -28 -37 -32 -15 24 29 32 9 27 35 hvcurveto
          endchar
        </CharString>
        <CharString name="dieresis">
          -90 579 157 hstem
          37 158 50 159 vstem
          120 736 rmoveto
          -83 callsubr
        </CharString>
        <CharString name="dieresis.case">
          -116 760 158 hstem
          24 159 50 158 vstem
          108 -56 callgsubr
          endchar
        </CharString>
        <CharString name="divide">
          42 9 174 50 117 49 174 hstem
          202 174 vstem
          202 100 rmoveto
          4 callsubr
          390 vmoveto
          4 callsubr
          346 -140 rmoveto
          -504 hlineto
          -17 -117 rlineto
          503 hlineto
          endchar
        </CharString>
        <CharString name="dollar">
          -6 -61 -21 838 -20 hstem
          73 155 78 148 vstem
          229 739 rmoveto
          3 -125 rlineto
          -95 -16 -64 -61 -86 vvcurveto
          -97 81 -28 69 -32 vhcurveto
          44 -21 39 -12 -34 vvcurveto
          -34 -29 -16 -36 -42 -75 29 21 -42 vhcurveto
          -50 -109 41 -22 49 -24 62 -8 rlinecurve
          -23 -146 146 17 -3 133 rlineto
          94 21 56 64 82 vvcurveto
          83 -73 40 -53 26 vhcurveto
          -55 26 -45 18 31 vvcurveto
          23 16 22 39 42 53 -22 -25 55 vhcurveto
          51 110 -40 21 -38 18 -55 7 rlinecurve
          24 143 rlineto
          endchar
        </CharString>
        <CharString name="dong">
          -70 -81 77 63 89 237 87 60 77 71 -20 hstem
          37 131 vstem
          525 598 rmoveto
          -66 8 11 74 -123 -20 -10 -51 rlineto
          -125 hlineto
          -25 -77 rlineto
          137 hlineto
          -9 -48 20 -31 -5 -3 rlineto
          16 -20 -22 6 -32 hhcurveto
          -146 -73 -136 -113 -87 32 -77 108 53 39 25 24 32 hvcurveto
          4 hlineto
          9 -26 19 -21 29 -14 61 64 rcurveline
          -18 20 -11 18 24 vvcurveto
          12 2 12 1 9 vhcurveto
          50 326 rlineto
          65 hlineto
          -457 -536 rmoveto
          -12 -77 rlineto
          352 hlineto
          13 77 rlineto
          -195 152 rmoveto
          -31 -14 21 52 59 19 105 70 17 16 -7 -3 9 hvcurveto
          -28 -203 rlineto
          -12 -14 -20 -12 -24 hhcurveto
          endchar
        </CharString>
        <CharString name="dotaccent">
          -307 569 176 hstem
          24 176 vstem
          117 745 rmoveto
          22 callgsubr
          14 -49 68 72 22 40 42 44 -15 50 -68 hvcurveto
          endchar
        </CharString>
        <CharString name="dotaccent.case">
          -307 755 169 hstem
          27 169 vstem
          106 755 rmoveto
          69 21 38 41 43 -14 47 -65 -69 -21 -39 -40 -43 14 -47 65 hvcurveto
          endchar
        </CharString>
        <CharString name="dotlessi">
          21 -21 540 -14 callsubr
          49 524 -67 callsubr
          endchar
        </CharString>
        <CharString name="dotlessj">
          -278 -180 -21 741 -42 callsubr
          endchar
        </CharString>
        <CharString name="e">
          -78 callsubr
          hstem
          -30 callgsubr
          -17 callgsubr
          -107 callsubr
          endchar
        </CharString>
        <CharString name="eacute">
          -78 callsubr
          21 callsubr
          163 -17 callgsubr
          -107 callsubr
          109 342 20 callgsubr
          47 -78 225 97 rlineto
          endchar
        </CharString>
        <CharString name="ebreve">
          -78 callsubr
          43 93 44 -20 hstem
          -30 callgsubr
          -17 callgsubr
          -107 callsubr
          111 299 -92 callsubr
          endchar
        </CharString>
        <CharString name="ecaron">
          -78 callsubr
          -22 callgsubr
          -30 callgsubr
          123 154 hintmask 11101110
          -107 callsubr
          hintmask 11011110
          -33 147 rmoveto
          69 hlineto
          131 122 -73 callsubr
          rlineto
          endchar
        </CharString>
        <CharString name="ecircumflex">
          -78 callsubr
          207 -20 hstem
          -30 callgsubr
          -17 callgsubr
          -107 callsubr
          32 326 -78 callgsubr
          endchar
        </CharString>
        <CharString name="edieresis">
          -78 callsubr
          34 157 hstemhm
          -30 callgsubr
          -121 20 callsubr
          -123 154 hintmask 11111001
          -107 callsubr
          -105 310 rmoveto
          hintmask 11110110
          -64 -20 -36 -71 callgsubr
          38 37 -10 46 -64 11 callgsubr
          -63 -20 -36 -71 callgsubr
          38 7 callgsubr
          endchar
        </CharString>
        <CharString name="edotaccent">
          -78 callsubr
          24 176 hstemhm
          -30 callgsubr
          -19 176 -34 154 hintmask 11111010
          -107 callsubr
          -5 143 rmoveto
          hintmask 11110100
          -66 callgsubr
          endchar
        </CharString>
        <CharString name="egrave">
          -78 callsubr
          21 callsubr
          163 -17 callgsubr
          -107 callsubr
          -190 239 rmoveto
          225 -97 47 78 -216 122 rlineto
          endchar
        </CharString>
        <CharString name="eight">
          8 -12 115 469 108 hstemhm
          25 158 -135 153 129 153 -130 158 hintmask 11011000
          269 680 rmoveto
          -146 -75 -85 -102 -71 44 -46 52 -30 hvcurveto
          hintmask 11100100
          -78 -43 -41 -45 -85 14 callsubr
          -57 49 -67 32 vhcurveto
          hintmask 11101000
          69 40 27 48 62 vvcurveto
          84 -57 78 -157 vhcurveto
          -17 -389 rmoveto
          12 -5 rlineto
          hintmask 11100100
          48 -19 41 -22 -54 vvcurveto
          -50 -22 -38 -57 -61 -30 35 43 56 23 27 46 27 vhcurveto
          9 281 rmoveto
          hintmask 11011000
          42 27 -22 -44 -41 -15 -24 -32 -21 hvcurveto
          -44 17 -38 24 49 vvcurveto
          42 22 20 38 vhcurveto
          endchar
        </CharString>
        <CharString name="eight.capfit">
          36 -12 115 469 108 hstemhm
          40 158 -134 152 129 152 -129 158 hintmask 11011000
          284 680 rmoveto
          -144 -76 -85 -102 -71 46 -47 51 -30 hvcurveto
          hintmask 11100100
          -87 -52 -34 -37 -83 14 callsubr
          -59 49 -67 32 vhcurveto
          hintmask 11101000
          73 49 24 38 65 vvcurveto
          82 -56 78 -157 vhcurveto
          hintmask 11100100
          84 -489 rmoveto
          -50 -22 -38 -57 -61 -30 35 43 51 19 25 51 34 vhcurveto
          53 -21 47 -21 -58 vvcurveto
          hintmask 11011000
          -152 319 rmoveto
          42 22 20 38 42 27 -22 -44 -40 -10 -18 -38 -28 vhcurveto
          -43 17 -38 24 49 vvcurveto
          endchar
        </CharString>
        <CharString name="eightsuperior">
          -147 298 77 274 73 hstemhm
          37 113 -99 99 75 104 -91 108 hintmask 11011000
          192 722 rmoveto
          -92 -49 -54 -60 -46 24 -25 35 -19 hvcurveto
          hintmask 11100100
          -32 -22 -41 -23 -59 vvcurveto
          -74 51 -42 99 107 52 61 68 53 -36 28 -39 23 vhcurveto
          hintmask 11101000
          43 27 15 24 38 vvcurveto
          54 -37 48 -100 vhcurveto
          hintmask 11100100
          46 -300 rmoveto
          -28 -10 -19 -31 -32 -15 21 25 31 14 14 22 14 vhcurveto
          31 -13 21 -14 -31 vvcurveto
          -82 195 rmoveto
          23 15 9 17 vhcurveto
          hintmask 11101000
          21 16 -12 -22 -25 -10 -13 -15 -9 hvcurveto
          -22 9 -22 12 28 vvcurveto
          endchar
        </CharString>
        <CharString name="ellipsis">
          297 -12 179 hstem
          50 179 94 179 94 179 cntrmask 01110000
          144 167 rmoveto
          -66 callsubr
          273 hmoveto
          -66 callsubr
          273 hmoveto
          -66 callsubr
          endchar
        </CharString>
        <CharString name="emacron">
          -78 callsubr
          63 100 hstem
          -30 callgsubr
          -17 callgsubr
          -107 callsubr
          -137 282 rmoveto
          -100 276 100 vlineto
          endchar
        </CharString>
        <CharString name="emdash">
          262 196 121 hstem
          746 317 rmoveto
          -700 -121 700 hlineto
          endchar
        </CharString>
        <CharString name="endash">
          19 195 120 hstem
          503 315 rmoveto
          -457 -120 457 hlineto
          endchar
        </CharString>
        <CharString name="eng">
          -4 -179 -21 221 -45 callgsubr
          hstem
          49 -59 callgsubr
          38 525 rmoveto
          11 -147 rlineto
          -378 153 397 vlineto
          17 16 23 12 -65 callsubr
          -327 vlineto
          -89 -4 -17 -59 -56 vhcurveto
          100 -72 rlineto
          94 69 23 34 111 vvcurveto
          364 vlineto
          105 -56 62 -101 -68 -47 -25 -40 -33 vhcurveto
          -5 hlineto
          -14 60 rlineto
          endchar
        </CharString>
        <CharString name="eogonek">
          -35 -175 -21 184 119 118 99 102 119 hstem
          -30 callgsubr
          -17 callgsubr
          271 -33 callgsubr
          -168 -74 -116 -165 -168 62 -108 171 7 7 0 1 7 hvcurveto
          -20 -16 -42 -25 -56 vvcurveto
          -56 43 -32 48 33 -54 callgsubr
          -11 -11 9 14 -2 hvcurveto
          -1 7 3 11 6 10 24 52 72 38 45 25 -31 94 rcurveline
          -16 -44 -43 -74 callgsubr
          191 hlineto
          86 10 rlineto
          187 -19 123 -179 vhcurveto
          -11 -119 rmoveto
          50 5 -33 -69 hvcurveto
          -122 hlineto
          63 3 15 39 49 hhcurveto
          endchar
        </CharString>
        <CharString name="equal">
          17 125 118 94 117 hstem
          501 243 rmoveto
          -438 hlineto
          -17 -118 rlineto
          438 hlineto
          17 329 rmoveto
          -438 hlineto
          -17 -117 rlineto
          438 hlineto
          endchar
        </CharString>
        <CharString name="eth">
          21 -12 117 190 116 352 -20 hstem
          40 161 159 160 vstem
          331 763 rmoveto
          -72 -59 -49 26 -44 15 -42 16 rlinecurve
          -58 -103 34 -13 29 -14 28 -16 rlinecurve
          -58 -66 66 -70 85 70 53 -43 36 -58 16 -72 rlinecurve
          16 -13 -47 19 -41 hhcurveto
          -145 -69 -104 -105 -126 84 -88 144 181 71 120 150 140 -49 145 -119 98 hvcurveto
          58 63 rlineto
          -54 -435 rmoveto
          2 -15 2 -26 -13 vvcurveto
          -53 -20 -57 -62 -53 -24 34 60 56 25 40 60 27 26 -9 -17 17 vhcurveto
          endchar
        </CharString>
        <CharString name="exclam">
          -219 -13 182 542 -20 hstemhm
          78 158 -158 171 hintmask 11100000
          247 711 rmoveto
          -180 -10 23 -487 135 10 rlineto
          -63 -55 rmoveto
          -70 -25 -43 -44 -42 11 -53 75 hvcurveto
          hintmask 11010000
          32 callgsubr
        </CharString>
        <CharString name="exclamdown">
          -218 -167 -21 552 182 hstemhm
          66 182 -169 157 hintmask 11010000
          225 316 rmoveto
          -135 -10 -22 -494 179 10 rlineto
          -86 724 rmoveto
          hintmask 11100000
          -70 -25 -43 -44 -42 11 -53 75 32 callgsubr
        </CharString>
        <CharString name="f">
          -170 21 -21 426 109 126 113 hstem
          75 -61 callgsubr
          -6 426 rmoveto
          81 -426 154 426 122 hlineto
          18 109 rlineto
          -140 35 hlineto
          82 52 9 40 26 27 -4 -5 20 vhcurveto
          22 98 rlineto
          18 -46 -45 6 -49 hhcurveto
          -100 -101 -46 -156 hvcurveto
          -39 vlineto
          -65 -5 rlineto
          endchar
        </CharString>
        <CharString name="fi">
          16 21 -21 426 112 -3 -20 143 117 hstemhm
          75 154 122 153 hintmask 11011100
          461 744 rmoveto
          19 -46 -53 12 -66 hhcurveto
          -107 -114 -43 3 callsubr
          122 -426 153 542 hlineto
          hintmask 10111100
          -153 -7 rlineto
          -122 34 hlineto
          78 54 11 49 35 41 -11 -7 30 vhcurveto
          endchar
        </CharString>
        <CharString name="five">
          -12 -148 117 213 114 120 117 hstem
          331 164 vstem
          468 533 rmoveto
          -368 hlineto
          -34 -333 69 -45 rlineto
          17 32 25 10 37 hhcurveto
          57 45 -33 -66 -78 -44 -36 -58 -57 -45 21 6 callgsubr
          159 147 -92 62 -1 callgsubr
        </CharString>
        <CharString name="five.capfit">
          13 -12 116 214 114 120 116 hstem
          334 164 vstem
          471 668 rmoveto
          -368 hlineto
          -34 -333 69 -45 rlineto
          18 32 25 10 37 hhcurveto
          57 45 -33 -67 -77 -44 -37 -58 -57 -45 22 6 callgsubr
          158 147 -92 63 -1 callgsubr
        </CharString>
        <CharString name="fivesuperior">
          -162 298 79 120 76 64 79 hstem
          218 117 vstem
          319 716 rmoveto
          -242 hlineto
          -21 -205 49 -30 rlineto
          11 20 18 5 19 hhcurveto
          30 26 -17 -38 -45 -22 -20 -35 -33 -27 12 17 -42 hvcurveto
          -28 -68 rlineto
          -22 34 53 -18 54 hhcurveto
          78 85 48 98 90 -60 39 -81 -20 -20 -3 -7 -16 hvcurveto
          29 29 6 45 rlineto
          134 hlineto
          endchar
        </CharString>
        <CharString name="fl">
          54 -1 -21 43 -21 426 109 123 116 hstem
          75 154 151 -61 callgsubr
          534 755 rmoveto
          -84 -9 rlineto
          10 -32 -57 18 -67 hhcurveto
          -105 -114 -42 3 callsubr
          93 hlineto
          17 109 rlineto
          -110 34 hlineto
          78 54 11 49 15 17 -2 -3 16 vhcurveto
          -472 vlineto
          -108 26 -35 56 -60 vhcurveto
          109 81 rlineto
          -33 43 -4 19 63 vvcurveto
          endchar
        </CharString>
        <CharString name="florin">
          -30 -196 -21 582 108 174 119 hstem
          382 766 rmoveto
          -103 -82 -45 -149 -21 hvcurveto
          -15 -101 -80 -6 -27 -100 rlineto
          93 hlineto
          -46 -324 -13 -89 -11 -31 -98 -39 rlinecurve
          71 -99 134 35 44 52 16 110 rlinecurve
          55 385 rlineto
          111 hlineto
          26 108 rlineto
          -122 hlineto
          13 93 rlineto
          64 10 34 17 31 hhcurveto
          35 27 -9 -6 26 hvcurveto
          32 101 rlineto
          12 -22 -48 21 -70 hhcurveto
          endchar
        </CharString>
        <CharString name="four">
          44 -130 -21 151 111 435 -20 hstem
          312 152 vstem
          464 331 rmoveto
          -122 -17 -30 -144 rlineto
          -59 -116 vlineto
          170 360 -112 75 -223 -444 rlineto
          -102 281 -151 vlineto
          152 16 rlineto
          135 66 vlineto
          31 111 rlineto
          -97 hlineto
          endchar
        </CharString>
        <CharString name="four.capfit">
          67 10 -21 139 112 461 -20 hstem
          329 151 vstem
          480 464 rmoveto
          -125 -18 -26 -142 rlineto
          -64 -122 vlineto
          174 380 -108 81 -237 -470 rlineto
          -103 293 -139 vlineto
          151 16 rlineto
          123 61 vlineto
          31 112 rlineto
          -92 hlineto
          endchar
        </CharString>
        <CharString name="foursuperior">
          -139 320 -21 86 73 264 -20 hstem
          213 95 vstem
          308 593 rmoveto
          -74 -9 -21 -85 rlineto
          -41 -82 vlineto
          122 219 -67 45 -152 -247 rlineto
          -90 179 -86 vlineto
          95 10 rlineto
          76 53 vlineto
          17 73 rlineto
          -70 hlineto
          endchar
        </CharString>
        <CharString name="fraction">
          -269 16 -21 762 -20 hstem
          334 719 rmoveto
          -87 38 -314 -724 87 -38 rlineto
          endchar
        </CharString>
        <CharString name="franc">
          -89 88 -21 91 88 63 97 112 102 hstem
          480 620 rmoveto
          -335 hlineto
          -53 -374 -63 -13 -20 -75 rlineto
          71 hlineto
          -13 -91 rlineto
          131 hlineto
          13 91 rlineto
          107 hlineto
          23 88 rlineto
          -117 hlineto
          9 63 rlineto
          152 hlineto
          26 97 rlineto
          -165 hlineto
          16 112 rlineto
          188 hlineto
          endchar
        </CharString>
        <CharString name="g">
          -32 -200 107 89 115 54 112 157 111 -1 -20 hstemhm
          2 124 -96 147 -127 127 125 146 -83 127 hintmask 1111001010000000
          247 -33 callgsubr
          -140 -77 -68 -128 -69 20 -60 62 -32 hvcurveto
          hintmask 1111000110000000
          -24 -20 -38 -18 -43 vvcurveto
          -32 13 -23 23 -17 vhcurveto
          hintmask 1111010001000000
          -37 -29 -47 -25 -56 vvcurveto
          -74 56 -51 156 138 140 50 128 102 -65 23 -135 8 vhcurveto
          -80 6 rlineto
          -32 2 -10 9 15 vvcurveto
          9 6 4 13 10 vhcurveto
          -1 13 13 0 15 hhcurveto
          hintmask 1110110010000000
          146 -43 callgsubr
          60 10 13 74 -57 2 -113 4 -53 2 rlinecurve
          hintmask 1111010001000000
          -10 -12 1 -12 hhcurveto
          -5 -549 rmoveto
          94 -3 29 -8 -33 vvcurveto
          -35 -54 -10 -69 -71 -45 15 36 23 13 9 18 16 vhcurveto
          25 -6 30 -2 30 -2 rrcurveto
          -9 438 rmoveto
          hintmask 1111001010000000
          49 20 -22 -52 -54 -11 -29 -46 -49 -19 24 52 54 13 27 43 hvcurveto
          endchar
        </CharString>
        <CharString name="gbreve">
          -57 callgsubr
          43 93 44 -20 -35 callsubr
          126 146 -83 126 hintmask 1111110101000000
          360 725 -32 callgsubr
          -167 -127 rmoveto
          -40 callsubr
          hintmask 1111110011000000
          -41 callsubr
          hintmask 1111111000100000
          -93 callgsubr
          hintmask 1111111001000000
          147 -43 callgsubr
          hintmask 1111111000100000
          -96 callsubr
          hintmask 1111110101000000
          -48 callsubr
        </CharString>
        <CharString name="gcircumflex">
          -57 callgsubr
          207 -20 -35 callsubr
          126 146 -83 126 hintmask 1111101010000000
          281 752 rmoveto
          -74 hlineto
          -129 -122 55 -58 111 85 111 -85 55 58 rlineto
          -167 -85 rmoveto
          -40 callsubr
          hintmask 1111100110000000
          -41 callsubr
          hintmask 1111110001000000
          -93 callgsubr
          hintmask 1111110010000000
          147 -43 callgsubr
          hintmask 1111110001000000
          -96 callsubr
          hintmask 1111101010000000
          -48 callsubr
        </CharString>
        <CharString name="gcommaaccent">
          -57 callgsubr
          258 -20 -35 callsubr
          -1 127 0 146 -83 126 hintmask 1111110010100000
          304 580 rmoveto
          -1 25 -5 28 18 vvcurveto
          25 16 15 52 42 vhcurveto
          -61 70 rlineto
          -105 -67 -29 -20 -81 vvcurveto
          -22 3 -22 3 -24 vhcurveto
          66 -22 -94 callgsubr
          49 20 -21 -51 -55 -12 -26 -46 hvcurveto
          hintmask 1111101001000000
          -49 -19 23 51 55 13 24 44 hvcurveto
          endchar
        </CharString>
        <CharString name="gdotaccent">
          -57 callgsubr
          24 176 -35 callsubr
          -10 176 -40 146 -83 126 hintmask 1111110010100000
          244 569 rmoveto
          -66 callgsubr
          -1 -24 -94 callgsubr
          hintmask 1111101001000000
          -48 callsubr
        </CharString>
        <CharString name="germandbls">
          84 -12 109 -76 -21 652 114 hstemhm
          62 149 42 141 -30 30 -30 139 -61 142 hintmask 01110101
          287 766 rmoveto
          -101 -124 -56 -156 hvcurveto
          -554 149 561 vlineto
          68 36 23 43 47 27 -27 -44 vhcurveto
          hintmask 10111001
          -108 -111 7 -105 vvcurveto
          -74 44 -33 58 -30 vhcurveto
          52 -28 35 -17 -38 vvcurveto
          -32 -20 -26 -45 -34 -34 10 11 -30 vhcurveto
          -42 -99 rlineto
          -20 40 47 -11 66 hhcurveto
          101 93 76 101 hvcurveto
          151 -190 1 74 vvcurveto
          hintmask 10110010
          58 109 1 146 vvcurveto
          109 -82 61 -134 vhcurveto
          endchar
        </CharString>
        <CharString name="grave">
          -194 582 -21 201 -20 hstem
          88 762 rmoveto
          -55 -104 224 -97 47 79 rlineto
          endchar
        </CharString>
        <CharString name="grave.case">
          -211 761 -21 192 -20 hstem
          297 -27 callgsubr
          -50 -106 231 -86 rlineto
          endchar
        </CharString>
        <CharString name="greater">
          0 18 -21 515 -20 hstem
          127 512 rmoveto
          -84 -89 276 -180 -276 -157 83 -89 338 189 20 93 rlineto
          endchar
        </CharString>
        <CharString name="greaterequal">
          53 37 102 554 -20 hstem
          151 693 rmoveto
          -84 -89 276 -164 -276 -153 83 -90 338 187 19 93 rlineto
          24 -338 28 callgsubr
        </CharString>
        <CharString name="guillemotleft">
          -15 -29 callgsubr
          293 196 rmoveto
          -105 30 -123 -226 124 -226 104 30 -93 196 rlineto
          endchar
        </CharString>
        <CharString name="guillemotright">
          -15 45 -21 452 -20 hstem
          345 476 -38 callsubr
          -323 226 -38 callsubr
          endchar
        </CharString>
        <CharString name="guilsinglleft">
          -215 -29 callgsubr
          endchar
        </CharString>
        <CharString name="guilsinglright">
          -215 45 -21 452 -20 hstem
          145 476 -38 callsubr
          endchar
        </CharString>
        <CharString name="h">
          6 callsubr
          224 34 callgsubr
          49 752 rmoveto
          -752 -82 callgsubr
          228 vlineto
          endchar
        </CharString>
        <CharString name="hbar">
          -1 -42 callgsubr
          55 88 81 -20 hstem
          58 -59 callgsubr
          58 753 rmoveto
          -65 -54 -88 54 -600 -82 callgsubr
          59 124 88 -124 81 vlineto
          endchar
        </CharString>
        <CharString name="hcircumflex">
          -10 -42 callgsubr
          224 34 callgsubr
          392 743 rmoveto
          -69 hlineto
          -106 -118 51 -53 90 84 90 -84 51 53 rlineto
          -450 128 rmoveto
          -753 -82 callgsubr
          228 vlineto
          endchar
        </CharString>
        <CharString name="hook">
          -310 562 199 -180 -21 140 61 hstem
          46 151 -75 75 vstem
          197 685 17 callgsubr
          3 16 22 5 19 hhcurveto
          19 13 -6 -16 -18 -24 -8 -54 -5 hvcurveto
          4 25 callsubr
          endchar
        </CharString>
        <CharString name="hungarumlaut">
          -44 581 -21 230 -20 hstem
          183 790 -11 callsubr
          65 -60 177 147 rlineto
          endchar
        </CharString>
        <CharString name="hungarumlaut.case">
          -31 758 -21 231 -20 hstem
          186 -36 callsubr
          endchar
        </CharString>
        <CharString name="hyphen">
          -188 197 113 hstem
          304 310 rmoveto
          -266 -113 266 hlineto
          endchar
        </CharString>
        <CharString name="i">
          21 -21 569 176 -9 callsubr
          hintmask 11010000
          49 524 rmoveto
          -524 153 540 -26 callgsubr
        </CharString>
        <CharString name="iacute">
          21 -21 762 -14 callsubr
          223 762 20 callgsubr
          48 -79 224 97 rlineto
          -230 -134 -67 callsubr
          endchar
        </CharString>
        <CharString name="ibreve">
          21 -21 588 93 35 -14 callsubr
          225 716 rmoveto
          -17 -27 -34 -18 -38 hhcurveto
          -38 -35 18 17 -26 hvcurveto
          -51 -53 rlineto
          -39 31 50 -36 69 hhcurveto
          69 50 35 40 30 hvcurveto
          -226 -139 -67 callsubr
          endchar
        </CharString>
        <CharString name="icaron">
          21 -21 752 -14 callsubr
          91 573 rmoveto
          69 hlineto
          115 122 -55 57 -94 -84 -94 84 -55 -57 rlineto
          72 -171 -67 callsubr
          endchar
        </CharString>
        <CharString name="icircumflex">
          21 -21 752 -14 callsubr
          160 752 rmoveto
          -69 hlineto
          -113 -129 54 -57 94 83 92 -83 12 callsubr
          -224 -99 -67 callsubr
          endchar
        </CharString>
        <CharString name="idieresis">
          21 -21 583 149 hstemhm
          -36 149 -64 153 -63 149 hintmask 11101000
          42 732 rmoveto
          -60 -18 -35 -36 -35 9 -43 62 58 20 34 36 35 -10 44 -61 hvcurveto
          175 hmoveto
          -59 -19 -35 -36 -35 10 -43 60 60 19 34 36 35 -9 44 -62 hvcurveto
          hintmask 11010000
          -168 -208 -67 callsubr
          endchar
        </CharString>
        <CharString name="igrave">
          21 -21 762 -14 callsubr
          49 hmoveto
          153 540 hlineto
          -153 -16 rlineto
          151 37 rmoveto
          47 79 -215 122 -56 -104 rlineto
          endchar
        </CharString>
        <CharString name="ij">
          -36 -180 -21 222 -21 569 176 -9 callsubr
          78 165 -153 153 hintmask 11110010
          292 525 rmoveto
          -476 vlineto
          -96 -3 -17 -66 -49 vhcurveto
          83 -88 rlineto
          112 69 27 35 106 vvcurveto
          531 vlineto
          -82 29 0 callsubr
          -15 50 -68 hvcurveto
          hintmask 11101100
          -71 -24 callsubr
          -314 -45 -67 callsubr
          -82 29 0 callsubr
          -14 50 -68 hvcurveto
          hintmask 11110100
          -72 -24 callsubr
          endchar
        </CharString>
        <CharString name="il">
          -55 -4 -21 46 -21 569 176 24 -20 -9 callsubr
          89 153 hintmask 11111010
          120 569 0 callsubr
          -14 50 -68 -72 -24 callsubr
          hintmask 11110110
          -71 -45 -67 callsubr
          89 212 rmoveto
          -572 vlineto
          -109 23 -34 59 -62 vhcurveto
          111 81 rlineto
          -36 44 -4 20 63 vvcurveto
          586 vlineto
          endchar
        </CharString>
        <CharString name="imacron">
          -277 21 -21 608 100 hstemhm
          16 219 -186 155 hintmask 11100000
          16 -19 callgsubr
          -100 219 100 vlineto
          -187 -184 rmoveto
          2 -524 rlineto
          hintmask 11010000
          154 540 hlineto
          endchar
        </CharString>
        <CharString name="iogonek">
          -196 72 145 -21 588 174 hstemhm
          26 88 -65 153 hintmask 11101000
          49 524 rmoveto
          -524 56 vlineto
          -13 -9 -16 -12 -9 -9 rrcurveto
          hintmask 11110000
          -19 -18 -22 -23 -37 vvcurveto
          -56 43 -32 49 32 -54 callgsubr
          -14 -12 9 19 18 21 23 17 16 hvcurveto
          hintmask 11101000
          16 15 24 17 10 7 rrcurveto
          540 vlineto
          -82 48 rmoveto
          71 21 39 42 45 -14 48 -67 -72 -20 -39 -43 -44 14 -48 67 hvcurveto
          endchar
        </CharString>
        <CharString name="itilde">
          -280 21 -21 586 -23 callsubr
          -4 callsubr
          hintmask 10101000
          49 524 -67 callsubr
          45 166 rmoveto
          -10 -21 -18 -7 -20 hhcurveto
          hintmask 10011000
          -40 -23 31 -48 hhcurveto
          -36 -32 -14 -32 -36 hvcurveto
          32 -76 rlineto
          14 21 14 6 20 hhcurveto
          hintmask 11001000
          38 28 -32 47 hhcurveto
          32 34 13 29 36 hvcurveto
          endchar
        </CharString>
        <CharString name="j">
          -180 -21 770 176 -9 callsubr
          hintmask 11010000
          49 524 rmoveto
          -475 vlineto
          -96 -3 -17 -66 -49 vhcurveto
          84 -88 rlineto
          111 69 27 34 107 vvcurveto
          531 -26 callgsubr
        </CharString>
        <CharString name="jcircumflex">
          -280 -180 -21 953 -42 callsubr
          -42 212 rmoveto
          -69 hlineto
          -125 -129 55 -57 104 85 104 -85 12 callsubr
          endchar
        </CharString>
        <CharString name="k">
          -21 21 -21 769 -20 hstem
          47 -61 callgsubr
          47 752 rmoveto
          -752 154 769 vlineto
          323 -769 rmoveto
          -173 270 148 234 -141 40 -156 -272 154 -272 rlineto
          endchar
        </CharString>
        <CharString name="kcommaccent">
          -11 -13 callgsubr
          769 -20 hstem
          47 152 14 108 vstem
          47 753 rmoveto
          -753 152 769 vlineto
          157 -225 rmoveto
          -156 -272 154 -272 rlineto
          168 hlineto
          -173 270 148 234 rlineto
          -294 -544 rmoveto
          -85 callsubr
        </CharString>
        <CharString name="kgreenlandic">
          70 21 -21 533 -20 26 -20 hstemhm
          81 151 hintmask 10110000
          393 539 rmoveto
          -158 -280 151 -259 rlineto
          166 hlineto
          -171 270 150 234 rlineto
          hintmask 11010000
          -299 29 rmoveto
          -151 -533 151 hlineto
          endchar
        </CharString>
        <CharString name="l">
          -4 -21 780 -20 hstem
          46 -61 callgsubr
          46 738 rmoveto
          -558 vlineto
          -109 24 -34 59 -62 vhcurveto
          110 81 rlineto
          -35 44 -4 20 63 vvcurveto
          572 vlineto
          endchar
        </CharString>
        <CharString name="lacute">
          -4 -21 992 -20 hstem
          46 -61 callgsubr
          232 967 -81 callgsubr
          -236 -109 -80 callgsubr
        </CharString>
        <CharString name="lcaron">
          -143 -4 -21 794 -20 hstem
          46 154 97 116 vstem
          284 -39 callsubr
          -355 -7 -80 callgsubr
        </CharString>
        <CharString name="lcommaaccent">
          -223 -21 1013 -20 hstemhm
          46 154 -119 107 hintmask 11010000
          70 -40 -32 callsubr
          hintmask 11100000
          -134 781 -80 callgsubr
        </CharString>
        <CharString name="ldot">
          -133 -4 -21 330 161 303 -20 hstem
          46 154 50 162 vstem
          327 305 rmoveto
          62 23 38 38 37 -10 48 -67 -62 -23 -39 -38 -37 10 -47 67 hvcurveto
          -281 447 -80 callgsubr
        </CharString>
        <CharString name="less">
          0 18 -21 515 -20 hstem
          406 512 rmoveto
          -356 -233 19 -93 338 -189 83 89 -276 157 276 180 rlineto
          endchar
        </CharString>
        <CharString name="lessequal">
          53 37 102 554 -20 hstem
          429 693 rmoveto
          -356 -216 19 -93 338 -187 83 90 -276 153 276 164 rlineto
          18 -465 28 callgsubr
        </CharString>
        <CharString name="lira">
          -37 61 110 -73 73 66 82 37 82 77 110 hstemhm
          hintmask 01111000
          499 583 rmoveto
          25 -53 -36 17 -79 hhcurveto
          -112 -77 -56 -122 -11 hvcurveto
          -3 -1 -4 -3 vvcurveto
          -66 -9 -20 -72 rlineto
          80 hlineto
          -3 -37 -15 -1 -63 -9 -18 -72 rlineto
          87 hlineto
          -13 -53 -62 -13 -31 -24 45 -81 rcurveline
          20 27 22 12 29 hhcurveto
          hintmask 10111000
          63 -21 callsubr
          10 12 8 16 6 18 rrcurveto
          113 hlineto
          32 82 rlineto
          -128 hlineto
          3 37 rlineto
          137 hlineto
          34 82 rlineto
          -165 hlineto
          50 4 23 27 49 hhcurveto
          34 36 -7 -13 36 hvcurveto
          endchar
        </CharString>
        <CharString name="logicalnot">
          73 98 -21 168 121 hstem
          431 120 vstem
          551 366 rmoveto
          -487 hlineto
          -18 -121 rlineto
          385 -168 hlineto
          120 12 rlineto
          endchar
        </CharString>
        <CharString name="longs">
          -170 21 -21 661 113 hstem
          70 -61 callgsubr
          70 hmoveto
          154 570 hlineto
          82 52 9 40 25 27 -4 -5 20 vhcurveto
          23 98 rlineto
          18 -47 -44 6 -49 hhcurveto
          -100 -101 -46 -156 hvcurveto
          endchar
        </CharString>
        <CharString name="lozenge">
          133 19 -21 682 -20 hstem
          384 680 rmoveto
          -110 -12 -236 -324 239 -346 109 12 237 334 rlineto
          -292 197 rmoveto
          142 -197 -142 -205 -142 205 rlineto
          endchar
        </CharString>
        <CharString name="lslash">
          -222 -4 -21 794 -20 hstemhm
          8 222 -152 152 -152 220 hintmask 11010000
          78 752 rmoveto
          -342 vlineto
          hintmask 11100000
          -70 -29 rlineto
          -107 vlineto
          hintmask 11010000
          70 29 rlineto
          -123 vlineto
          -109 24 -34 59 -62 vhcurveto
          109 81 rlineto
          -36 44 -4 20 63 vvcurveto
          181 vlineto
          hintmask 11001000
          68 28 rlineto
          108 vlineto
          hintmask 11100000
          -68 -28 rlineto
          297 vlineto
          endchar
        </CharString>
        <CharString name="m">
          253 -42 callgsubr
          10 callsubr
          115 153 114 -61 callgsubr
          38 525 rmoveto
          11 -149 rlineto
          -376 153 397 vlineto
          14 12 19 15 30 hhcurveto
          32 22 14 callgsubr
          -361 153 397 vlineto
          14 11 20 15 30 hhcurveto
          32 21 14 callgsubr
          -361 154 354 vlineto
          116 -43 75 -111 -68 -44 -26 -39 -32 vhcurveto
          42 -24 -43 23 -58 hhcurveto
          -64 -44 -25 -41 -32 hvcurveto
          -4 hlineto
          -14 61 rlineto
          endchar
        </CharString>
        <CharString name="macron">
          -207 608 100 hstem
          24 -19 callgsubr
          -100 275 100 vlineto
          endchar
        </CharString>
        <CharString name="macron.case">
          -207 779 101 hstem
          24 880 rmoveto
          -101 275 101 vlineto
          endchar
        </CharString>
        <CharString name="macute">
          253 -42 callgsubr
          223 -22 callsubr
          115 153 114 -61 callgsubr
          38 525 rmoveto
          11 -149 rlineto
          -376 153 397 vlineto
          14 12 19 15 30 hhcurveto
          32 22 14 callgsubr
          -361 153 397 vlineto
          14 11 20 15 30 hhcurveto
          32 21 14 callgsubr
          -361 154 354 vlineto
          116 -43 75 -111 -68 -44 -26 -39 -32 vhcurveto
          42 -24 -43 23 -58 hhcurveto
          -64 -44 -25 -41 -32 hvcurveto
          -4 hlineto
          -14 61 rlineto
          366 228 rmoveto
          -216 -67 callgsubr
          endchar
        </CharString>
        <CharString name="minus">
          -28 208 128 hstem
          93 336 rmoveto
          -15 -128 rlineto
          350 hlineto
          15 128 rlineto
          endchar
        </CharString>
        <CharString name="mu">
          21 -176 -21 185 118 434 -20 hstem
          51 154 129 153 vstem
          487 8 callsubr
          -21 callgsubr
          -390 vlineto
          -16 -15 -21 -14 -30 hhcurveto
          -38 -25 20 45 hvcurveto
          369 vlineto
          -154 -14 rlineto
          -723 vlineto
          154 17 rlineto
          133 vlineto
          -33 50 3 3 rlineto
          -11 9 27 -7 18 hhcurveto
          53 57 32 42 26 hvcurveto
          4 -5 14 -23 28 -31 30 -15 rlinecurve
          87 81 rlineto
          -36 38 -5 27 45 vvcurveto
          endchar
        </CharString>
        <CharString name="multiply">
          9 87 -21 419 -20 hstem
          478 403 rmoveto
          -102 73 -113 -113 -121 122 -76 -99 110 -111 -125 -126 104 -70 108 109 123 -122 78 97 -113 113 rlineto
          endchar
        </CharString>
        <CharString name="n">
          6 callsubr
          hstem
          49 -59 callgsubr
          38 525 rmoveto
          11 -147 rlineto
          -378 153 397 vlineto
          17 16 23 12 -34 callgsubr
          378 vlineto
          105 -56 62 -101 -68 -47 -25 -40 -33 vhcurveto
          -5 hlineto
          -14 60 rlineto
          endchar
        </CharString>
        <CharString name="nacute">
          6 callsubr
          217 34 callgsubr
          38 525 rmoveto
          11 -147 rlineto
          -378 153 397 vlineto
          17 16 23 12 -34 callgsubr
          378 vlineto
          105 -56 62 -101 -68 -47 -25 -40 -33 vhcurveto
          -5 hlineto
          -14 60 rlineto
          232 222 25 callgsubr
        </CharString>
        <CharString name="napostrophe">
          34 -42 callgsubr
          214 -20 hstemhm
          -7 117 -24 24 -24 154 -6 callgsubr
          hintmask 11110010
          -20 -40 callgsubr
          -46 -48 vhcurveto
          61 -61 rlineto
          88 83 24 30 62 vvcurveto
          32 -6 31 -6 37 vhcurveto
          -22 -234 rmoveto
          hintmask 11101010
          10 -147 rlineto
          -378 vlineto
          hintmask 11100110
          154 397 hlineto
          17 16 23 12 -34 callgsubr
          378 vlineto
          105 -57 62 -100 -68 -47 -25 -40 -34 vhcurveto
          -4 hlineto
          -14 60 rlineto
          endchar
        </CharString>
        <CharString name="ncaron">
          6 callsubr
          -22 callgsubr
          -4 callsubr
          -6 callgsubr
          hintmask 11011100
          38 525 rmoveto
          11 -147 rlineto
          -378 153 397 vlineto
          17 16 23 12 -34 callgsubr
          378 vlineto
          105 -56 62 -101 -68 -47 -25 -40 -33 vhcurveto
          -5 hlineto
          -14 60 rlineto
          278 155 rmoveto
          -73 callsubr
          rlineto
          hintmask 10111100
          132 -27 callsubr
        </CharString>
        <CharString name="ncommaaccent">
          -3 -13 callgsubr
          426 119 hstemhm
          -4 callsubr
          17 108 0 154 hintmask 11111000
          38 525 rmoveto
          11 -147 rlineto
          -378 153 397 vlineto
          17 16 23 12 -18 callsubr
          vlineto
          hintmask 11110100
          154 378 hlineto
          105 -56 62 -101 -68 -47 -25 -40 -33 vhcurveto
          -5 hlineto
          -14 60 rlineto
          52 -580 rmoveto
          hintmask 11111000
          -85 callsubr
        </CharString>
        <CharString name="nine">
          20 -151 116 130 19 callsubr
          hstem
          25 162 169 162 vstem
          274 8 callsubr
          36 callgsubr
          135 52 47 19 22 24 hvcurveto
          -101 -8 -46 -70 -78 hhcurveto
          -47 -48 11 14 -38 hvcurveto
          -43 -98 rlineto
          -21 48 62 -22 75 hhcurveto
          177 108 138 232 212 -74 109 -170 hvcurveto
          -8 -116 rmoveto
          72 17 -73 -88 hvcurveto
          -20 vlineto
          -19 -20 -29 -13 -34 hhcurveto
          -59 -26 45 60 66 20 42 59 hvcurveto
          endchar
        </CharString>
        <CharString name="nine.capfit">
          42 -12 116 130 19 callsubr
          hstem
          35 163 168 162 vstem
          59 31 rmoveto
          -21 47 62 -22 75 hhcurveto
          178 107 138 233 211 -74 109 -170 36 callgsubr
          136 51 47 19 22 24 hvcurveto
          -101 -7 -47 -70 -77 hhcurveto
          -48 -48 12 14 -38 hvcurveto
          175 433 rmoveto
          72 17 -73 -88 hvcurveto
          -20 vlineto
          -18 -20 -29 -14 -34 hhcurveto
          -58 -26 45 60 66 20 42 58 hvcurveto
          endchar
        </CharString>
        <CharString name="ninesuperior">
          -136 298 79 69 78 119 79 hstem
          38 113 89 114 vstem
          49 325 rmoveto
          -17 34 50 -10 43 hhcurveto
          101 77 85 145 128 -50 66 -106 -102 -58 -58 -90 -75 49 -53 85 24 31 8 11 16 hvcurveto
          -54 -6 -28 -34 -42 hhcurveto
          -29 -32 6 11 -26 hvcurveto
          113 249 rmoveto
          36 11 -34 -55 hvcurveto
          -18 vlineto
          -7 -11 -15 -5 -18 hhcurveto
          -32 -13 23 35 37 11 24 31 hvcurveto
          endchar
        </CharString>
        <CharString name="notequal">
          27 -66 -21 212 118 94 117 218 -20 hstem
          394 654 rmoveto
          -99 18 -38 -218 rlineto
          -188 hlineto
          -16 -117 rlineto
          183 hlineto
          -17 -94 rlineto
          -157 hlineto
          -16 -118 rlineto
          153 hlineto
          -34 -194 99 -18 37 212 rlineto
          193 hlineto
          16 118 rlineto
          -188 hlineto
          17 94 rlineto
          161 hlineto
          17 117 rlineto
          -158 hlineto
          endchar
        </CharString>
        <CharString name="ntilde">
          6 callsubr
          41 -23 callsubr
          -4 callsubr
          -6 callgsubr
          hintmask 11001110
          38 525 rmoveto
          11 -147 rlineto
          -378 153 397 vlineto
          17 16 23 12 -34 callgsubr
          378 vlineto
          105 -56 62 -101 -68 -47 -25 -40 -33 vhcurveto
          -5 hlineto
          -14 60 rlineto
          253 180 -68 callgsubr
          28 23 10 27 hhcurveto
          hintmask 11100110
          41 30 -60 callgsubr
        </CharString>
        <CharString name="numbersign">
          85 82 -21 137 100 85 102 145 -20 hstem
          493 630 rmoveto
          -105 -14 -20 -131 rlineto
          -84 hlineto
          22 145 -104 -14 -20 -131 rlineto
          -99 hlineto
          -15 -102 rlineto
          99 hlineto
          -13 -85 rlineto
          -101 hlineto
          -15 -100 rlineto
          101 hlineto
          -20 -137 104 14 18 123 rlineto
          84 hlineto
          -20 -137 105 14 17 123 rlineto
          101 hlineto
          15 100 rlineto
          -100 hlineto
          12 85 rlineto
          104 hlineto
          15 102 rlineto
          -103 hlineto
          -202 -102 rmoveto
          84 hlineto
          -13 -85 rlineto
          -84 hlineto
          endchar
        </CharString>
        <CharString name="o">
          -2 -79 callgsubr
          -69 callsubr
          278 -33 callgsubr
          -101 callgsubr
        </CharString>
        <CharString name="oacute">
          -2 -79 callgsubr
          223 -20 -69 callsubr
          386 23 callsubr
          -191 -677 -97 callsubr
        </CharString>
        <CharString name="obreve">
          -2 -79 callgsubr
          43 93 44 -20 -69 callsubr
          375 725 -92 callsubr
          -174 -684 -97 callsubr
        </CharString>
        <CharString name="ocaron">
          -2 -79 callgsubr
          -22 callgsubr
          -30 callgsubr
          144 163 hintmask 10111100
          431 695 rmoveto
          -73 callsubr
          132 -122 rlineto
          69 hlineto
          -49 -585 rmoveto
          186 62 138 136 135 -31 148 -190 -91 callgsubr
          hvcurveto
          15 119 rmoveto
          -65 -9 53 101 hvcurveto
          hintmask 11011100
          21 callgsubr
          -80 callsubr
          vhcurveto
          endchar
        </CharString>
        <CharString name="ocircumflex">
          -2 -79 callgsubr
          207 -20 -69 callsubr
          300 752 rmoveto
          -69 hlineto
          -132 -129 -13 callsubr
          85 111 -85 12 callsubr
          -153 -78 rmoveto
          -101 callgsubr
        </CharString>
        <CharString name="odieresis">
          -2 -79 callgsubr
          34 157 hstemhm
          -30 callgsubr
          -111 20 callsubr
          -112 163 hintmask 11101100
          165 736 rmoveto
          -64 -20 -36 -71 callgsubr
          38 37 -10 46 -64 11 callgsubr
          -63 -20 -36 -71 callgsubr
          38 7 callgsubr
          -95 -191 rmoveto
          hintmask 11110010
          -101 callgsubr
        </CharString>
        <CharString name="oe">
          265 3 callgsubr
          118 99 102 119 hstem
          -30 callgsubr
          144 156 -17 callgsubr
          272 -33 callgsubr
          -172 -71 -131 -143 -135 32 -148 190 72 51 27 41 35 hvcurveto
          -43 32 49 -25 72 hhcurveto
          81 66 18 callgsubr
          -43 -44 -74 callgsubr
          206 hlineto
          71 10 rlineto
          187 -19 123 -179 -67 -51 -23 -41 -33 vhcurveto
          40 -29 -46 24 -73 hhcurveto
          -10 -119 rmoveto
          65 9 -54 -100 -120 -5 -45 -65 -53 callsubr
          64 hvcurveto
          298 hmoveto
          51 4 -33 -69 hvcurveto
          -122 hlineto
          63 4 14 39 49 hhcurveto
          endchar
        </CharString>
        <CharString name="ogonek">
          -323 -196 72 148 -20 hstem
          14 87 vstem
          189 11 rmoveto
          -66 13 -18 -13 -37 -27 -15 -15 rlinecurve
          -72 callsubr
          18 23 26 18 18 hvcurveto
          15 16 22 19 10 10 rrcurveto
          endchar
        </CharString>
        <CharString name="ogonek.case">
          -325 -196 72 -72 196 hstemhm
          14 87 hintmask 01100000
          182 hmoveto
          -93 hlineto
          -9 -7 -13 -10 -14 -14 rrcurveto
          -19 -17 -20 -23 -37 vvcurveto
          -56 42 -32 49 33 -62 callgsubr
          hintmask 10100000
          -3 -11 -14 -3 -13 hhcurveto
          -14 -13 9 19 18 24 26 18 18 hvcurveto
          hintmask 01100000
          11 11 15 13 13 10 rrcurveto
          endchar
        </CharString>
        <CharString name="ograve">
          -2 -79 callgsubr
          223 -20 -69 callsubr
          360 646 rmoveto
          -215 122 -56 -103 224 -97 rlineto
          -35 -23 rmoveto
          -101 callgsubr
        </CharString>
        <CharString name="ohorn">
          34 -79 callgsubr
          98 -20 -69 callsubr
          590 643 rmoveto
          -117 -11 rlineto
          1 -17 2 -10 -23 vvcurveto
          -2 -46 -8 -21 -41 -20 rrcurveto
          31 -32 -47 19 -68 hhcurveto
          -91 callgsubr
          186 62 138 136 57 -6 61 -22 51 hvcurveto
          86 33 20 40 8 61 rrcurveto
          4 28 1 33 17 vvcurveto
          -324 -536 rmoveto
          -51 callsubr
          -80 callsubr
          hvcurveto
          endchar
        </CharString>
        <CharString name="ohungarumlaut">
          -2 -79 callgsubr
          245 -20 -69 callsubr
          258 790 rmoveto
          -160 -172 67 -57 174 148 rlineto
          120 81 rmoveto
          -161 -170 65 -60 177 147 rlineto
          -289 -719 -97 callsubr
        </CharString>
        <CharString name="omacron">
          -2 -79 callgsubr
          63 100 -69 callsubr
          127 -19 callgsubr
          -100 276 100 vlineto
          -152 -720 -97 callsubr
        </CharString>
        <CharString name="one">
          -88 21 -21 538 -20 hstem
          167 -61 callgsubr
          212 538 rmoveto
          -47 -41 -131 -93 48 -91 62 31 46 38 4 -2 -27 -87 rlineto
          -185 vlineto
          -110 -10 rlineto
          -98 362 98 vlineto
          -98 9 rlineto
          271 vlineto
          8 147 rlineto
          endchar
        </CharString>
        <CharString name="one.capfit">
          -123 21 -21 676 -20 hstem
          180 153 vstem
          206 676 rmoveto
          -62 -56 -141 -91 58 -98 81 38 38 28 rlineto
          -497 153 663 vlineto
          endchar
        </CharString>
        <CharString name="onehalf">
          387 0 81 -65 -21 341 82 339 -20 hstemhm
          130 112 516 118 hintmask 10111100
          726 418 rmoveto
          -71 26 callgsubr
          36 hhcurveto
          37 24 -19 -35 -37 -33 -34 -66 -57 hvcurveto
          -80 -69 rlineto
          -85 285 vlineto
          21 81 rlineto
          -140 hlineto
          -53 13 callgsubr
          -99 vhcurveto
          -69 300 33 callgsubr
          rlineto
          hintmask 01111100
          85 -39 rlineto
          -94 717 rmoveto
          -90 10 -35 -30 -98 -64 36 -70 callgsubr
          endchar
        </CharString>
        <CharString name="onequarter">
          361 12 -21 86 73 607 -20 hstem
          130 112 453 95 vstem
          735 369 rmoveto
          -68 46 -151 15 callsubr
          16 73 rlineto
          -69 29 callgsubr
          44 568 33 callgsubr
          85 -39 rlineto
          -94 717 rmoveto
          -90 10 -35 -30 -98 -64 36 -70 callgsubr
          endchar
        </CharString>
        <CharString name="onesuperior">
          -167 325 -21 418 -20 hstem
          140 112 vstem
          169 722 rmoveto
          -35 -30 -97 -64 35 -70 callgsubr
          8 109 rlineto
          endchar
        </CharString>
        <CharString name="ordfeminine">
          -162 319 -21 340 82 hstem
          33 107 95 113 vstem
          209 12 callgsubr
          -59 -67 -20 -16 -33 hvcurveto
          29 -67 rlineto
          8 27 38 13 35 hhcurveto
          46 10 -21 -33 hvcurveto
          -34 vlineto
          -71 -12 rlineto
          -76 -13 -55 -30 -87 vvcurveto
          -78 42 -32 64 53 31 24 32 33 vhcurveto
          2 hlineto
          10 -20 19 -22 26 -14 65 58 rcurveline
          -30 33 0 23 41 vvcurveto
          134 vlineto
          68 -11 65 -128 vhcurveto
          -69 -300 rmoveto
          40 31 14 65 11 vhcurveto
          -87 vlineto
          -18 -16 -23 -8 -23 3 rrcurveto
          -18 2 -14 13 28 vvcurveto
          endchar
        </CharString>
        <CharString name="ordmasculine">
          -107 298 87 250 87 hstem
          34 119 119 118 vstem
          225 722 rmoveto
          -141 -50 -105 -106 -99 23 -114 146 141 46 104 106 99 -21 115 -144 hvcurveto
          -13 -87 rmoveto
          50 10 -44 -78 -91 -6 -37 -51 -52 -10 43 79 91 6 37 53 hvcurveto
          endchar
        </CharString>
        <CharString name="oslash">
          4 -66 -21 75 118 321 118 72 -20 hstem
          32 157 156 157 vstem
          165 -87 rmoveto
          30 81 rlineto
          -3 18 19 -11 callgsubr
          -29 -78 rlineto
          4 -18 -20 2 -21 hhcurveto
          -187 16 callgsubr
          rlineto
          79 328 rmoveto
          120 7 46 70 12 9 -1 -4 8 vhcurveto
          37 callgsubr
          80 -155 rmoveto
          -11 -9 1 3 -8 hvcurveto
          92 245 rlineto
          11 -21 1 -29 -33 vvcurveto
          -120 -6 -46 -70 vhcurveto
          endchar
        </CharString>
        <CharString name="oslashacute">
          -2 -66 -21 75 116 326 115 21 callsubr
          157 156 157 vstem
          278 -33 callgsubr
          -186 16 callgsubr
          54 -20 31 81 rlineto
          -3 17 20 -11 callgsubr
          -30 -78 rlineto
          4 -18 -19 2 -22 hhcurveto
          70 223 rmoveto
          -216 -67 callgsubr
          -140 -235 rmoveto
          11 11 -4 -4 7 hvcurveto
          37 callgsubr
          122 7 47 70 vhcurveto
          3 -326 rmoveto
          -11 -11 3 3 -7 hvcurveto
          92 245 rlineto
          11 -21 2 -29 -33 vvcurveto
          -123 -6 -45 -70 vhcurveto
          endchar
        </CharString>
        <CharString name="otilde">
          -2 -79 callgsubr
          41 -23 callsubr
          -30 callgsubr
          144 163 hintmask 11001110
          412 720 -68 callgsubr
          27 24 10 27 hhcurveto
          hintmask 11100110
          -35 callgsubr
          hintmask 11001110
          -164 -101 rmoveto
          -101 callgsubr
        </CharString>
        <CharString name="p">
          1 27 callsubr
          49 153 136 164 vstem
          49 -197 rmoveto
          153 16 rlineto
          161 vlineto
          -16 27 4 3 rlineto
          -14 23 37 -8 39 hhcurveto
          90 123 67 225 213 -88 52 -100 -82 -41 -47 -23 -17 hvcurveto
          -4 hlineto
          -13 65 -119 -15 11 -147 rlineto
          153 18 rmoveto
          23 18 27 7 22 hhcurveto
          60 9 -59 -98 -130 -32 -32 -47 -22 -20 6 10 -15 hvcurveto
          endchar
        </CharString>
        <CharString name="paragraph">
          65 -140 -21 409 74 301 77 hstem
          29 169 81 98 41 95 vstem
          561 700 rmoveto
          -336 hlineto
          -170 -26 -126 -104 -108 51 -114 144 hvcurveto
          55 -197 hlineto
          -75 -2 -20 -71 -49 vhcurveto
          57 -68 128 82 rlineto
          65 46 57 57 93 vvcurveto
          506 48 vlineto
          -184 hmoveto
          41 -505 hlineto
          -31 -17 -27 -24 -20 vhcurveto
          -179 433 rmoveto
          79 8 73 57 vhcurveto
          16 -303 -16 hlineto
          -52 -13 60 91 hvcurveto
          endchar
        </CharString>
        <CharString name="parenleft">
          -190 -134 -21 934 -20 hstem
          39 140 vstem
          325 -139 rmoveto
          -109 158 -37 158 135 vvcurveto
          134 37 159 109 158 vhcurveto
          -122 16 rlineto
          -82 -94 -82 -166 -207 vvcurveto
          -207 82 -166 82 -94 vhcurveto
          122 16 rlineto
          endchar
        </CharString>
        <CharString name="parenright">
          -186 -135 -21 934 -20 hstem
          162 140 vstem
          137 -156 rmoveto
          83 94 82 170 207 vvcurveto
          207 -82 162 -83 94 vhcurveto
          -122 -16 rlineto
          109 -158 38 -155 -134 vvcurveto
          -134 -38 -162 -108 -158 vhcurveto
          endchar
        </CharString>
        <CharString name="percent">
          257 -11 101 166 101 8 100 166 101 hstem
          25 115 115 115 43 115 115 115 vstem
          201 732 rmoveto
          -101 -75 -72 -120 -53 27 -122 143 100 75 72 119 54 -26 122 -143 hvcurveto
          -2 -101 rmoveto
          37 19 -34 -44 -49 -17 -39 -41 -38 -19 34 45 48 18 39 41 hvcurveto
          389 -274 rmoveto
          -100 -75 -72 -121 -52 26 -123 144 100 75 72 120 53 -27 123 -143 hvcurveto
          -1 -101 rmoveto
          37 19 -35 -44 -49 -17 -38 -41 -38 -19 34 44 49 17 39 42 hvcurveto
          37 373 rmoveto
          -81 59 -396 -612 82 -55 rlineto
          endchar
        </CharString>
        <CharString name="period">
          -257 -12 179 hstem
          47 179 vstem
          132 -12 rmoveto
          -62 callsubr
          -69 -25 -43 -43 -41 11 -52 74 hvcurveto
          endchar
        </CharString>
        <CharString name="periodcentered">
          -303 224 162 hstem
          32 161 vstem
          117 386 rmoveto
          -63 -22 -39 -34 callsubr
          -47 66 63 22 39 38 37 -10 48 -66 hvcurveto
          endchar
        </CharString>
        <CharString name="peseta">
          168 61 98 100 98 39 93 37 94 hstem
          327 143 3 130 vstem
          105 620 rmoveto
          -77 -553 rlineto
          133 hlineto
          26 192 rlineto
          28 hlineto
          136 70 68 69 30 hvcurveto
          54 hlineto
          -16 -120 -16 -74 -33 vvcurveto
          -65 31 -43 73 47 54 15 15 27 vhcurveto
          -13 75 rlineto
          -3 -13 -23 -4 -16 hhcurveto
          -24 -13 8 30 21 11 51 18 127 hvcurveto
          90 hlineto
          29 93 rlineto
          -105 hlineto
          15 110 -124 -36 -17 -76 -50 -6 rlineto
          2 0 2 3 vvcurveto
          71 -50 61 -104 vhcurveto
          -91 -94 rmoveto
          44 hlineto
          43 15 -20 -33 -80 -37 -36 -52 hvcurveto
          -37 hlineto
          endchar
        </CharString>
        <CharString name="plus">
          16 63 -21 172 124 171 -20 hstem
          213 124 vstem
          40 214 rmoveto
          173 -172 hlineto
          124 19 rlineto
          153 152 vlineto
          20 124 rlineto
          -172 171 hlineto
          -124 -18 rlineto
          -153 -153 vlineto
          endchar
        </CharString>
        <CharString name="plusminus">
          33 -23 111 219 111 178 -20 hstem
          226 111 vstem
          337 596 rmoveto
          -111 -19 rlineto
          -159 -159 vlineto
          -21 -111 rlineto
          180 -178 hlineto
          111 18 rlineto
          160 158 vlineto
          21 111 rlineto
          -179 hlineto
          179 -330 rmoveto
          -448 hlineto
          -21 -111 rlineto
          449 hlineto
          endchar
        </CharString>
        <CharString name="q">
          -2 27 callsubr
          -30 callgsubr
          137 153 vstem
          329 135 rmoveto
          -16 -14 -18 -12 -33 hhcurveto
          -45 -27 35 120 104 19 60 55 28 20 -6 -8 15 hvcurveto
          153 91 rmoveto
          22 -46 -77 20 -87 hhcurveto
          -114 -129 -62 -225 -228 115 -42 77 57 38 16 19 23 hvcurveto
          4 -3 -14 -37 rlineto
          -180 vlineto
          153 17 rlineto
          endchar
        </CharString>
        <CharString name="question">
          -73 -12 179 437 116 hstemhm
          100 160 -160 179 -18 165 hintmask 11101000
          228 12 callgsubr
          -84 -73 -26 -32 -50 hvcurveto
          38 -88 rlineto
          16 51 34 14 36 hhcurveto
          50 31 -19 -46 -48 -34 -26 -46 -37 hvcurveto
          -45 -38 -26 -28 -37 vvcurveto
          -15 0 -17 1 -10 vhcurveto
          7 -81 141 16 3 65 1 40 2 19 46 32 rlinecurve
          77 53 38 37 91 vvcurveto
          95 -72 70 -126 vhcurveto
          -34 -553 rmoveto
          -69 -25 -43 -43 -41 11 -52 74 hvcurveto
          hintmask 11010000
          -62 callsubr
          hvcurveto
          endchar
        </CharString>
        <CharString name="questiondown">
          -78 -186 115 437 179 hstemhm
          25 165 -17 179 -160 147 hintmask 11101000
          336 331 rmoveto
          -142 -15 -3 -66 -2 -39 -2 -20 -46 -31 rlinecurve
          -77 -53 -39 -36 -92 vvcurveto
          -94 70 -71 128 83 74 25 31 49 vhcurveto
          -37 88 rlineto
          -15 -51 -34 -14 -36 hhcurveto
          -50 -31 20 44 49 34 26 48 37 hvcurveto
          45 38 26 28 37 vvcurveto
          15 0 17 -1 10 vhcurveto
          -75 295 rmoveto
          hintmask 11010000
          -69 -25 -42 -43 -41 11 -53 74 69 25 44 42 41 -11 52 -74 hvcurveto
          endchar
        </CharString>
        <CharString name="quotedbl">
          -140 508 -21 272 -20 hstem
          49 118 50 118 vstem
          49 759 rmoveto
          -114 vlineto
          13 -16 callsubr
          44 hmoveto
          -114 vlineto
          13 -16 callsubr
          endchar
        </CharString>
        <CharString name="quotedblbase">
          -131 -113 -21 307 -20 hstem
          78 112 57 -44 callgsubr
          68 -45 rmoveto
          15 -46 10 -36 17 callsubr
          55 40 vvcurveto
          47 -15 48 -14 40 vhcurveto
          endchar
        </CharString>
        <CharString name="quotedblleft">
          -136 485 -21 307 -20 hstem
          37 112 57 112 vstem
          358 715 rmoveto
          -75 55 rlineto
          -55 -76 -22 -46 -45 vvcurveto
          -48 17 -37 20 -50 vhcurveto
          107 47 rlineto
          -20 57 -12 29 17 vvcurveto
          21 9 24 31 52 vhcurveto
          -164 1 rmoveto
          -77 55 rlineto
          -58 -77 -22 -55 -40 vvcurveto
          -47 15 -49 14 -39 vhcurveto
          109 49 rlineto
          -16 46 -10 36 22 vvcurveto
          21 16 30 29 48 vhcurveto
          endchar
        </CharString>
        <CharString name="quotedblright">
          -136 485 -21 307 -20 hstem
          76 112 57 112 vstem
          152 768 rmoveto
          -108 -47 rlineto
          -30 callsubr
          176 3 rmoveto
          -108 -48 rlineto
          16 -46 9 -37 17 callsubr
          56 39 vvcurveto
          48 -15 48 -14 39 vhcurveto
          endchar
        </CharString>
        <CharString name="quoteleft">
          -309 485 -21 303 -20 hstem
          33 112 vstem
          185 711 rmoveto
          -75 56 rlineto
          -55 -76 -22 -47 -44 vvcurveto
          -48 17 -37 20 -51 vhcurveto
          107 47 rlineto
          -20 57 -12 30 17 vvcurveto
          21 9 24 31 51 vhcurveto
          endchar
        </CharString>
        <CharString name="quoteright">
          -309 486 -21 303 -20 hstem
          76 112 vstem
          44 721 rmoveto
          -30 callsubr
          endchar
        </CharString>
        <CharString name="quotesinglbase">
          -304 -112 -21 302 -20 hstem
          78 -44 callgsubr
          endchar
        </CharString>
        <CharString name="quotesingle">
          -312 508 -21 272 -20 hstem
          47 119 vstem
          47 759 rmoveto
          -114 vlineto
          14 -16 callsubr
          endchar
        </CharString>
        <CharString name="r">
          19 callgsubr
          10 callsubr
          vstem
          49 377 rmoveto
          -89 callgsubr
          -18 110 -116 -15 rlineto
          endchar
        </CharString>
        <CharString name="racute">
          19 callgsubr
          223 -14 callsubr
          49 377 rmoveto
          -89 callgsubr
          -18 110 -116 -15 rlineto
          258 243 rmoveto
          -216 -67 callgsubr
          endchar
        </CharString>
        <CharString name="radical">
          95 -123 -21 361 109 514 -20 hstem
          490 840 rmoveto
          -147 -670 -7 -129 rlineto
          -8 hlineto
          -22 127 -47 158 rlineto
          -194 hlineto
          -17 -109 rlineto
          121 hlineto
          117 -361 105 17 212 943 rlineto
          endchar
        </CharString>
        <CharString name="rcaron">
          19 callgsubr
          -22 callgsubr
          -4 callsubr
          hintmask 11011000
          49 377 rmoveto
          -89 callgsubr
          -18 110 -116 -15 rlineto
          319 170 rmoveto
          -73 callsubr
          rlineto
          hintmask 10111000
          131 -27 callsubr
        </CharString>
        <CharString name="rcommaaccent">
          -149 -13 callgsubr
          414 131 hstemhm
          -4 callsubr
          -121 108 hintmask 11101000
          71 -72 callgsubr
          -27 569 rmoveto
          -116 -15 rlineto
          hintmask 11110000
          11 -148 rlineto
          -89 callgsubr
          endchar
        </CharString>
        <CharString name="registered">
          4 266 62 380 64 hstem
          28 63 81 67 48 72 83 64 vstem
          172 651 rmoveto
          -262 67 100 9 vlineto
          56 -100 rlineto
          76 hlineto
          -68 112 rlineto
          27 13 20 19 41 vvcurveto
          40 -20 37 -60 vhcurveto
          -40 -53 rmoveto
          25 hlineto
          16 7 -11 -16 -19 -9 -13 -16 hvcurveto
          -23 hlineto
          34 233 rmoveto
          -148 -97 -107 -146 -148 76 -105 156 149 97 105 148 146 -76 107 -157 hvcurveto
          -64 vmoveto
          120 49 -80 -111 -111 -68 -78 -113 -115 -55 78 111 111 69 80 113 hvcurveto
          endchar
        </CharString>
        <CharString name="ring">
          566 65 73 65 hstem
          24 68 67 68 vstem
          128 769 rmoveto
          -71 -33 -52 -51 -51 29 -49 70 -12 callsubr
          -8 18 20 19 10 16 21 hvcurveto
          endchar
        </CharString>
        <CharString name="ring.case">
          741 65 73 65 hstem
          24 68 67 68 vstem
          123 741 rmoveto
          -23 callgsubr
          -71 -14 callgsubr
          hvcurveto
          4 65 rmoveto
          -27 -8 18 20 19 10 16 21 -8 callgsubr
          hvcurveto
          endchar
        </CharString>
        <CharString name="s">
          -73 -12 115 330 112 hstem
          29 147 98 158 vstem
          -84 callsubr
          endchar
        </CharString>
        <CharString name="sacute">
          -73 -12 115 329 113 21 callsubr
          147 98 158 vstem
          -96 callgsubr
          112 223 rmoveto
          -216 -67 callgsubr
          endchar
        </CharString>
        <CharString name="scaron">
          -73 -12 115 330 112 -22 callgsubr
          29 147 98 158 hintmask 11011100
          -84 callsubr
          366 316 rmoveto
          -5 callgsubr
          -86 -111 86 -55 -57 rlineto
          hintmask 10111100
          132 -122 rlineto
          67 hlineto
          endchar
        </CharString>
        <CharString name="scedilla">
          -73 -196 64 564 113 hstemhm
          29 147 64 84 -50 158 hintmask 11101000
          237 -33 callgsubr
          8 callgsubr
          7 callsubr
          hvcurveto
          69 -30 36 -11 -32 vvcurveto
          -28 -26 -12 -28 -47 -58 25 18 -42 vhcurveto
          -55 -99 40 -24 52 -25 75 -7 rlinecurve
          -19 -71 14 -2 14 -4 17 -4 rlinecurve
          hintmask 11110000
          19 -4 10 -5 -13 vvcurveto
          -13 -8 -7 -18 -21 -25 7 4 -15 vhcurveto
          -20 -53 rlineto
          -12 24 39 -10 33 hhcurveto
          51 44 27 60 35 -19 16 -20 8 hvcurveto
          -11 4 -11 2 -13 4 3 29 rcurveline
          hintmask 11101000
          114 10 65 73 80 vvcurveto
          81 -63 36 -66 28 vhcurveto
          -64 28 -63 18 42 -28 callgsubr
          -19 -75 callsubr
          endchar
        </CharString>
        <CharString name="scircumflex">
          -73 -12 115 329 113 207 -20 hstem
          29 147 98 158 vstem
          -96 callgsubr
          26 207 -78 callgsubr
          endchar
        </CharString>
        <CharString name="scommaaccent">
          -73 -223 -21 232 115 329 113 hstemhm
          29 147 9 107 -18 158 hintmask 11110100
          -96 callgsubr
          -63 -585 rmoveto
          hintmask 11111000
          -85 callgsubr
        </CharString>
        <CharString name="section">
          -11 -148 117 680 117 hstemhm
          28 147 -128 151 110 151 -117 144 hintmask 11011000
          471 703 rmoveto
          32 -46 -65 31 -96 hhcurveto
          -139 -78 -78 -105 -65 36 -41 45 -31 hvcurveto
          hintmask 11101000
          -48 -27 -52 -50 -72 vvcurveto
          -97 82 -48 76 -34 vhcurveto
          63 -27 59 -21 -46 vvcurveto
          -39 -29 -16 -44 -58 -90 38 12 -23 vhcurveto
          -48 -106 rlineto
          -23 42 76 -38 106 hhcurveto
          131 88 74 109 64 -31 38 -40 27 hvcurveto
          hintmask 11010100
          64 32 34 48 76 vvcurveto
          100 -74 35 -89 39 vhcurveto
          -87 39 -38 9 53 vvcurveto
          38 32 16 40 46 53 -16 -28 60 vhcurveto
          -199 -212 rmoveto
          77 -34 35 -20 -46 vvcurveto
          -31 -21 -30 -36 -16 vhcurveto
          hintmask 11101000
          -61 25 -49 24 52 vvcurveto
          29 16 27 39 20 vhcurveto
          endchar
        </CharString>
        <CharString name="semicolon">
          -267 -150 -21 500 179 hstemhm
          42 179 -151 151 hintmask 11100000
          136 508 rmoveto
          -69 -25 -43 -42 -41 11 -53 74 -62 callsubr
          hvcurveto
          72 -361 rmoveto
          -142 -19 rlineto
          hintmask 11010000
          2 -24 2 -40 -27 vvcurveto
          -52 -13 -28 -68 -61 vhcurveto
          64 -67 rlineto
          150 85 8 84 55 vvcurveto
          36 -2 34 -1 24 vhcurveto
          endchar
        </CharString>
        <CharString name="seven">
          -44 -132 -21 559 127 hstem
          465 533 rmoveto
          -434 hlineto
          -14 -127 rlineto
          295 hlineto
          -240 -490 143 -69 28 71 63 153 50 115 rlinecurve
          38 87 43 91 28 56 rrcurveto
          endchar
        </CharString>
        <CharString name="seven.capfit">
          -59 3 -21 558 127 hstem
          209 -18 rmoveto
          28 70 62 154 51 114 39 87 43 92 29 56 rrcurveto
          112 -437 vlineto
          -14 -127 rlineto
          298 hlineto
          -68 -131 -112 -233 -63 -126 rrcurveto
          endchar
        </CharString>
        <CharString name="sevensuperior">
          -182 311 -21 337 89 hstem
          166 290 rmoveto
          30 73 25 61 24 56 25 58 30 61 21 42 rrcurveto
          75 -286 vlineto
          -10 -89 rlineto
          182 hlineto
          -148 -297 rlineto
          endchar
        </CharString>
        <CharString name="six">
          33 -12 19 callsubr
          130 116 hstem
          34 165 166 164 vstem
          504 636 rmoveto
          21 -47 -76 22 -69 hhcurveto
          -176 -102 -133 -236 -214 81 -108 176 152 86 35 callsubr
          -45 -19 -17 -24 hvcurveto
          98 8 42 68 80 hhcurveto
          45 50 -11 -14 37 hvcurveto
          -262 -255 rmoveto
          22 22 26 12 44 hhcurveto
          51 23 -39 -63 -63 -22 -48 -58 -61 -25 63 91 hvcurveto
          endchar
        </CharString>
        <CharString name="six.capfit">
          43 -12 19 callsubr
          130 116 hstem
          44 164 166 164 vstem
          513 636 rmoveto
          21 -47 -76 22 -68 hhcurveto
          -177 -101 -133 -236 -214 81 -108 175 153 85 35 callsubr
          -44 -19 -17 -25 hvcurveto
          98 8 42 68 80 hhcurveto
          46 49 -11 -14 38 hvcurveto
          -176 -434 rmoveto
          -62 -25 63 91 hvcurveto
          25 vlineto
          22 23 26 12 43 hhcurveto
          51 23 -39 -63 -63 -21 -48 -58 hvcurveto
          endchar
        </CharString>
        <CharString name="sixsuperior">
          -135 298 79 119 77 69 80 hstem
          40 115 89 113 vstem
          344 695 rmoveto
          13 -33 -49 14 -44 hhcurveto
          -112 -66 -82 -145 -132 53 -65 106 103 55 60 84 70 -41 61 -95 -23 -29 -10 -9 -14 hvcurveto
          53 6 21 35 44 hhcurveto
          27 33 -7 -10 27 hvcurveto
          -112 -248 rmoveto
          -33 -13 34 53 hvcurveto
          15 vlineto
          10 11 15 7 20 hhcurveto
          30 13 -24 -35 -34 -12 -26 -31 hvcurveto
          endchar
        </CharString>
        <CharString name="slash">
          -189 -94 -21 878 -20 hstem
          214 763 rmoveto
          -208 -878 rlineto
          41 41 0 41 hhcurveto
          207 878 rlineto
          endchar
        </CharString>
        <CharString name="space">
          -325 endchar
        </CharString>
        <CharString name="sterling">
          -4 61 110 -73 73 133 99 112 110 hstemhm
          hintmask 01110000
          511 583 rmoveto
          25 -53 -35 17 -80 hhcurveto
          -90 -98 -35 -144 -12 hvcurveto
          -4 -46 -67 -10 -26 -86 rlineto
          85 hlineto
          -1 -30 -4 -47 -10 -24 -33 -22 rlinecurve
          -26 -9 -24 -14 -15 -11 45 -81 rcurveline
          20 27 22 12 30 hhcurveto
          hintmask 10110000
          62 -21 callsubr
          23 28 12 38 1 47 rrcurveto
          133 hlineto
          43 99 rlineto
          -165 hlineto
          1 19 2 16 1 10 rrcurveto
          44 5 27 23 44 hhcurveto
          33 36 -7 -13 36 hvcurveto
          endchar
        </CharString>
        <CharString name="t">
          -154 -12 9 callsubr
          hstem
          74 153 vstem
          227 678 rmoveto
          -25 callsubr
          77 -222 hlineto
          -81 callsubr
          hlineto
          endchar
        </CharString>
        <CharString name="tbar">
          -142 -12 118 127 88 105 111 141 -20 hstem
          84 -61 callgsubr
          238 678 rmoveto
          -145 -43 -6 -100 -65 -9 -15 -100 rlineto
          77 -105 -62 -88 62 -29 hlineto
          -138 19 -78 141 48 67 20 19 25 vhcurveto
          -28 89 rlineto
          -3 -13 -23 -7 -21 hhcurveto
          -44 -17 21 70 hvcurveto
          36 113 88 -113 105 116 vlineto
          18 111 rlineto
          -134 hlineto
          endchar
        </CharString>
        <CharString name="tcaron">
          -103 -12 118 320 111 264 -20 hstem
          74 153 97 116 vstem
          310 776 rmoveto
          8 -49 6 -12 -19 vvcurveto
          -19 -10 -16 -44 -38 vhcurveto
          62 -61 rlineto
          88 78 20 25 54 vvcurveto
          33 -8 20 -4 29 vhcurveto
          -354 -375 rmoveto
          -222 vlineto
          -81 callsubr
          141 hlineto
          -25 callsubr
          endchar
        </CharString>
        <CharString name="tcedilla">
          -154 -196 64 120 9 callsubr
          hstemhm
          74 153 -23 84 hintmask 11111000
          74 426 rmoveto
          -222 vlineto
          -105 10 -70 67 -28 vhcurveto
          -21 -81 14 -2 15 -4 16 -4 rlinecurve
          hintmask 11110100
          -60 callsubr
          29 rcurveline
          -1 5 5 0 6 hhcurveto
          47 67 20 19 25 hvcurveto
          -27 89 rlineto
          -3 -13 -23 -7 -21 hhcurveto
          hintmask 11111000
          -44 -18 21 70 hvcurveto
          229 117 vlineto
          18 111 rlineto
          -135 141 hlineto
          -25 callsubr
          endchar
        </CharString>
        <CharString name="tcommaaccent">
          -154 -223 -21 232 9 callsubr
          hstemhm
          74 153 -79 108 hintmask 11111000
          74 426 rmoveto
          -222 vlineto
          -81 callsubr
          141 hlineto
          -25 callsubr
          141 -466 rmoveto
          hintmask 11110100
          -85 callsubr
        </CharString>
        <CharString name="thorn">
          10 -202 -21 211 119 320 118 224 -22 callsubr
          137 -5 callsubr
          202 400 rmoveto
          14 12 21 13 29 hhcurveto
          45 30 -25 -131 -151 -48 -13 -32 -24 -16 6 10 -17 hvcurveto
          646 vmoveto
          -153 -17 rlineto
          -975 vlineto
          153 16 rlineto
          187 vlineto
          -21 28 3 4 rlineto
          -14 20 36 -10 45 hhcurveto
          90 127 59 229 217 -100 52 -98 -65 -30 -20 -15 -17 hvcurveto
          -4 3 14 37 rlineto
          endchar
        </CharString>
        <CharString name="three">
          -28 -147 119 180 110 162 116 hstemhm
          303 163 vstemhm
          303 66 rmoveto
          -65 -36 -29 -58 -55 -54 17 23 -47 vhcurveto
          -43 -100 rlineto
          -28 45 79 -31 90 hhcurveto
          138 104 73 139 77 -43 59 -77 23 hvcurveto
          hintmask 11110000
          44 25 49 46 86 vvcurveto
          92 -66 67 -123 -71 -83 -22 -28 -56 vhcurveto
          40 -94 rlineto
          13 35 38 15 38 hhcurveto
          36 36 -11 -32 6 hvcurveto
          20 -76 -78 -44 -88 1 rrcurveto
          -110 68 vlineto
          71 41 -25 -61 hvcurveto
          endchar
        </CharString>
        <CharString name="three.capfit">
          -9 -12 120 181 111 163 117 hstemhm
          288 161 -136 165 hintmask 11110000
          261 680 rmoveto
          -72 -84 -22 -27 -56 hvcurveto
          41 -97 rlineto
          14 35 39 15 40 hhcurveto
          43 41 -15 -47 -57 -42 -44 -115 hvcurveto
          -111 70 vlineto
          hintmask 11101000
          71 41 -25 -61 -66 -36 -29 -59 -55 -54 17 23 -47 hvcurveto
          -44 -100 rlineto
          -29 46 79 -31 91 hhcurveto
          139 105 73 140 78 -43 59 -77 23 hvcurveto
          hintmask 11110000
          44 26 47 52 85 vvcurveto
          82 -65 74 -123 vhcurveto
          endchar
        </CharString>
        <CharString name="threequarters">
          351 12 -21 86 73 148 81 97 76 89 81 35 -20 hstemhm
          109 221 -114 114 -101 116 340 95 hintmask 1111110101000000
          657 718 33 callgsubr
          86 -39 rlineto
          -145 727 rmoveto
          -46 -49 -10 -23 -53 hvcurveto
          32 -62 rlineto
          10 38 25 4 27 hhcurveto
          27 16 -12 -25 hvcurveto
          hintmask 1111111001000000
          -26 -22 -26 -85 vhcurveto
          -76 60 vlineto
          hintmask 1111110011000000
          35 25 -15 -31 -38 -22 -13 -30 -38 -38 11 14 -33 hvcurveto
          -37 -66 rlineto
          -22 31 55 -18 61 hhcurveto
          95 72 45 91 54 -51 26 -22 14 hvcurveto
          hintmask 1111111001000000
          38 20 20 29 45 vvcurveto
          54 -42 46 -89 vhcurveto
          526 -353 rmoveto
          -67 46 -152 15 callsubr
          17 73 rlineto
          -70 29 callgsubr
          endchar
        </CharString>
        <CharString name="threesuperior">
          -142 298 81 97 76 89 81 hstemhm
          113 221 -115 115 -101 115 hintmask 11101000
          202 722 rmoveto
          -46 -49 -10 -23 -52 hvcurveto
          31 -62 rlineto
          10 38 26 4 27 hhcurveto
          27 15 -12 -25 hvcurveto
          hintmask 11110000
          -26 -21 -26 -85 vhcurveto
          -76 59 vlineto
          hintmask 11100100
          36 25 -15 -31 -38 -22 -13 -31 -37 -39 11 14 -33 hvcurveto
          -36 -66 rlineto
          -22 30 55 -18 61 hhcurveto
          95 72 45 91 54 -50 26 -23 14 hvcurveto
          hintmask 11110000
          39 20 20 29 45 vvcurveto
          54 -43 46 -89 vhcurveto
          endchar
        </CharString>
        <CharString name="tilde">
          -130 586 -23 callsubr
          hintmask 00100000
          349 12 callgsubr
          hintmask 01000000
          -18 -31 -25 -13 -25 hhcurveto
          hintmask 00100000
          -43 -25 31 -51 9 callgsubr
          hintmask 10000000
          41 30 -60 callgsubr
        </CharString>
        <CharString name="tilde.case">
          -142 768 2 callgsubr
          hintmask 01000000
          343 902 rmoveto
          -18 -31 -25 -13 -25 hhcurveto
          hintmask 00100000
          -43 -24 32 -52 -15 callsubr
          24 10 26 hhcurveto
          hintmask 10000000
          42 29 -60 callgsubr
        </CharString>
        <CharString name="trademark">
          103 384 -21 267 70 hstem
          98 83 98 72 167 74 vstem
          261 700 rmoveto
          -244 hlineto
          -5 -70 rlineto
          86 -267 83 267 74 hlineto
          331 70 rmoveto
          -101 hlineto
          -38 -154 -7 -45 rlineto
          -4 hlineto
          -8 45 -44 154 rlineto
          -99 hlineto
          -12 -337 rlineto
          77 hlineto
          3 139 -11 76 rlineto
          10 hlineto
          47 -179 71 5 35 136 8 38 rlineto
          10 hlineto
          -10 -131 3 -84 rlineto
          83 hlineto
          endchar
        </CharString>
        <CharString name="two">
          -38 0 112 314 114 hstem
          287 161 vstem
          245 8 callsubr
          -93 -69 -29 -23 -42 hvcurveto
          48 -94 rlineto
          10 29 50 22 45 hhcurveto
          40 34 -21 -45 -57 -62 -48 -190 -140 hvcurveto
          -115 401 vlineto
          30 112 rlineto
          -175 hlineto
          -71 -21 -4 4 33 20 32 20 50 38 rlinecurve
          53 42 64 56 95 vvcurveto
          99 -69 75 -134 vhcurveto
          endchar
        </CharString>
        <CharString name="two.capfit">
          28 0 121 438 120 hstem
          332 168 vstem
          266 679 rmoveto
          -86 -69 -24 -39 -70 hvcurveto
          46 -99 rlineto
          15 28 58 27 57 hhcurveto
          58 44 -26 -73 -63 -44 -57 -73 -61 hvcurveto
          -170 -141 rlineto
          -138 447 vlineto
          27 121 rlineto
          -215 hlineto
          -87 -22 -4 7 127 97 rlineto
          92 69 68 95 110 vvcurveto
          106 -68 96 -166 vhcurveto
          endchar
        </CharString>
        <CharString name="twosuperior">
          -132 304 81 255 82 hstem
          227 118 vstem
          196 722 rmoveto
          -72 26 callgsubr
          37 hhcurveto
          37 23 -19 -35 -37 -32 -35 -67 -56 hvcurveto
          -80 -69 rlineto
          -85 286 vlineto
          20 81 rlineto
          -139 hlineto
          -54 13 callgsubr
          -98 vhcurveto
          endchar
        </CharString>
        <CharString name="u">
          -20 callgsubr
          433 -20 hstem
          46 -59 callgsubr
          -107 callgsubr
          endchar
        </CharString>
        <CharString name="uacute">
          -20 callgsubr
          661 -20 hstem
          46 -59 callgsubr
          -107 callgsubr
          -92 614 rmoveto
          -216 -67 callgsubr
          endchar
        </CharString>
        <CharString name="ubreve">
          -20 callgsubr
          481 93 44 -20 hstem
          46 -59 callgsubr
          -107 callgsubr
          -106 571 rmoveto
          -21 -28 -39 -23 -42 hhcurveto
          -42 -40 22 22 -28 hvcurveto
          -51 -53 rlineto
          -44 34 -52 callsubr
          33 hvcurveto
          endchar
        </CharString>
        <CharString name="ucaron">
          -20 callgsubr
          645 -20 hstem
          46 -59 callgsubr
          -107 callgsubr
          -50 541 rmoveto
          -54 57 -112 -84 -111 84 -55 -57 132 -27 callsubr
        </CharString>
        <CharString name="ucircumflex">
          -20 callgsubr
          645 -20 hstem
          46 -59 callgsubr
          -107 callgsubr
          -181 598 -78 callgsubr
          endchar
        </CharString>
        <CharString name="udieresis">
          -20 callgsubr
          472 157 hstemhm
          46 153 -120 158 50 159 -122 154 hintmask 11100100
          -107 callgsubr
          -316 582 rmoveto
          hintmask 11011000
          -83 callsubr
        </CharString>
        <CharString name="ugrave">
          -20 callgsubr
          655 -20 hstem
          46 -59 callgsubr
          -107 callgsubr
          -125 486 rmoveto
          -216 122 -55 -104 224 -97 rlineto
          endchar
        </CharString>
        <CharString name="uhorn">
          92 3 callgsubr
          536 -20 hstemhm
          46 153 -6 callgsubr
          vstemhm
          -107 callgsubr
          260 vlineto
          129 37 28 40 9 74 rrcurveto
          4 28 1 33 17 vvcurveto
          -117 -11 rlineto
          hintmask 11110000
          1 -17 1 -10 -23 vvcurveto
          -49 -10 -20 -46 -22 vhcurveto
          endchar
        </CharString>
        <CharString name="uhungarumlaut">
          -20 callgsubr
          683 -20 hstem
          46 -59 callgsubr
          -107 callgsubr
          -222 636 -11 callsubr
          66 -60 176 147 rlineto
          endchar
        </CharString>
        <CharString name="umacron">
          -20 callgsubr
          501 100 hstem
          46 -59 callgsubr
          -107 callgsubr
          -353 554 rmoveto
          -100 275 100 vlineto
          endchar
        </CharString>
        <CharString name="underscore">
          -60 -188 123 hstem
          475 -188 rmoveto
          123 -480 -123 vlineto
          endchar
        </CharString>
        <CharString name="uni1EF5">
          -66 -189 162 -152 -21 740 -20 hstemhm
          290 162 hintmask 10110000
          367 -189 rmoveto
          62 23 39 38 37 -10 48 -67 -62 -23 -39 -34 callsubr
          -47 67 hvcurveto
          -56 729 rmoveto
          -82 -397 rlineto
          -7 hlineto
          -74 397 -151 -15 46 -155 54 -206 48 -156 rlinecurve
          -16 -70 -55 -29 -71 -13 rrcurveto
          hintmask 01110000
          54 -96 -37 callgsubr
          rlinecurve
          -76 callgsubr
          endchar
        </CharString>
        <CharString name="uni1EF6">
          0 21 -21 742 199 -61 61 hstemhm
          187 163 -42 75 hintmask 10101000
          293 941 rmoveto
          -26 -39 -9 -6 -18 hvcurveto
          9 -54 rlineto
          3 15 22 5 19 hhcurveto
          20 13 -6 -16 -19 -24 -7 -55 -5 hvcurveto
          5 -87 64 5 rlineto
          40 vlineto
          53 11 32 21 48 vvcurveto
          52 -40 24 -50 vhcurveto
          245 -249 rmoveto
          -143 21 -123 -318 rlineto
          -6 hlineto
          -118 318 -156 -20 rlineto
          hintmask 11010000
          60 -137 74 -173 61 -138 37 callsubr
        </CharString>
        <CharString name="uni1EF7">
          23 callgsubr
          901 61 hstem
          192 152 -75 75 vstem
          344 686 17 callgsubr
          4 16 22 4 19 hhcurveto
          19 13 -6 -16 -18 -24 -8 -55 -5 hvcurveto
          5 25 callsubr
          -33 -146 rmoveto
          -82 -397 rlineto
          -7 hlineto
          -74 397 -151 -15 48 -161 50 -195 50 -161 rlinecurve
          -16 -70 -55 -29 -71 -13 54 -96 rcurveline
          -37 callgsubr
          -76 callgsubr
          endchar
        </CharString>
        <CharString name="uni1eF4">
          0 -192 161 0 31 713 -20 hstemhm
          187 163 hintmask 10110000
          263 -192 rmoveto
          63 22 39 38 37 -10 47 -66 -63 -22 -38 -34 callsubr
          -47 66 hvcurveto
          275 884 rmoveto
          -143 21 -123 -318 rlineto
          -6 hlineto
          -118 318 -156 -20 57 -131 80 -185 58 -132 rlinecurve
          hintmask 01110000
          -245 163 245 vlineto
          endchar
        </CharString>
        <CharString name="uogonek">
          -3 -196 72 113 118 433 -20 hstemhm
          46 153 93 88 -56 154 hintmask 11110100
          478 8 callsubr
          -154 -14 rlineto
          -390 vlineto
          -16 -15 -19 -13 -31 hhcurveto
          -37 -23 19 46 hvcurveto
          368 vlineto
          -21 callgsubr
          -373 vlineto
          -95 49 -64 91 -5 vhcurveto
          15 -1 14 1 14 1 56 5 37 25 30 35 rrcurveto
          4 hlineto
          12 -55 rlineto
          hintmask 11111000
          -35 -26 -41 -27 -55 vvcurveto
          -56 43 -32 48 33 -54 callgsubr
          -14 -12 13 18 37 57 40 52 25 hvcurveto
          -1 10 -1 12 -1 10 rrcurveto
          hintmask 11110100
          -8 113 rlineto
          endchar
        </CharString>
        <CharString name="uring">
          -20 callgsubr
          459 65 73 65 hstemhm
          46 153 -38 68 68 67 -40 154 hintmask 11110010
          -107 callgsubr
          -218 412 rmoveto
          hintmask 11101100
          70 34 56 48 53 -28 46 -70 -72 -14 callgsubr
          hvcurveto
          5 65 rmoveto
          -28 -8 18 20 19 11 16 21 -8 callgsubr
          hvcurveto
          endchar
        </CharString>
        <CharString name="utilde">
          -20 callgsubr
          479 -23 callsubr
          46 153 -6 callgsubr
          hintmask 10011100
          -107 callgsubr
          -67 566 rmoveto
          hintmask 10101100
          -18 -31 -25 -13 -25 hhcurveto
          hintmask 10011100
          -43 -24 31 -52 9 callgsubr
          hintmask 11001100
          42 29 -60 callgsubr
        </CharString>
        <CharString name="v">
          -82 21 -21 541 -20 hstem
          306 541 rmoveto
          -77 -405 rlineto
          -6 hlineto
          -79 405 -148 -15 139 -526 rlineto
          179 hlineto
          132 525 rlineto
          endchar
        </CharString>
        <CharString name="w">
          193 21 -21 541 -20 hstem
          -102 callgsubr
          endchar
        </CharString>
        <CharString name="wacute">
          193 21 -21 768 -20 hstem
          -102 callgsubr
          -230 242 rmoveto
          -215 -67 callgsubr
          endchar
        </CharString>
        <CharString name="wcircumflex">
          193 21 -21 752 -20 hstem
          -102 callgsubr
          -312 226 rmoveto
          -69 hlineto
          -132 -129 -13 callsubr
          85 112 -85 54 57 rlineto
          endchar
        </CharString>
        <CharString name="wdieresis">
          193 21 -21 579 157 hstemhm
          179 158 -142 158 34 159 -143 159 hintmask 11101000
          -102 callgsubr
          -456 53 rmoveto
          62 21 36 38 37 -10 46 -65 -63 -20 -36 -39 -37 9 -45 66 11 callgsubr
          64 20 36 38 37 -10 46 -65 -63 -21 -36 -34 callsubr
          -45 65 hvcurveto
          -184 157 rmoveto
          hintmask 11010100
          -83 callsubr
        </CharString>
        <CharString name="wgrave">
          193 21 -21 762 -20 hstem
          -102 callgsubr
          -533 132 rmoveto
          224 -97 47 79 -216 122 rlineto
          endchar
        </CharString>
        <CharString name="x">
          -57 15 -21 547 -20 hstem
          324 541 rmoveto
          -82 -153 rlineto
          -7 hlineto
          -80 152 -149 -15 151 -243 -162 -273 142 -15 94 183 rlineto
          6 hlineto
          99 -183 147 15 -168 274 146 243 rlineto
          endchar
        </CharString>
        <CharString name="y">
          23 callgsubr
          740 -20 hstem
          -105 callsubr
          endchar
        </CharString>
        <CharString name="yacute">
          23 callgsubr
          968 -20 hstem
          -105 callsubr
          -97 243 rmoveto
          -216 -67 callgsubr
          endchar
        </CharString>
        <CharString name="ycircumflex">
          23 callgsubr
          952 -20 hstem
          -105 callsubr
          -184 227 rmoveto
          -69 hlineto
          -132 -122 55 -58 111 85 111 -85 55 58 rlineto
          endchar
        </CharString>
        <CharString name="ydieresis">
          23 callgsubr
          780 158 hstem
          47 158 50 158 vstem
          -105 callsubr
          -318 213 rmoveto
          -64 -19 -36 -39 -37 9 -46 66 62 21 37 38 37 -11 46 -64 1 callgsubr
          -36 -34 callsubr
          -46 65 64 19 37 38 37 -9 46 -66 hvcurveto
          endchar
        </CharString>
        <CharString name="yen">
          0 70 156 -88 88 45 92 261 -20 hstemhm
          hintmask 10110000
          371 623 rmoveto
          -104 -250 rlineto
          -10 hlineto
          -61 251 -139 -16 85 -245 rlineto
          -65 hlineto
          -36 -92 rlineto
          135 hlineto
          -7 -45 rlineto
          -105 hlineto
          hintmask 01110000
          -40 -88 rlineto
          133 hlineto
          hintmask 10110000
          -9 -68 rlineto
          145 hlineto
          hintmask 01110000
          9 68 rlineto
          105 hlineto
          36 88 rlineto
          -128 hlineto
          7 45 rlineto
          110 hlineto
          36 92 rlineto
          -94 hlineto
          136 245 rlineto
          endchar
        </CharString>
        <CharString name="ygrave">
          23 callgsubr
          968 -20 hstem
          -105 callsubr
          -404 140 rmoveto
          224 -97 47 78 -215 122 rlineto
          endchar
        </CharString>
        <CharString name="ytilde">
          23 callgsubr
          786 -23 callsubr
          hintmask 10010000
          -105 callsubr
          -84 195 rmoveto
          hintmask 10100000
          -18 -30 -25 -13 -26 hhcurveto
          hintmask 10010000
          -43 -24 -47 callgsubr
          27 24 10 27 hhcurveto
          hintmask 11000000
          -35 callgsubr
          endchar
        </CharString>
        <CharString name="z">
          -9 callgsubr
          hstem
          32 533 rmoveto
          -84 callgsubr
          101 vlineto
          endchar
        </CharString>
        <CharString name="zacute">
          -9 callgsubr
          229 -20 hstem
          32 533 rmoveto
          -84 callgsubr
          101 vlineto
          -88 229 25 callgsubr
        </CharString>
        <CharString name="zcaron">
          -9 callgsubr
          0 40 179 -20 hstemhm
          hintmask 11010000
          408 533 rmoveto
          -376 hlineto
          -84 callgsubr
          -19 263 rmoveto
          -73 callsubr
          rlineto
          hintmask 10110000
          131 -27 callsubr
        </CharString>
        <CharString name="zdotaccent">
          -9 callgsubr
          36 176 hstem
          32 533 rmoveto
          -84 callgsubr
          101 vlineto
          -196 36 rmoveto
          -66 callgsubr
          endchar
        </CharString>
        <CharString name="zero">
          61 -6 120 304 120 hstem
          30 161 211 159 vstem
          305 538 rmoveto
          -160 -115 -109 -173 -103 49 -159 206 163 113 111 171 102 -47 160 -209 hvcurveto
          -12 -120 rmoveto
          76 33 -56 -90 -87 -22 -71 -82 -73 -34 55 91 87 24 71 78 hvcurveto
          endchar
        </CharString>
        <CharString name="zero.capfit">
          98 -12 135 423 134 hstem
          45 148 243 148 vstem
          315 680 rmoveto
          -163 -107 -112 -244 -145 56 -191 213 162 108 113 244 144 -56 191 -213 hvcurveto
          -2 -134 rmoveto
          94 29 -75 -132 -133 -32 -83 -88 -90 -33 75 132 134 32 82 88 hvcurveto
          endchar
        </CharString>
        <CharString name="zerosuperior">
          -122 298 85 254 85 hstem
          30 117 114 117 vstem
          203 298 rmoveto
          101 74 69 149 89 -34 117 -138 -104 -72 -69 -149 -89 34 -117 139 hvcurveto
          1 85 rmoveto
          -45 -12 45 80 79 17 50 41 44 12 -46 -79 -79 -17 -50 -40 hvcurveto
          endchar
        </CharString>
      <CharString index="0">
        478 8 callsubr
        -154 -14 rlineto
        -390 vlineto
        -16 -15 -19 -13 -31 hhcurveto
        -37 -23 19 46 hvcurveto
        368 vlineto
        -21 callgsubr
        -373 vlineto
        -102 57 -63 97 70 44 24 43 38 vhcurveto
        4 hlineto
        13 -61 120 15 -11 145 rlineto
        return
      </CharString>
      <CharString index="1">
        -48 callgsubr
        -555 hlineto
        -24 -16 -30 -17 -36 hhcurveto
        -45 -43 20 71 hvcurveto
        505 -164 -523 vlineto
        -141 96 -56 103 78 50 25 37 38 vhcurveto
        5 1 20 -58 119 16 -11 158 rlineto
        return
      </CharString>
      <CharString index="2">
        558 708 -106 callgsubr
        return
      </CharString>
      <CharString index="3">
        314 12 callgsubr
        -204 -80 -173 -195 -182 50 -182 235 92 76 27 28 55 hvcurveto
        -33 104 rlineto
        -10 -31 -63 -20 -50 hhcurveto
        -112 -43 74 157 149 15 95 80 44 22 -16 -103 hvcurveto
        163 8 rlineto
        168 -56 71 -160 vhcurveto
        return
      </CharString>
      <CharString index="4">
        -87 callsubr
        128 rmoveto
        -195 -92 -146 -234 -123 17 -229 251 195 92 145 234 123 -17 230 -251 hvcurveto
        endchar
      </CharString>
      <CharString index="5">
        577 541 rmoveto
        -63 -382 rlineto
        -7 hlineto
        -78 361 -132 -13 -74 -349 rlineto
        -7 hlineto
        -69 383 -141 -15 119 -526 rlineto
        161 hlineto
        68 305 rlineto
        7 hlineto
        66 -305 rlineto
        171 hlineto
        112 526 rlineto
        return
      </CharString>
      <CharString index="6">
        -91 callgsubr
        186 62 138 136 135 -31 148 -190 hvcurveto
        -15 -119 rmoveto
        -80 callsubr
        -51 callsubr
        hvcurveto
        endchar
      </CharString>
      <CharString index="7">
        18 124 rlineto
        -273 176 209 hlineto
        17 122 rlineto
        -226 161 250 hlineto
        return
      </CharString>
      <CharString index="8">
        hstem
        60 164 170 164 vstem
        -105 callgsubr
        return
      </CharString>
      <CharString index="9">
        268 -33 callgsubr
        -152 -87 -110 -176 -169 71 -102 153 106 60 29 29 42 hvcurveto
        -32 91 rlineto
        -16 -42 -44 -14 -44 hhcurveto
        -76 -31 41 125 103 16 50 48 44 8 -17 -77 hvcurveto
        145 6 rlineto
        124 -27 83 -158 vhcurveto
        return
      </CharString>
      <CharString index="10">
        -35 38 -5 27 45 vvcurveto
        188 vlineto
        92 -15 86 -171 -81 -90 -29 -23 -40 vhcurveto
        -53 callgsubr
        1 return
      </CharString>
      <CharString index="11">
        237 -33 callgsubr
        8 callgsubr
        7 callsubr
        hvcurveto
        69 -30 36 -11 -32 vvcurveto
        -28 -26 -12 -28 -47 -58 25 18 -42 vhcurveto
        -55 -99 rlineto
        -28 48 65 -31 97 hhcurveto
        130 74 79 85 81 -63 36 -66 28 hvcurveto
        -64 28 -63 18 42 -28 callgsubr
        -19 -75 callsubr
        return
      </CharString>
      <CharString index="12">
        -90 callsubr
        59 -39 85 -83 callgsubr
        return
      </CharString>
      <CharString index="13">
        rmoveto
        hintmask 1111101001000000
        -40 callsubr
        hintmask 1111100101000000
        -41 callsubr
        hintmask 1111110010100000
        -93 callgsubr
        hintmask 1111110001000000
        147 -43 callgsubr
        hintmask 1111110010100000
        -96 callsubr
        return
      </CharString>
      <CharString index="14">
        -36 -29 -48 -25 -56 vvcurveto
        -74 57 -51 155 138 140 50 128 102 -65 23 -135 8 vhcurveto
        -80 6 rlineto
        -32 2 -10 9 15 vvcurveto
        9 6 4 14 10 vhcurveto
        -1 12 13 0 15 hhcurveto
        return
      </CharString>
      <CharString index="15">
        rmoveto
        -163 -306 hlineto
        23 -129 -6 -3 -46 123 -147 315 rlineto
        -157 -708 164 301 hlineto
        -24 124 7 2 41 -110 153 -317 rlineto
        155 hlineto
        endchar
      </CharString>
      <CharString index="16">
        -69 callgsubr
        -135 32 -148 190 return
      </CharString>
      <CharString index="17">
        -15 87 81 rcurveline
        -97 callgsubr
        return
      </CharString>
      <CharString index="18">
        -377 153 300 vlineto
        82 57 32 45 25 14 -5 -4 14 vhcurveto
        35 121 rlineto
        9 -18 -31 10 -36 hhcurveto
        -61 -50 -45 -70 -20 hvcurveto
        -4 hlineto
        return
      </CharString>
      <CharString index="19">
        -70 callsubr
        45 70 95 vvcurveto
        111 -47 90 -163 vhcurveto
        -102 -121 rmoveto
        45 hlineto
        70 21 -34 -59 return
      </CharString>
      <CharString index="20">
        hstem
        -98 callsubr
        return
      </CharString>
      <CharString index="21">
        168 -150 150 hintmask 11111110
        -89 callsubr
        hintmask 11111101
        -76 callsubr
        hintmask 11111110
        -63 callgsubr
        return
      </CharString>
      <CharString index="22">
        -58 callsubr
        88 -18 callgsubr
      </CharString>
      <CharString index="23">
        -19 -113 rlineto
        219 hlineto
        -222 -318 rlineto
        -102 394 vlineto
        22 113 rlineto
        -246 hlineto
        228 319 rlineto
        return
      </CharString>
      <CharString index="24">
        77 41 37 37 29 vhcurveto
        4 hlineto
        12 -24 32 -35 32 -15 87 81 rcurveline
        return
      </CharString>
      <CharString index="25">
        153 397 vlineto
        18 16 23 11 -34 callgsubr
        377 vlineto
        106 -57 62 -101 -64 -39 -22 -25 -28 vhcurveto
        -4 2 14 41 rlineto
        return
      </CharString>
      <CharString index="26">
        -73 callgsubr
        231 86 rlineto
        return
      </CharString>
      <CharString index="27">
        rmoveto
        -572 vlineto
        -109 24 -34 59 -62 vhcurveto
        110 81 rlineto
        -35 44 -4 20 63 vvcurveto
        586 vlineto
        endchar
      </CharString>
      <CharString index="28">
        -12 -77 callsubr
        return
      </CharString>
      <CharString index="29">
        rmoveto
        -69 hlineto
        -131 -129 -13 callsubr
        85 111 -85 12 callsubr
        return
      </CharString>
      <CharString index="30">
        -5 callgsubr
        -81 -111 81 -55 -57 return
      </CharString>
      <CharString index="31">
        44 58 23 52 24 86 122 433 rcurveline
        return
      </CharString>
      <CharString index="32">
        -68 callsubr
        164 hlineto
        return
      </CharString>
      <CharString index="33">
        -13 -48 hhcurveto
        -82 -20 46 72 hvcurveto
        return
      </CharString>
      <CharString index="34">
        rmoveto
        -36 callgsubr
        44 -81 return
      </CharString>
      <CharString index="35">
        -40 -33 callsubr
        return
      </CharString>
      <CharString index="36">
        -34 callsubr
        -45 65 63 20 36 return
      </CharString>
      <CharString index="37">
        -65 51 23 36 30 4 -4 -23 -62 rlineto
        -166 vlineto
        -85 -12 rlineto
        -68 273 68 vlineto
        -76 11 rlineto
        220 vlineto
        return
      </CharString>
      <CharString index="38">
        -186 -63 -138 -136 return
      </CharString>
      <CharString index="39">
        rmoveto
        hintmask 11010110
        -18 -30 -25 -13 -26 hhcurveto
        hintmask 11001110
        -43 -24 -47 callgsubr
        return
      </CharString>
      <CharString index="40">
        -122 47 -78 224 97 rlineto
        return
      </CharString>
      <CharString index="41">
        72 22 40 42 44 -15 50 -68 22 callgsubr
        14 -49 68 hvcurveto
        return
      </CharString>
      <CharString index="42">
        279 324 -64 callsubr
        return
      </CharString>
      <CharString index="43">
        -20 -87 callgsubr
        return
      </CharString>
      <CharString index="44">
        55 17 -25 -93 hvcurveto
        163 10 rlineto
        148 -52 88 -182 vhcurveto
        return
      </CharString>
      <CharString index="45">
        28 14 7 15 vhcurveto
        -15 57 rlineto
        return
      </CharString>
      <CharString index="46">
        154 vstem
        return
      </CharString>
      <CharString index="47">
        -32 49 hhcurveto
        42 39 20 40 45 hvcurveto
        endchar
      </CharString>
      <CharString index="48">
        153 -6 callgsubr
        vstem
        return
      </CharString>
      <CharString index="49">
        -195 -92 -146 -234 -88 8 -142 97 -73 hvcurveto
        -39 -91 66 -28 36 85 rlineto
        -9 28 33 -6 39 hhcurveto
        195 92 145 234 86 -9 139 -91 74 hvcurveto
        return
      </CharString>
      <CharString index="50">
        -40 -200 109 87 115 54 114 153 113 return
      </CharString>
      <CharString index="51">
        918 rmoveto
        -64 -20 -37 -34 callsubr
        -45 66 62 21 36 39 37 -11 46 -64 1 callgsubr
        -37 -34 callsubr
        -45 65 64 19 36 39 37 -9 46 -66 hvcurveto
        return
      </CharString>
      <CharString index="52">
        -39 -23 -42 hhcurveto
        -42 -39 22 22 -28 hvcurveto
        -51 -53 rlineto
        -44 33 54 -40 73 hhcurveto
        73 return
      </CharString>
      <CharString index="53">
        -62 callgsubr
        -3 -10 -14 -3 -14 hhcurveto
        return
      </CharString>
      <CharString index="54">
        -88 callsubr
        -46 callgsubr
        return
      </CharString>
      <CharString index="55">
        -48 callgsubr
        -708 164 hlineto
        return
      </CharString>
      <CharString index="56">
        105 -12 128 476 return
      </CharString>
      <CharString index="57">
        95 -59 callsubr
        return
      </CharString>
      <CharString index="58">
        -232 -57 callsubr
        return
      </CharString>
      <CharString index="59">
        rmoveto
        -164 return
      </CharString>
      <CharString index="60">
        31 -51 hhcurveto
        -42 -42 -17 -42 -43 hvcurveto
        32 -73 rlineto
        20 return
      </CharString>
      <CharString index="61">
        51 14 -22 -42 hvcurveto
        return
      </CharString>
      <CharString index="62">
        -21 426 119 return
      </CharString>
      <CharString index="63">
        112 vstem
        46 122 rmoveto
        20 -57 12 -29 -17 vvcurveto
        -21 -8 -24 -32 -52 vhcurveto
        75 -55 rlineto
        56 76 21 46 44 vvcurveto
        49 -17 37 -19 50 vhcurveto
        return
      </CharString>
      <CharString index="64">
        72 73 125 29 -4 31 -13 29 hvcurveto
        return
      </CharString>
      <CharString index="65">
        21 -45 callgsubr
        return
      </CharString>
      <CharString index="66">
        rmoveto
        -15 -15 -24 -13 -29 hhcurveto
        -30 -22 11 38 47 41 15 79 11 hvcurveto
        return
      </CharString>
      <CharString index="67">
        734 rmoveto
        8 -49 5 -31 -18 vvcurveto
        -23 -10 -20 return
      </CharString>
      <CharString index="68">
        67 164 return
      </CharString>
      <CharString index="69">
        502 -19 callgsubr
        -477 hlineto
        -16 -123 rlineto
        169 -585 return
      </CharString>
      <CharString index="70">
        63 4 71 34 44 58 return
      </CharString>
      <CharString index="71">
        -225 -111 return
      </CharString>
      <CharString index="72">
        41 29 -32 50 hhcurveto
        42 38 20 40 46 hvcurveto
        return
      </CharString>
      <CharString index="73">
        -18 callsubr
        154 return
      </CharString>
      <CharString index="74">
        545 rmoveto
        return
      </CharString>
      <CharString index="75">
        -17 callsubr
        -42 hhcurveto
        -41 -40 22 22 -28 hvcurveto
        -51 -53 rlineto
        -44 34 53 -40 73 hhcurveto
        73 55 40 44 32 hvcurveto
        return
      </CharString>
      <CharString index="76">
        203 713 rmoveto
        -201 -370 176 -343 rlineto
        183 hlineto
        -200 358 183 293 rlineto
        endchar
      </CharString>
      <CharString index="77">
        29 163 return
      </CharString>
      <CharString index="78">
        45 -21 452 -20 hstem
        275 446 rmoveto
        -105 30 -124 -226 125 -226 104 30 -93 196 rlineto
        return
      </CharString>
      <CharString index="79">
        vvcurveto
        29 22 18 28 37 25 return
      </CharString>
      <CharString index="80">
        821 rmoveto
        -225 111 return
      </CharString>
      <CharString index="81">
        vlineto
        -82 29 0 callsubr
        -14 50 -68 hvcurveto
        hintmask 11100000
        -72 -24 callsubr
        endchar
      </CharString>
      <CharString index="82">
        -20 -63 callsubr
        return
      </CharString>
      <CharString index="83">
        128 124 114 238 128 return
      </CharString>
      <CharString index="84">
        70 34 56 48 53 -29 46 -70 return
      </CharString>
      <CharString index="85">
        0 28 179 -20 hstemhm
        return
      </CharString>
      <CharString index="86">
        -153 -14 rlineto
        return
      </CharString>
      <CharString index="87">
        -3 3 callgsubr
        return
      </CharString>
      <CharString index="88">
        708 rmoveto
        return
      </CharString>
      <CharString index="89">
        62 19 27 42 vvcurveto
        26 -5 32 -3 26 vhcurveto
        endchar
      </CharString>
      <CharString index="90">
        123 -61 callgsubr
        return
      </CharString>
      <CharString index="91">
        vhcurveto
        -53 35 56 -29 85 hhcurveto
        81 67 18 callgsubr
        -44 -44 -13 -49 hhcurveto
        return
      </CharString>
      <CharString index="92">
        -48 3 callgsubr
        228 210 -119 119 return
      </CharString>
      <CharString index="93">
        -33 -52 -51 -51 29 -49 70 return
      </CharString>
      <CharString index="94">
        -223 -21 265 -21 return
      </CharString>
      <CharString index="95">
        rmoveto
        -111 -81 -111 81 -55 -57 -49 callsubr
        132 125 rlineto
        return
      </CharString>
      <CharString index="96">
        -3 22 hhcurveto
        186 62 138 136 100 -17 108 -87 49 hvcurveto
        29 77 -57 21 return
      </CharString>
      <CharString index="97">
        -44 -50 callsubr
        11 callsubr
        19 -29 callsubr
        return
      </CharString>
      <CharString index="98">
        -98 0 113 307 113 return
      </CharString>
      <CharString index="99">
        28 8 -19 -19 -19 -12 -16 -20 return
      </CharString>
      <CharString index="100">
        -19 callgsubr
        -708 return
      </CharString>
      <CharString index="101">
        125 154 return
      </CharString>
      <CharString index="102">
        -55 57 -111 return
      </CharString>
      <CharString index="103">
        -50 callgsubr
        244 0 callgsubr
        return
      </CharString>
      <CharString index="104">
        -21 708 return
      </CharString>
      <CharString index="105">
        29 callsubr
        -30 callgsubr
        137 153 return
      </CharString>
      <CharString index="106">
        -130 -26 -29 -6 -10 -20 hvcurveto
        30 32 13 104 rlineto
        210 hlineto
        endchar
      </CharString>
      <CharString index="107">
        -20 hstem
        60 164 170 164 vstem
        return
      </CharString>
      <CharString index="108">
        11 callgsubr
        -62 -21 return
      </CharString>
      <CharString index="109">
        103 -71 71 -71 103 hstemhm
        return
      </CharString>
      <CharString index="110">
        -12 119 return
      </CharString>
      <CharString index="111">
        -71 -14 callgsubr
        -23 callgsubr
        hvcurveto
        return
      </CharString>
      <CharString index="112">
        -82 -89 -79 callsubr
        51 14 return
      </CharString>
      <CharString index="113">
        25 -59 hvcurveto
        -43 -103 rlineto
        -33 50 81 -27 86 hhcurveto
        121 132 76 return
      </CharString>
      <CharString index="114">
        37 -10 46 -65 hvcurveto
        return
      </CharString>
      <CharString index="115">
        -121 -87 -63 -103 return
      </CharString>
      <CharString index="116">
        hhcurveto
        -42 -42 -17 -42 -43 hvcurveto
        32 -73 rlineto
        20 28 24 10 26 hhcurveto
        return
      </CharString>
      <CharString index="117">
        -148 -142 -14 -95 -91 hvcurveto
        -63 return
      </CharString>
      <CharString index="118">
        hvcurveto
        208 hmoveto
        return
      </CharString>
      <CharString index="119">
        720 rmoveto
        return
      </CharString>
      <CharString index="120">
        -20 -6 6 70 50 rlineto
        63 45 57 54 70 vvcurveto
        78 -51 54 return
      </CharString>
      <CharString index="121">
        -18 -47 hvcurveto
        return
      </CharString>
      <CharString index="122">
        14 -476 rmoveto
        -25 -19 5 10 -14 hvcurveto
        144 348 return
      </CharString>
      <CharString index="123">
        -63 -138 -136 -102 18 -109 90 -47 hvcurveto
        -30 -80 return
      </CharString>
      <CharString index="124">
        rmoveto
        52 -40 24 -50 -26 -39 -9 -6 -18 vhcurveto
        9 -54 rlineto
        return
      </CharString>
</ttFont>
